<svg width="164" height="164" viewBox="0 0 164 164" fill="none" xmlns="http://www.w3.org/2000/svg">
<rect width="164" height="164" fill="#25704F"/>
<path d="M148.672 57C150.544 57 152 58.4561 152 60.3281V103.316C152 105.119 150.544 106.575 148.672 106.575C146.869 106.575 145.413 105.119 145.413 103.316V72.6006L130.229 104.148C128.564 107.754 125.375 106.922 123.919 104.287L108.665 72.6006V103.316C108.665 105.119 107.209 106.575 105.337 106.575C103.534 106.575 102.078 105.119 102.078 103.316V60.3281C102.078 58.4561 103.534 57 105.337 57C106.932 57 108.526 57.1387 109.358 58.8721L127.039 95.6201L144.72 58.8721C145.482 57.2773 146.939 57 148.672 57Z" fill="white"/>
<path d="M93.9953 101.028C95.5207 101.028 96.7687 102.276 96.7687 103.802C96.7687 105.327 95.5207 106.575 93.9953 106.575H77.3546C65.9142 106.575 56.5538 97.2149 56.5538 85.7744V77.8008C56.5538 66.3604 65.9142 57 77.3546 57H91.2218C92.7472 57 93.9953 58.248 93.9953 59.7734C93.9953 61.2988 92.7472 62.5469 91.2218 62.5469H78.3947C70.005 62.5469 63.1407 69.4111 63.1407 77.8008V85.7744C63.1407 94.1641 70.005 101.028 78.3947 101.028H93.9953Z" fill="white"/>
<path d="M49.4414 101.028C50.9668 101.028 52.2149 102.276 52.2149 103.802C52.2149 105.327 50.9668 106.575 49.4414 106.575H32.8008C21.3604 106.575 12 97.2149 12 85.7744V77.8008C12 66.3604 21.3604 57 32.8008 57H46.668C48.1934 57 49.4414 58.248 49.4414 59.7734C49.4414 61.2988 48.1934 62.5469 46.668 62.5469H33.8408C25.4512 62.5469 18.5869 69.4111 18.5869 77.8008V85.7744C18.5869 94.1641 25.4512 101.028 33.8408 101.028H49.4414Z" fill="white"/>
</svg>
