<svg xmlns="http://www.w3.org/2000/svg" viewBox="0 0 23.73 26.66"><defs><style>.cls-1{fill:#e20719;}</style></defs><g id="Capa_2" data-name="Capa 2"><g id="Layer_1" data-name="Layer 1"><path class="cls-1" d="M12.7,0V3.75l2.14-2.08,1.08,1.1L12.7,6.2V9.93a4.71,4.71,0,0,1,1.64,1l3.41-2L19,4.48,20.4,5l-.72,3L23,6c.21,0,.13,0,.18.13a6.05,6.05,0,0,1,.59,1.16L20.51,9.17c0,.14.15.17.26.21.38.16,2.52.58,2.62.72l-.28,1.46-4.52-1.14L15.3,12.24c-.22.22,0,.53,0,.83s-.09.87-.06,1.3l3.26,1.86,4.6-1.12.28,1.46c-.1.13-2.24.55-2.62.71-.11,0-.25.08-.26.22l3.19,1.77-.59,1.35-3.43-1.87.72,2.95L19,22.19l-1.2-4.48-3.41-2a4.68,4.68,0,0,1-1.64,1v3.73l3.22,3.43L14.84,25,12.7,22.91v3.75H11V22.91L8.9,25l-1.09-1.1L11,20.46V16.73a4.59,4.59,0,0,1-1.64-1L6,17.71,4.78,22.19,3.33,21.7l.72-2.95L.62,20.62,0,19.27l3.18-1.83c0-.23-.1-.12-.24-.16-.36-.11-2.55-.6-2.63-.71l.27-1.46L5.31,16.2l3.18-1.83c0-.43-.07-.85-.06-1.3s.22-.61,0-.83L5.14,10.42.62,11.56.35,10.1C.44,10,2.7,9.49,3.07,9.38c.15-.05.18.06.15-.21L0,7.33A6.05,6.05,0,0,1,.59,6.17C.64,6.09.57,6,.77,6L4.05,7.92,3.33,5l1.45-.48L6,9l3.41,2a4.62,4.62,0,0,1,1.64-1V6.2L7.81,2.77,8.9,1.67,11,3.75V0ZM11.42,11.48a1.9,1.9,0,0,0,.89,3.7A1.9,1.9,0,0,0,11.42,11.48Z"/></g></g></svg>