<svg xmlns="http://www.w3.org/2000/svg" viewBox="0 0 25.47 26.65"><defs><style>.cls-1{fill:#25704F;}</style></defs><g id="Capa_2" data-name="Capa 2"><g id="Layer_1" data-name="Layer 1"><path class="cls-1" d="M17.34,0h.05a58.39,58.39,0,0,1,5.8,7.5c1.09,1.77,2.39,4.15,2.27,6.27A8.22,8.22,0,0,1,19,21.21a10.09,10.09,0,0,1-17.78.23c-2.3-4.19-1.09-7.53,1.14-11.32A69.23,69.23,0,0,1,10.05,0h0l3.67,4.32Zm-.26,21.35a8.11,8.11,0,0,1-7.76-7.27c-.22-2.29.95-4.47,2.11-6.37.42-.68.89-1.34,1.32-2-.57-.8-1.19-1.58-1.82-2.33-.19-.23-.42-.52-.62-.73s-.25-.28-.31-.23a.2.2,0,0,1-.06.12,51.42,51.42,0,0,0-6.51,9C1.8,14.36.85,16.76,2.3,20a8.52,8.52,0,0,0,14.18,2.17Zm.36-19c-.07,0-.21.13-.26.18-2,2.13-5.32,6.73-6.11,9.46C10,15.81,13.25,19.57,17,19.79a6.58,6.58,0,0,0,6.9-6.43c0-2.66-3.59-7.39-5.26-9.48C18.24,3.39,17.79,2.91,17.44,2.4Z"/><path class="cls-1" d="M5.2,17.34a4.06,4.06,0,0,0,2.71,3.49l-.5,1.5a5.58,5.58,0,0,1-3.76-4.88Z"/><path class="cls-1" d="M14.47,13.59a3,3,0,0,0,1.39,2.28c.11.07.57.23.58.3L16,17.6a4.42,4.42,0,0,1-3.1-3.91Z"/></g></g></svg>