<svg width="890" height="164" viewBox="0 0 890 164" fill="none" xmlns="http://www.w3.org/2000/svg">
<path d="M313.06 110.44H297.06V68.1798L294.38 67.5298C288.51 79.0398 282.03 90.2798 277 102.13C273.86 109.52 269.23 112.32 262.07 110.61C258.75 109.82 254.72 107.61 253.07 104.85C247.68 95.5798 243.33 85.7198 238.36 76.1998C236.761 73.136 234.165 70.7091 231 69.3198V110.32H215V53.3198C224.37 53.3198 233.69 52.6998 242.84 53.7098C245.45 53.9898 248.18 58.7098 249.74 61.8998C254.36 71.1198 258.36 80.6798 263.36 92.0198C269.53 79.8898 274.98 70.0798 279.53 59.8698C281.91 54.5198 284.98 52.6598 290.71 53.0598C297.86 53.5598 305.07 53.1798 313.08 53.1798L313.06 110.44Z" fill="white"/>
<path d="M692.25 94.3398V53.8098H709.87V110.72C700.64 110.72 691.35 111.08 682.14 110.47C679.7 110.31 676.88 107.54 675.24 105.25C668.09 95.2498 661.39 84.9998 654.35 74.9598C652.46 72.2798 649.91 70.0498 646.54 66.3898V110.11H628.91V53.2298C638.13 53.2298 647.17 52.7998 656.11 53.4998C658.77 53.6998 661.79 56.6198 663.59 59.0598C672.44 71.0598 680.93 83.3298 689.59 95.4998L692.25 94.3398Z" fill="white"/>
<path d="M754.9 110.78C746.47 110.78 738.04 110.78 729.61 110.78C722.87 110.78 717.43 107.73 716.88 101.28C715.895 89.7371 715.815 78.135 716.64 66.5798C717.3 57.4798 722.77 52.6498 732.88 53.0198C747.88 53.5698 762.88 53.1398 777.88 53.1698C787.4 53.1698 794.88 60.1098 795.2 69.4998C795.47 78.1798 795.44 86.8798 795.2 95.5698C794.97 105.19 789.2 110.57 779.27 110.73C771.14 110.86 763.02 110.78 754.9 110.78ZM755.72 67.6298C731.95 67.6298 731.81 67.8898 732.94 88.7498C733.21 93.8598 735.02 96.1098 740.17 96.0198C747.96 95.8798 755.76 96.0198 763.56 96.0198C776.56 96.0198 776.56 96.0198 776.64 83.5498C776.7 67.6498 776.7 67.6498 760.4 67.6398L755.72 67.6298Z" fill="white"/>
<path d="M421.28 110.29H404.91V53.2098C413.44 53.2098 422.14 52.5698 430.66 53.5398C433.9 53.8998 437.31 57.5398 439.66 60.4298C448.2 71.2498 456.31 82.4298 464.66 93.4298C465.14 94.0698 466.14 94.3198 468.04 95.4298V53.7498H484.31V110.75C475.06 110.75 465.5 111.13 456.01 110.48C453.68 110.32 451.16 107.12 449.47 104.79C440.7 92.6798 432.18 80.3998 421.34 68.7898L421.28 110.29Z" fill="white"/>
<path d="M799.8 53.1898C820.4 53.1898 840.37 52.6898 860.28 53.6098C864.34 53.7998 871.05 58.9898 871.47 62.4698C872.47 70.8398 875.59 80.5698 868.03 86.5698C869.95 94.5698 871.69 101.77 873.68 110.07H855.06C854.97 109.98 854.25 109.56 854.2 109.07C852.98 95.8098 852.99 95.8098 839.67 95.8098H818.49C818.05 100.91 817.66 105.37 817.24 110.28H799.8V53.1898ZM818.26 81.0398C829.35 81.0398 839.64 81.3398 849.88 80.7698C851.88 80.6598 855.51 76.6498 855.15 75.3398C854.36 72.4398 851.61 68.1698 849.36 67.9998C839.18 67.2198 828.91 67.6598 818.23 67.6598L818.26 81.0398Z" fill="white"/>
<path d="M621.91 75.2798V86.2798H577.69V95.9498H623.43V110.76H561.21V53.6898H623.43V65.5498H578.07C577.67 68.9198 577.35 71.5498 576.9 75.2798H621.91Z" fill="white"/>
<path d="M402.89 110.53C393.23 110.35 384.12 113.99 378.75 103.47C377.94 101.88 373.81 101.47 371.2 101.38C360.9 101.15 350.59 101.29 339.54 101.29C337.54 115.9 326.27 109.52 316.35 111.11C319.71 104.11 322.44 98.1098 325.35 92.3098C328.9 85.1798 332.6 78.1198 336.19 71.0098C345.51 52.4398 345.52 52.2098 366.22 53.4398C369.51 53.6298 374.02 56.1398 375.57 58.9098C384.82 75.4398 393.36 92.3198 402.89 110.53ZM372.42 88.0198L359.22 63.5798C354.55 73.0598 351.09 80.0598 347.16 88.0198H372.42Z" fill="white"/>
<path d="M532.22 110.76C527.06 110.76 523.64 110.76 520.22 110.76C518.38 110.76 516.54 110.56 513.62 110.39V68.0298H487.84V53.6198H557.63V67.2698H532.22V110.76Z" fill="white"/>
<path d="M62.0574 72.9651C63.5874 58.5651 74.5874 45.5851 88.2174 42.5251C101.847 39.4651 113.617 45.8251 116.287 61.0651C118.787 75.3651 111.647 91.4651 99.5674 99.0651C95.2039 101.944 90.0632 103.417 84.8374 103.285C75.2374 102.915 68.5274 98.1251 64.5174 89.5051C62.2365 84.31 61.3872 78.5992 62.0574 72.9651Z" fill="white"/>
<path d="M109.687 135.025C105.24 134.536 101.164 132.313 98.3451 128.839C95.5258 125.364 94.19 120.918 94.6274 116.465C94.9045 113.215 96.3709 110.181 98.7456 107.945C101.12 105.709 104.236 104.427 107.497 104.345C117.067 103.845 125.667 112.345 125.167 121.845C125.123 123.764 124.674 125.653 123.849 127.386C123.024 129.12 121.842 130.659 120.38 131.904C118.919 133.148 117.21 134.07 115.368 134.608C113.525 135.145 111.589 135.288 109.687 135.025Z" fill="white"/>
<path d="M124.657 149.365C122.628 149.146 120.768 148.134 119.481 146.549C118.194 144.965 117.586 142.936 117.787 140.905C117.915 139.423 118.584 138.04 119.667 137.019C120.749 135.999 122.17 135.414 123.657 135.375C124.718 135.348 125.773 135.536 126.76 135.927C127.746 136.319 128.643 136.906 129.396 137.654C130.149 138.401 130.743 139.294 131.142 140.277C131.541 141.26 131.737 142.314 131.717 143.375C131.695 144.249 131.488 145.108 131.11 145.896C130.733 146.684 130.193 147.384 129.527 147.949C128.861 148.515 128.082 148.933 127.243 149.177C126.404 149.421 125.523 149.485 124.657 149.365Z" fill="white"/>
<path d="M133.147 159.965C132.043 159.844 131.032 159.292 130.333 158.428C129.634 157.565 129.305 156.46 129.417 155.355C129.486 154.55 129.85 153.798 130.438 153.245C131.027 152.691 131.799 152.374 132.607 152.355C133.183 152.34 133.756 152.442 134.292 152.654C134.827 152.867 135.314 153.185 135.723 153.59C136.133 153.996 136.456 154.48 136.673 155.014C136.89 155.547 136.997 156.119 136.987 156.695C136.976 157.171 136.865 157.64 136.66 158.069C136.455 158.499 136.162 158.881 135.8 159.19C135.437 159.499 135.013 159.727 134.556 159.861C134.099 159.995 133.619 160.03 133.147 159.965Z" fill="white"/>
<path d="M149.707 55.1951C148.817 63.2751 143.857 68.9451 137.277 69.8551C128.527 71.0651 121.917 64.1251 123.587 55.4651C124.877 48.7651 132.107 42.4651 138.877 42.1851C145.317 41.8951 149.687 46.3251 149.777 53.2451C149.797 54.0651 149.717 54.8851 149.707 55.1951Z" fill="white"/>
<path d="M171.007 49.9651C170.477 54.7951 167.507 58.1851 163.567 58.7351C162.407 58.9502 161.211 58.8722 160.088 58.5081C158.966 58.1441 157.952 57.5055 157.138 56.6504C156.325 55.7952 155.738 54.7505 155.43 53.6111C155.123 52.4716 155.105 51.2734 155.377 50.1251C156.157 46.1251 160.477 42.3551 164.527 42.1251C168.377 41.9551 170.997 44.6051 171.057 48.7451C171.007 49.2351 171.007 49.7251 171.007 49.9651Z" fill="white"/>
<path d="M186.137 46.5751C185.867 48.9851 184.387 50.6851 182.417 50.9551C181.837 51.0647 181.239 51.0273 180.676 50.8464C180.114 50.6655 179.606 50.3468 179.199 49.9194C178.791 49.492 178.497 48.9694 178.343 48.3993C178.189 47.8292 178.18 47.2296 178.317 46.6551C178.584 45.6023 179.166 44.6557 179.984 43.9412C180.802 43.2267 181.818 42.7781 182.897 42.6551C183.338 42.6247 183.779 42.6899 184.192 42.8462C184.605 43.0025 184.979 43.2462 185.288 43.5606C185.598 43.8751 185.836 44.2527 185.986 44.6678C186.136 45.0828 186.194 45.5254 186.157 45.9651C186.157 46.2351 186.137 46.4851 186.137 46.5751Z" fill="white"/>
<path d="M59.0074 118.855C57.4474 114.575 56.7374 111.025 59.5274 108.045C62.3174 105.065 65.9874 105.045 69.5974 106.195C77.3674 108.655 82.5974 113.745 84.3074 121.815C85.7074 128.525 80.9574 133.035 74.2274 131.445C66.7974 129.695 61.9074 124.765 59.0074 118.855Z" fill="white"/>
<path d="M57.0074 139.335C56.1374 136.965 55.7474 134.995 57.2974 133.335C58.8474 131.675 60.8774 131.685 62.8774 132.335C67.1974 133.705 70.1074 136.525 71.0374 141.005C71.8174 144.725 69.1874 147.235 65.4474 146.345C63.601 145.893 61.8816 145.027 60.4194 143.813C58.9571 142.598 57.7903 141.067 57.0074 139.335Z" fill="white"/>
<path d="M55.3774 153.355C54.8874 152.025 54.6674 150.915 55.5374 149.985C55.9419 149.587 56.4566 149.32 57.0147 149.219C57.5728 149.117 58.1486 149.185 58.6674 149.415C59.8122 149.709 60.8502 150.322 61.6609 151.182C62.4716 152.042 63.0217 153.115 63.2474 154.275C63.3833 154.706 63.3957 155.167 63.2832 155.605C63.1708 156.043 62.9379 156.44 62.6111 156.752C62.2842 157.065 61.8764 157.279 61.4339 157.372C60.9914 157.464 60.5319 157.431 60.1074 157.275C59.0728 157.024 58.109 156.541 57.2894 155.862C56.4698 155.182 55.8158 154.325 55.3774 153.355Z" fill="white"/>
<path d="M57.4474 87.1151C56.8474 90.8851 56.4474 94.7051 55.5874 98.4251C55.0874 100.595 53.8674 102.715 51.3074 102.985C48.7474 103.255 47.3574 101.445 46.2574 99.5551C44.0239 95.7939 42.603 91.6066 42.0863 87.2628C41.5696 82.9191 41.9685 78.5153 43.2574 74.3351C43.3892 73.912 43.5634 73.5032 43.7774 73.1151C45.7774 69.1151 49.3974 68.5251 51.9074 72.1851C53.5953 74.9015 54.939 77.8172 55.9074 80.8651C56.4527 82.8621 56.8208 84.9034 57.0074 86.9651L57.4474 87.1151Z" fill="white"/>
<path d="M38.5574 93.9651C38.4174 96.1151 38.3774 98.2851 38.1074 100.415C38.101 101.052 37.8864 101.67 37.4964 102.173C37.1065 102.677 36.5625 103.039 35.9474 103.205C34.5774 103.475 33.6374 102.545 32.9474 101.545C31.4993 99.5495 30.4843 97.2731 29.9677 94.8622C29.4511 92.4512 29.4441 89.9589 29.9474 87.5451C29.9998 87.3012 30.0769 87.0634 30.1774 86.8351C31.0074 84.4851 33.0074 83.9651 34.6474 85.8951C35.743 87.3301 36.6566 88.8954 37.3674 90.5551C37.7798 91.6621 38.0943 92.8031 38.3074 93.9651H38.5574Z" fill="white"/>
<path d="M27.0774 99.9051C27.2274 101.025 27.4274 102.135 27.4974 103.255C27.5613 103.581 27.5155 103.918 27.3671 104.215C27.2188 104.512 26.9762 104.751 26.6774 104.895C26.3768 104.98 26.0577 104.974 25.7605 104.878C25.4633 104.782 25.2012 104.6 25.0074 104.355C24.0561 103.487 23.2976 102.428 22.7809 101.248C22.2641 100.068 22.0006 98.7932 22.0074 97.5051C21.9975 97.3753 21.9975 97.2449 22.0074 97.1151C22.2374 95.8151 23.2074 95.3451 24.2274 96.1751C24.932 96.7954 25.5568 97.5008 26.0874 98.2751C26.4246 98.8113 26.7125 99.3769 26.9474 99.9651L27.0774 99.9051Z" fill="white"/>
<path d="M106.457 38.3051C104.657 36.9251 102.837 34.9351 103.157 31.8551C103.317 30.4972 103.871 29.2158 104.751 28.1691C105.63 27.1223 106.797 26.3562 108.107 25.9651C111.637 24.6149 115.436 24.1194 119.194 24.5192C122.951 24.9189 126.561 26.2026 129.727 28.2651C133.147 30.3751 133.367 32.8851 130.937 35.6551C125.707 41.5651 113.457 43.1051 106.457 38.3051Z" fill="white"/>
<path d="M121.677 22.0951C121.045 21.6979 120.531 21.1368 120.191 20.4713C119.851 19.8058 119.698 19.0607 119.747 18.3151C119.833 17.5134 120.154 16.755 120.67 16.1357C121.186 15.5163 121.874 15.0638 122.647 14.8351C124.713 14.0451 126.936 13.7556 129.135 13.9903C131.333 14.2249 133.445 14.9771 135.297 16.1851C137.297 17.4151 137.427 18.8951 136.007 20.5051C132.947 23.9651 125.777 24.9051 121.677 22.0951Z" fill="white"/>
<path d="M133.857 11.2951C133.532 11.0961 133.267 10.8122 133.091 10.4739C132.915 10.1357 132.834 9.7558 132.857 9.37513C132.902 8.96955 133.065 8.58611 133.326 8.27297C133.588 7.95984 133.936 7.73097 134.327 7.61513C135.375 7.21465 136.503 7.06749 137.619 7.18566C138.735 7.30384 139.807 7.68399 140.747 8.29513C140.96 8.37326 141.149 8.50656 141.293 8.68137C141.438 8.85618 141.533 9.06624 141.57 9.29004C141.606 9.51384 141.583 9.74336 141.502 9.9551C141.42 10.1668 141.284 10.3532 141.107 10.4951C140.144 11.3874 138.92 11.9467 137.614 12.0908C136.309 12.2348 134.992 11.9559 133.857 11.2951Z" fill="white"/>
<path d="M92.7974 22.7251C93.3437 22.8906 93.8811 23.0841 94.4074 23.3051C96.8874 24.4451 97.4074 26.0851 96.1874 28.5051C96.0885 28.7369 95.9608 28.9553 95.8074 29.1551C89.7474 36.2751 82.2874 40.6051 72.6974 40.5551C71.6259 40.5032 70.5741 40.2487 69.5974 39.8051C69.0249 39.6179 68.4982 39.3126 68.0513 38.9088C67.6044 38.5051 67.2472 38.0119 67.0031 37.4614C66.7589 36.9108 66.6331 36.3151 66.6339 35.7128C66.6346 35.1105 66.7619 34.5151 67.0074 33.9651C67.5403 32.5537 68.3228 31.2496 69.3174 30.1151C74.0774 24.6851 85.4074 21.1051 92.7974 22.7251Z" fill="white"/>
<path d="M83.2374 11.4351C83.3974 11.4951 83.7474 11.5951 84.0774 11.7451C84.3534 11.8162 84.6075 11.9548 84.8167 12.1484C85.0259 12.342 85.1837 12.5846 85.2759 12.8543C85.3682 13.124 85.3919 13.4124 85.345 13.6936C85.2981 13.9748 85.1821 14.2399 85.0074 14.4651C84.9565 14.587 84.8892 14.7014 84.8074 14.8051C81.6374 18.5251 77.7374 20.8051 72.7174 20.8051C72.1575 20.779 71.6078 20.6466 71.0974 20.4151C70.7951 20.3202 70.5163 20.1622 70.2796 19.9516C70.0428 19.741 69.8535 19.4825 69.724 19.1933C69.5945 18.9041 69.5279 18.5907 69.5284 18.2738C69.529 17.957 69.5968 17.6438 69.7274 17.3551C70.0043 16.6197 70.4145 15.9417 70.9374 15.3551C73.4474 12.4651 79.3674 10.5951 83.2374 11.4351Z" fill="white"/>
<path d="M79.7174 5.06512C79.854 5.10165 79.9877 5.14845 80.1174 5.20512C80.2464 5.23816 80.3651 5.30287 80.4627 5.39341C80.5604 5.48394 80.6339 5.59742 80.6766 5.72355C80.7193 5.84969 80.7299 5.98449 80.7073 6.11573C80.6847 6.24697 80.6298 6.3705 80.5474 6.47512C80.5256 6.53269 80.4953 6.58663 80.4574 6.63512C79.7892 7.50106 78.9318 8.20268 77.9508 8.68626C76.9698 9.16984 75.8911 9.42258 74.7974 9.42512C74.5247 9.41801 74.2562 9.35683 74.0074 9.24512C73.8661 9.19914 73.736 9.12398 73.6256 9.02449C73.5153 8.925 73.427 8.80342 73.3667 8.66764C73.3063 8.53186 73.2752 8.3849 73.2753 8.23631C73.2754 8.08772 73.3068 7.94081 73.3674 7.80512C73.5211 7.45511 73.7381 7.13645 74.0074 6.86512C74.7668 6.16151 75.6728 5.63512 76.6602 5.32386C77.6476 5.01261 78.6917 4.92424 79.7174 5.06512Z" fill="white"/>
</svg>
