<svg width="445" height="140" viewBox="0 0 445 140" fill="none" xmlns="http://www.w3.org/2000/svg">
<path d="M110 140H0V0H110V140ZM10 130H100V102.001H81L52.5 120L28.5 102.001H10V130ZM56.6455 101.499L49.1729 95.9766L61.0098 87.0068L56.6455 84L40.8271 96.0244L56.3555 107.502L89.6934 87.5146H99.7793V82.5146L88.3076 82.5137L56.6455 101.499ZM32.623 81H10V86H34.377L56.0557 68.6562L75 82L79.5 79L55.9434 62.3438L32.623 81ZM10 75.501H26.5L56.5 53.5L88.5 75.501H100V10H10V75.501Z" fill="white"/>
<path d="M83.4247 22.55C84.2347 22.55 84.8647 23.18 84.8647 23.99V42.59C84.8647 43.37 84.2347 44 83.4247 44C82.6447 44 82.0147 43.37 82.0147 42.59V29.3L75.4446 42.9501C74.7246 44.5101 73.3446 44.15 72.7146 43.01L66.1147 29.3V42.59C66.1147 43.37 65.4846 44 64.6746 44C63.8946 44 63.2646 43.37 63.2646 42.59V23.99C63.2646 23.18 63.8946 22.55 64.6746 22.55C65.3646 22.55 66.0547 22.61 66.4146 23.36L74.0647 39.26L81.7146 23.36C82.0446 22.67 82.6747 22.55 83.4247 22.55Z" fill="white"/>
<path d="M59.7674 41.6C60.4274 41.6 60.9674 42.14 60.9674 42.8C60.9674 43.46 60.4274 44 59.7674 44H52.5674C47.6174 44 43.5674 39.95 43.5674 35V31.55C43.5674 26.6 47.6174 22.55 52.5674 22.55H58.5674C59.2274 22.55 59.7674 23.09 59.7674 23.75C59.7674 24.41 59.2274 24.95 58.5674 24.95H53.0174C49.3874 24.95 46.4174 27.92 46.4174 31.55V35C46.4174 38.63 49.3874 41.6 53.0174 41.6H59.7674Z" fill="white"/>
<path d="M40.49 41.6C41.15 41.6 41.69 42.14 41.69 42.8C41.69 43.46 41.15 44 40.49 44H33.29C28.34 44 24.29 39.95 24.29 35V31.55C24.29 26.6 28.34 22.55 33.29 22.55H39.29C39.95 22.55 40.49 23.09 40.49 23.75C40.49 24.41 39.95 24.95 39.29 24.95H33.74C30.11 24.95 27.14 27.92 27.14 31.55V35C27.14 38.63 30.11 41.6 33.74 41.6H40.49Z" fill="white"/>
<line x1="146" y1="104" x2="366" y2="104" stroke="white" stroke-width="4"/>
<path d="M444.665 88.8559V89.4959C444.665 90.3279 443.993 90.9999 443.129 90.9999C442.297 90.9999 441.625 90.3279 441.625 89.4959V88.8559C441.625 87.9919 442.297 87.3199 443.129 87.3199C443.993 87.3199 444.665 87.9919 444.665 88.8559Z" fill="white"/>
<path d="M429.083 69.24L438.171 88.824C438.523 89.592 438.203 90.52 437.435 90.872C437.243 90.968 437.019 91 436.795 91C436.219 91 435.675 90.68 435.419 90.136L433.147 85.24H422.043L419.771 90.136C419.515 90.68 418.971 91 418.395 91C418.203 91 417.979 90.968 417.755 90.872C416.987 90.52 416.667 89.592 417.019 88.824L426.107 69.24C426.235 68.824 426.523 68.472 426.939 68.248C427.163 68.152 427.387 68.12 427.579 68.12H427.611C427.835 68.12 428.059 68.152 428.251 68.248C428.667 68.472 428.987 68.824 429.083 69.24ZM423.227 82.68H431.963L427.611 73.272L423.227 82.68Z" fill="white"/>
<path d="M413.54 88.8559V89.4959C413.54 90.3279 412.868 90.9999 412.004 90.9999C411.172 90.9999 410.5 90.3279 410.5 89.4959V88.8559C410.5 87.9919 411.172 87.3199 412.004 87.3199C412.868 87.3199 413.54 87.9919 413.54 88.8559Z" fill="white"/>
<path d="M403.274 79.192C406.09 80.568 406.666 82.584 406.666 84.056C406.666 87.064 405.61 89.112 403.498 90.168C402.026 90.904 400.298 91 398.794 91H390.666C389.962 91 389.386 90.424 389.386 89.72C389.386 89.016 389.962 88.44 390.666 88.44H397.706C401.386 88.44 403.626 88.152 403.626 84.056C403.626 81.72 400.714 80.888 397.578 80.312C396.01 80.056 394.122 79.704 392.554 78.904C391.594 78.424 390.858 77.848 390.346 77.112C389.706 76.28 389.386 75.256 389.386 74.136C389.386 72.76 389.674 71.608 390.25 70.712C390.794 69.88 391.53 69.24 392.522 68.824C394.154 68.12 396.042 68.12 397.706 68.12H403.626C404.33 68.12 404.906 68.696 404.906 69.4C404.906 70.104 404.33 70.68 403.626 70.68H398.186C396.746 70.68 395.146 70.68 394.026 71.16C393.29 71.48 392.426 72.12 392.426 74.136C392.426 76.504 395.21 77.208 398.506 77.816C399.754 78.04 401.642 78.36 403.274 79.192Z" fill="white"/>
<path d="M370.502 74.52C374.374 74.52 377.542 77.688 377.542 81.56V83.96C377.542 87.832 374.374 91 370.502 91H367.942C364.07 91 360.902 87.832 360.902 83.96V81.56C360.902 77.688 364.07 74.52 367.942 74.52H370.502ZM374.502 83.96V81.56C374.502 78.84 372.262 76.6 369.542 76.6H368.902C366.182 76.6 363.942 78.84 363.942 81.56V83.96C363.942 86.68 366.182 88.92 368.902 88.92H369.542C372.262 88.92 374.502 86.68 374.502 83.96Z" fill="white"/>
<path d="M358.04 88.9201C358.616 88.9201 359.096 89.4001 359.096 89.9441C359.096 90.5201 358.616 91.0001 358.04 91.0001H356.184C354.072 91.0001 352.344 89.2721 352.344 87.1601V76.6001H350.712C350.168 76.6001 349.688 76.1201 349.688 75.5761C349.688 75.0001 350.168 74.5201 350.712 74.5201H352.344V71.0961C352.344 70.2321 353.016 69.5601 353.848 69.5601C354.712 69.5601 355.383 70.2321 355.383 71.0961V74.5201H357.271C357.847 74.5201 358.327 75.0001 358.327 75.5761C358.327 76.1201 357.847 76.6001 357.271 76.6001H355.383V87.0001C355.383 88.0561 356.247 88.9201 357.303 88.9201H358.04Z" fill="white"/>
<path d="M341.793 74.52C345.313 74.52 348.193 77.4 348.193 80.92V89.496C348.193 90.328 347.521 91 346.657 91C345.825 91 345.153 90.328 345.153 89.496V80.92C345.153 78.552 343.201 76.6 340.833 76.6C338.465 76.6 336.513 78.552 336.513 80.92V89.496C336.513 90.328 335.841 91 334.977 91C334.145 91 333.473 90.328 333.473 89.496V76.056C333.473 75.192 334.145 74.52 334.977 74.52C335.841 74.52 336.513 75.192 336.513 76.056V76.216C337.665 75.16 339.169 74.52 340.833 74.52H341.793Z" fill="white"/>
<path d="M323.582 74.52C327.806 74.52 331.262 77.976 331.262 82.2V82.744C331.262 83.32 330.782 83.8 330.206 83.8H318.942V83.96C318.942 86.68 321.022 88.92 323.582 88.92H328.926C329.502 88.92 329.982 89.4 329.982 89.944C329.982 90.52 329.502 91 328.926 91H322.974C322.846 91 322.75 90.968 322.622 90.936C318.846 90.488 315.902 87.224 315.902 83.32V82.2C315.902 77.976 319.358 74.52 323.582 74.52ZM318.942 81.56V81.72H328.222V81.56C328.222 78.84 326.142 76.6 323.582 76.6C321.022 76.6 318.942 78.84 318.942 81.56Z" fill="white"/>
<path d="M311.696 74.52C312.56 74.52 313.232 75.192 313.232 76.056V89.496C313.232 90.328 312.56 91 311.696 91C310.864 91 310.192 90.328 310.192 89.496V76.056C310.192 75.192 310.864 74.52 311.696 74.52ZM313.232 69.656V71.256C313.232 72.088 312.528 72.76 311.696 72.76C310.864 72.76 310.192 72.088 310.192 71.256V69.656C310.192 68.792 310.864 68.12 311.696 68.12C312.528 68.12 313.232 68.792 313.232 69.656Z" fill="white"/>
<path d="M300.785 74.52C304.305 74.52 307.185 77.4 307.185 80.92V89.496C307.185 90.328 306.513 91 305.649 91C304.817 91 304.145 90.328 304.145 89.496V80.92C304.145 78.552 302.193 76.6 299.825 76.6C297.457 76.6 295.505 78.552 295.505 80.92V89.496C295.505 90.328 294.833 91 293.969 91C293.137 91 292.465 90.328 292.465 89.496V80.92C292.465 78.552 290.513 76.6 288.145 76.6C285.777 76.6 283.825 78.552 283.825 80.92V89.496C283.825 90.328 283.153 91 282.289 91C281.457 91 280.785 90.328 280.785 89.496V76.056C280.785 75.192 281.457 74.52 282.289 74.52C283.153 74.52 283.825 75.192 283.825 76.056V76.216C284.977 75.16 286.481 74.52 288.145 74.52H289.105C291.345 74.52 293.329 75.672 294.449 77.432C295.601 75.672 297.585 74.52 299.825 74.52H300.785Z" fill="white"/>
<path d="M276.227 74.52C277.091 74.52 277.763 75.192 277.763 76.056V89.496C277.763 90.328 277.091 91 276.227 91C275.395 91 274.723 90.328 274.723 89.496V76.056C274.723 75.192 275.395 74.52 276.227 74.52ZM277.763 69.656V71.256C277.763 72.088 277.059 72.76 276.227 72.76C275.395 72.76 274.723 72.088 274.723 71.256V69.656C274.723 68.792 275.395 68.12 276.227 68.12C277.059 68.12 277.763 68.792 277.763 69.656Z" fill="white"/>
<path d="M265.324 74.52C268.844 74.52 271.724 77.4 271.724 80.92V89.496C271.724 90.328 271.052 91 270.188 91C269.356 91 268.684 90.328 268.684 89.496V80.92C268.684 78.552 266.732 76.6 264.364 76.6C261.996 76.6 260.044 78.552 260.044 80.92V89.496C260.044 90.328 259.372 91 258.508 91C257.676 91 257.004 90.328 257.004 89.496V76.056C257.004 75.192 257.676 74.52 258.508 74.52C259.372 74.52 260.044 75.192 260.044 76.056V76.216C261.196 75.16 262.7 74.52 264.364 74.52H265.324Z" fill="white"/>
<path d="M247.113 74.52C251.337 74.52 254.793 77.976 254.793 82.2V82.744C254.793 83.32 254.313 83.8 253.737 83.8H242.473V83.96C242.473 86.68 244.553 88.92 247.113 88.92H252.457C253.033 88.92 253.513 89.4 253.513 89.944C253.513 90.52 253.033 91 252.457 91H246.505C246.377 91 246.281 90.968 246.153 90.936C242.377 90.488 239.433 87.224 239.433 83.32V82.2C239.433 77.976 242.889 74.52 247.113 74.52ZM242.473 81.56V81.72H251.753V81.56C251.753 78.84 249.673 76.6 247.113 76.6C244.553 76.6 242.473 78.84 242.473 81.56Z" fill="white"/>
<path d="M236.571 88.9201C237.147 88.9201 237.627 89.4001 237.627 89.9441C237.627 90.5201 237.147 91.0001 236.571 91.0001H234.715C232.603 91.0001 230.875 89.2721 230.875 87.1601V76.6001H229.243C228.699 76.6001 228.219 76.1201 228.219 75.5761C228.219 75.0001 228.699 74.5201 229.243 74.5201H230.875V71.0961C230.875 70.2321 231.547 69.5601 232.379 69.5601C233.243 69.5601 233.915 70.2321 233.915 71.0961V74.5201H235.803C236.379 74.5201 236.859 75.0001 236.859 75.5761C236.859 76.1201 236.379 76.6001 235.803 76.6001H233.915V87.0001C233.915 88.0561 234.779 88.9201 235.835 88.9201H236.571Z" fill="white"/>
<path d="M220.324 74.52C223.844 74.52 226.724 77.4 226.724 80.92V89.496C226.724 90.328 226.052 91 225.188 91C224.356 91 223.684 90.328 223.684 89.496V80.92C223.684 78.552 221.732 76.6 219.364 76.6C216.996 76.6 215.044 78.552 215.044 80.92V89.496C215.044 90.328 214.372 91 213.508 91C212.676 91 212.004 90.328 212.004 89.496V76.056C212.004 75.192 212.676 74.52 213.508 74.52C214.372 74.52 215.044 75.192 215.044 76.056V76.216C216.196 75.16 217.7 74.52 219.364 74.52H220.324Z" fill="white"/>
<path d="M208.982 78.904V89.496C208.982 90.328 208.31 91 207.446 91C206.614 91 205.942 90.328 205.942 89.496V88.92C205.462 89.496 204.886 89.976 204.278 90.296C203.478 90.776 202.614 91 201.718 91H201.526C200.278 91 198.71 91 197.398 90.392C196.63 90.04 196.022 89.496 195.574 88.792C195.126 88.024 194.902 87.064 194.902 85.944C194.902 84.856 195.382 83.352 197.59 82.36C198.87 81.784 200.31 81.528 201.27 81.4C202.422 81.208 203.67 80.984 204.63 80.536C205.782 80.024 205.942 79.384 205.942 78.904C205.942 77.592 205.366 77.176 204.758 76.952C203.894 76.6 202.646 76.6 201.526 76.6H197.846C197.302 76.6 196.822 76.12 196.822 75.576C196.822 75 197.302 74.52 197.846 74.52H202.486C203.766 74.52 205.238 74.52 206.486 75C208.118 75.64 208.982 76.984 208.982 78.904ZM204.598 87.256C205.462 86.104 205.942 84.568 205.942 82.936V82.648C204.854 83.064 203.638 83.256 202.582 83.448C200.278 83.8 197.942 84.408 197.942 85.944C197.942 88.152 198.934 88.92 201.718 88.92C202.774 88.92 203.798 88.344 204.598 87.256Z" fill="white"/>
<path d="M190.39 68.12C191.254 68.12 191.926 68.792 191.926 69.656V89.496C191.926 90.328 191.254 91 190.39 91C189.558 91 188.886 90.328 188.886 89.496V75.32L181.878 89.88C181.11 91.544 179.638 91.16 178.966 89.944L171.926 75.32V89.496C171.926 90.328 171.254 91 170.39 91C169.558 91 168.886 90.328 168.886 89.496V69.656C168.886 68.792 169.558 68.12 170.39 68.12C171.126 68.12 171.862 68.184 172.246 68.984L180.406 85.944L188.566 68.984C188.918 68.248 189.59 68.12 190.39 68.12Z" fill="white"/>
<path d="M154.8 73.496C155.376 73.496 155.824 73.944 155.824 74.52V84.056C155.824 85.912 155.056 87.672 153.616 88.984C152.24 90.296 150.384 91 148.4 91H146.48C144.496 91 142.64 90.232 141.232 88.824C139.824 87.416 139.024 85.56 139.024 83.576C139.024 82.136 139.472 80.76 140.24 79.544C140.976 78.424 141.968 77.528 143.152 76.952L142.8 76.536V76.504C142.032 75.608 141.584 74.424 141.584 73.24C141.584 70.424 143.888 68.12 146.704 68.12V68.152C146.8 68.12 146.864 68.12 149.264 68.12C149.84 68.12 150.288 68.6 150.288 69.176C150.288 69.72 149.84 70.2 149.264 70.2H147.664C146 70.2 144.624 71.576 144.624 73.24C144.624 73.912 144.88 74.584 145.296 75.096L145.36 75.192L152.784 84.28V74.52C152.784 73.944 153.264 73.496 153.84 73.496H154.8ZM142.064 83.576C142.064 86.52 144.496 88.92 147.44 88.92C149.072 88.92 150.544 88.248 151.536 87.192L144.784 78.936C143.12 79.896 142.064 81.656 142.064 83.576Z" fill="white"/>
<path d="M355.868 48.36C358.076 49.352 358.524 50.856 358.524 51.944C358.524 53.064 358.3 54.024 357.852 54.792C357.436 55.496 356.828 56.04 356.028 56.392C355.004 56.872 353.852 56.968 352.796 57H345.5C344.924 57 344.444 56.52 344.444 55.976C344.444 55.4 344.924 54.92 345.5 54.92H350.94C353.788 54.92 355.484 54.728 355.484 51.944C355.484 50.408 353.148 49.8 350.876 49.448C349.66 49.224 348.188 49 346.972 48.424C344.892 47.464 344.444 45.992 344.444 44.904C344.444 42.984 345.308 41.64 346.94 41C348.092 40.552 349.404 40.52 350.588 40.52H355.58C356.156 40.52 356.604 41 356.604 41.576C356.604 42.12 356.156 42.6 355.58 42.6H351.9C350.812 42.6 349.564 42.6 348.668 42.952C348.06 43.176 347.484 43.592 347.484 44.904C347.484 45.384 347.644 46.024 348.796 46.536C349.756 46.984 351.004 47.208 352.156 47.4C353.116 47.528 354.588 47.784 355.868 48.36Z" fill="white"/>
<path d="M334.457 40.52C338.681 40.52 342.137 43.976 342.137 48.2V48.744C342.137 49.32 341.657 49.8 341.081 49.8H329.817V49.96C329.817 52.68 331.897 54.92 334.457 54.92H339.801C340.377 54.92 340.857 55.4 340.857 55.944C340.857 56.52 340.377 57 339.801 57H333.849C333.721 57 333.625 56.968 333.497 56.936C329.721 56.488 326.777 53.224 326.777 49.32V48.2C326.777 43.976 330.233 40.52 334.457 40.52ZM329.817 47.56V47.72H339.097V47.56C339.097 44.84 337.017 42.6 334.457 42.6C331.897 42.6 329.817 44.84 329.817 47.56Z" fill="white"/>
<path d="M317.73 40.52C321.25 40.52 324.13 43.4 324.13 46.92V55.496C324.13 56.328 323.458 57 322.594 57C321.762 57 321.09 56.328 321.09 55.496V46.92C321.09 44.552 319.138 42.6 316.77 42.6C314.402 42.6 312.45 44.552 312.45 46.92V55.496C312.45 56.328 311.778 57 310.914 57C310.082 57 309.41 56.328 309.41 55.496V42.056C309.41 41.192 310.082 40.52 310.914 40.52C311.778 40.52 312.45 41.192 312.45 42.056V42.216C313.602 41.16 315.106 40.52 316.77 40.52H317.73Z" fill="white"/>
<path d="M299.721 40.52C303.593 40.52 306.761 43.688 306.761 47.56V49.96C306.761 53.832 303.593 57 299.721 57H297.161C293.289 57 290.121 53.832 290.121 49.96V47.56C290.121 43.688 293.289 40.52 297.161 40.52H299.721ZM303.721 49.96V47.56C303.721 44.84 301.481 42.6 298.761 42.6H298.121C295.401 42.6 293.161 44.84 293.161 47.56V49.96C293.161 52.68 295.401 54.92 298.121 54.92H298.761C301.481 54.92 303.721 52.68 303.721 49.96Z" fill="white"/>
<path d="M285.914 40.52C286.778 40.52 287.45 41.192 287.45 42.056V55.496C287.45 56.328 286.778 57 285.914 57C285.082 57 284.41 56.328 284.41 55.496V42.056C284.41 41.192 285.082 40.52 285.914 40.52ZM287.45 35.656V37.256C287.45 38.088 286.746 38.76 285.914 38.76C285.082 38.76 284.41 38.088 284.41 37.256V35.656C284.41 34.792 285.082 34.12 285.914 34.12C286.746 34.12 287.45 34.792 287.45 35.656Z" fill="white"/>
<path d="M281.207 54.92C281.783 54.92 282.263 55.4 282.263 55.976C282.263 56.52 281.783 57 281.207 57H275.223C271.351 57 268.183 53.832 268.183 49.96V47.56C268.183 43.688 271.351 40.52 275.223 40.52H279.927C280.503 40.52 280.983 41 280.983 41.544C280.983 42.12 280.503 42.6 279.927 42.6H276.183C273.463 42.6 271.223 44.84 271.223 47.56V49.96C271.223 52.68 273.463 54.92 276.183 54.92H281.207Z" fill="white"/>
<path d="M265.332 54.92C265.908 54.92 266.388 55.4 266.388 55.976C266.388 56.52 265.908 57 265.332 57H259.348C255.476 57 252.308 53.832 252.308 49.96V47.56C252.308 43.688 255.476 40.52 259.348 40.52H264.052C264.628 40.52 265.108 41 265.108 41.544C265.108 42.12 264.628 42.6 264.052 42.6H260.308C257.588 42.6 255.348 44.84 255.348 47.56V49.96C255.348 52.68 257.588 54.92 260.308 54.92H265.332Z" fill="white"/>
<path d="M248.286 40.52C249.054 40.52 249.662 41.128 249.662 41.896V55.656C249.662 56.392 249.054 57 248.286 57H247.966C247.23 57 246.622 56.392 246.622 55.656V55.304C245.47 56.36 243.966 57 242.302 57H241.342C237.822 57 234.942 54.12 234.942 50.6V41.896C234.942 41.128 235.55 40.52 236.286 40.52H236.606C237.374 40.52 237.982 41.128 237.982 41.896V50.6C237.982 52.968 239.934 54.92 242.302 54.92C244.67 54.92 246.622 52.968 246.622 50.6V41.896C246.622 41.128 247.23 40.52 247.966 40.52H248.286Z" fill="white"/>
<path d="M231.73 40.52C232.306 40.52 232.786 41 232.786 41.576C232.786 42.12 232.306 42.6 231.73 42.6H230.546C228.178 42.6 226.226 44.552 226.226 46.92V55.496C226.226 56.328 225.554 57 224.69 57C223.858 57 223.186 56.328 223.186 55.496V42.056C223.186 41.192 223.858 40.52 224.69 40.52C225.554 40.52 226.226 41.192 226.226 42.056V42.216C227.346 41.16 228.882 40.52 230.514 40.52H231.73Z" fill="white"/>
<path d="M220.196 54.9201C220.772 54.9201 221.252 55.4001 221.252 55.9441C221.252 56.5201 220.772 57.0001 220.196 57.0001H218.34C216.228 57.0001 214.5 55.2721 214.5 53.1601V42.6001H212.868C212.324 42.6001 211.844 42.1201 211.844 41.5761C211.844 41.0001 212.324 40.5201 212.868 40.5201H214.5V37.0961C214.5 36.2321 215.172 35.5601 216.004 35.5601C216.868 35.5601 217.54 36.2321 217.54 37.0961V40.5201H219.428C220.004 40.5201 220.484 41.0001 220.484 41.5761C220.484 42.1201 220.004 42.6001 219.428 42.6001H217.54V53.0001C217.54 54.0561 218.404 54.9201 219.46 54.9201H220.196Z" fill="white"/>
<path d="M208.243 48.36C210.451 49.352 210.899 50.856 210.899 51.944C210.899 53.064 210.675 54.024 210.227 54.792C209.811 55.496 209.203 56.04 208.403 56.392C207.379 56.872 206.227 56.968 205.171 57H197.875C197.299 57 196.819 56.52 196.819 55.976C196.819 55.4 197.299 54.92 197.875 54.92H203.315C206.163 54.92 207.859 54.728 207.859 51.944C207.859 50.408 205.523 49.8 203.251 49.448C202.035 49.224 200.563 49 199.347 48.424C197.267 47.464 196.819 45.992 196.819 44.904C196.819 42.984 197.683 41.64 199.315 41C200.467 40.552 201.779 40.52 202.963 40.52H207.955C208.531 40.52 208.979 41 208.979 41.576C208.979 42.12 208.531 42.6 207.955 42.6H204.275C203.187 42.6 201.939 42.6 201.043 42.952C200.435 43.176 199.859 43.592 199.859 44.904C199.859 45.384 200.019 46.024 201.171 46.536C202.131 46.984 203.379 47.208 204.531 47.4C205.491 47.528 206.963 47.784 208.243 48.36Z" fill="white"/>
<path d="M187.324 40.52C190.844 40.52 193.724 43.4 193.724 46.92V55.496C193.724 56.328 193.052 57 192.188 57C191.356 57 190.684 56.328 190.684 55.496V46.92C190.684 44.552 188.732 42.6 186.364 42.6C183.996 42.6 182.044 44.552 182.044 46.92V55.496C182.044 56.328 181.372 57 180.508 57C179.676 57 179.004 56.328 179.004 55.496V42.056C179.004 41.192 179.676 40.52 180.508 40.52C181.372 40.52 182.044 41.192 182.044 42.056V42.216C183.196 41.16 184.7 40.52 186.364 40.52H187.324Z" fill="white"/>
<path d="M169.314 40.52C173.186 40.52 176.354 43.688 176.354 47.56V49.96C176.354 53.832 173.186 57 169.314 57H166.754C162.882 57 159.714 53.832 159.714 49.96V47.56C159.714 43.688 162.882 40.52 166.754 40.52H169.314ZM173.314 49.96V47.56C173.314 44.84 171.074 42.6 168.354 42.6H167.714C164.994 42.6 162.754 44.84 162.754 47.56V49.96C162.754 52.68 164.994 54.92 167.714 54.92H168.354C171.074 54.92 173.314 52.68 173.314 49.96Z" fill="white"/>
<path d="M156.656 54.44C157.36 54.44 157.936 55.016 157.936 55.72C157.936 56.424 157.36 57 156.656 57H148.976C143.696 57 139.376 52.68 139.376 47.4V43.72C139.376 38.44 143.696 34.12 148.976 34.12H155.376C156.08 34.12 156.656 34.696 156.656 35.4C156.656 36.104 156.08 36.68 155.376 36.68H149.456C145.584 36.68 142.416 39.848 142.416 43.72V47.4C142.416 51.272 145.584 54.44 149.456 54.44H156.656Z" fill="white"/>
<path d="M213.887 6.52002C214.463 6.52002 214.943 7.00002 214.943 7.57602C214.943 8.12002 214.463 8.60002 213.887 8.60002H212.703C210.335 8.60002 208.383 10.552 208.383 12.92V21.496C208.383 22.328 207.711 23 206.847 23C206.015 23 205.343 22.328 205.343 21.496V8.05602C205.343 7.19202 206.015 6.52002 206.847 6.52002C207.711 6.52002 208.383 7.19202 208.383 8.05602V8.21602C209.503 7.16002 211.039 6.52002 212.671 6.52002H213.887Z" fill="white"/>
<path d="M202.544 10.904V21.496C202.544 22.328 201.872 23 201.008 23C200.176 23 199.504 22.328 199.504 21.496V20.92C199.024 21.496 198.448 21.976 197.84 22.296C197.04 22.776 196.176 23 195.28 23H195.088C193.84 23 192.272 23 190.96 22.392C190.192 22.04 189.584 21.496 189.136 20.792C188.688 20.024 188.464 19.064 188.464 17.944C188.464 16.856 188.944 15.352 191.152 14.36C192.432 13.784 193.872 13.528 194.832 13.4C195.984 13.208 197.232 12.984 198.192 12.536C199.344 12.024 199.504 11.384 199.504 10.904C199.504 9.59202 198.928 9.17602 198.32 8.95202C197.456 8.60002 196.208 8.60002 195.088 8.60002H191.408C190.864 8.60002 190.384 8.12002 190.384 7.57602C190.384 7.00002 190.864 6.52002 191.408 6.52002H196.048C197.328 6.52002 198.8 6.52002 200.048 7.00002C201.68 7.64002 202.544 8.98402 202.544 10.904ZM198.16 19.256C199.024 18.104 199.504 16.568 199.504 14.936V14.648C198.416 15.064 197.2 15.256 196.144 15.448C193.84 15.8 191.504 16.408 191.504 17.944C191.504 20.152 192.496 20.92 195.28 20.92C196.336 20.92 197.36 20.344 198.16 19.256Z" fill="white"/>
<path d="M178.926 6.52002C183.15 6.52002 186.606 9.97602 186.606 14.2V14.744C186.606 15.32 186.126 15.8 185.55 15.8H174.286V15.96C174.286 18.68 176.366 20.92 178.926 20.92H184.27C184.846 20.92 185.326 21.4 185.326 21.944C185.326 22.52 184.846 23 184.27 23H178.318C178.19 23 178.094 22.968 177.966 22.936C174.19 22.488 171.246 19.224 171.246 15.32V14.2C171.246 9.97602 174.702 6.52002 178.926 6.52002ZM174.286 13.56V13.72H183.566V13.56C183.566 10.84 181.486 8.60002 178.926 8.60002C176.366 8.60002 174.286 10.84 174.286 13.56Z" fill="white"/>
<path d="M168.387 6.52002C168.963 6.52002 169.443 7.00002 169.443 7.57602C169.443 8.12002 168.963 8.60002 168.387 8.60002H167.203C164.835 8.60002 162.883 10.552 162.883 12.92V21.496C162.883 22.328 162.211 23 161.347 23C160.515 23 159.843 22.328 159.843 21.496V8.05602C159.843 7.19202 160.515 6.52002 161.347 6.52002C162.211 6.52002 162.883 7.19202 162.883 8.05602V8.21602C164.003 7.16002 165.539 6.52002 167.171 6.52002H168.387Z" fill="white"/>
<path d="M156.656 20.44C157.36 20.44 157.936 21.016 157.936 21.72C157.936 22.424 157.36 23 156.656 23H148.976C143.696 23 139.376 18.68 139.376 13.4V9.72C139.376 4.43999 143.696 0.119995 148.976 0.119995H155.376C156.08 0.119995 156.656 0.695995 156.656 1.4C156.656 2.10399 156.08 2.67999 155.376 2.67999H149.456C145.584 2.67999 142.416 5.848 142.416 9.72V13.4C142.416 17.272 145.584 20.44 149.456 20.44H156.656Z" fill="white"/>
<path d="M369.02 116.24L378.108 135.824C378.46 136.592 378.14 137.52 377.372 137.872C377.18 137.968 376.956 138 376.732 138C376.156 138 375.612 137.68 375.356 137.136L373.084 132.24H361.98L359.708 137.136C359.452 137.68 358.908 138 358.332 138C358.14 138 357.916 137.968 357.692 137.872C356.924 137.52 356.604 136.592 356.956 135.824L366.044 116.24C366.172 115.824 366.46 115.472 366.876 115.248C367.1 115.152 367.324 115.12 367.516 115.12H367.548C367.772 115.12 367.996 115.152 368.188 115.248C368.604 115.472 368.924 115.824 369.02 116.24ZM363.164 129.68H371.9L367.548 120.272L363.164 129.68Z" fill="white"/>
<path d="M355.331 135.76C355.715 136.496 355.427 137.424 354.691 137.808C354.467 137.936 354.211 138 353.987 138C353.443 138 352.899 137.712 352.643 137.2L347.875 128.24H340.739V136.464C340.739 137.328 340.067 138 339.203 138C338.371 138 337.699 137.328 337.699 136.464V116.4C337.699 115.696 338.275 115.12 338.979 115.12H349.219C352.387 115.12 354.979 117.712 354.979 120.88V122.48C354.979 124.976 353.379 127.12 351.139 127.92L355.331 135.76ZM348.259 125.68C350.275 125.68 351.939 124.016 351.939 122V121.36C351.939 119.344 350.275 117.68 348.259 117.68H340.739V125.68H348.259Z" fill="white"/>
<path d="M325.049 115.12C330.329 115.12 334.648 119.44 334.648 124.72V128.4C334.648 133.68 330.329 138 325.049 138H323.128C317.848 138 313.529 133.68 313.529 128.4V124.72C313.529 119.44 317.848 115.12 323.128 115.12H325.049ZM331.609 128.4V124.72C331.609 120.848 328.44 117.68 324.568 117.68H323.609C319.737 117.68 316.568 120.848 316.568 124.72V128.4C316.568 132.272 319.737 135.44 323.609 135.44H324.568C328.44 135.44 331.609 132.272 331.609 128.4Z" fill="white"/>
<path d="M301.486 115.12C306.766 115.12 311.086 119.44 311.086 124.72V128.4C311.086 133.68 306.766 138 301.486 138H293.166C292.462 138 291.886 137.424 291.886 136.72V116.4C291.886 115.696 292.462 115.12 293.166 115.12H301.486ZM308.046 128.4V124.72C308.046 120.848 304.878 117.68 301.006 117.68H294.926V135.44H301.006C304.878 135.44 308.046 132.272 308.046 128.4Z" fill="white"/>
<path d="M280.177 116.24L289.265 135.824C289.617 136.592 289.297 137.52 288.529 137.872C288.337 137.968 288.113 138 287.889 138C287.313 138 286.769 137.68 286.513 137.136L284.241 132.24H273.137L270.865 137.136C270.609 137.68 270.065 138 269.489 138C269.297 138 269.073 137.968 268.849 137.872C268.081 137.52 267.761 136.592 268.113 135.824L277.201 116.24C277.329 115.824 277.617 115.472 278.033 115.248C278.257 115.152 278.481 115.12 278.673 115.12H278.705C278.929 115.12 279.153 115.152 279.345 115.248C279.761 115.472 280.081 115.824 280.177 116.24ZM274.321 129.68H283.057L278.705 120.272L274.321 129.68Z" fill="white"/>
<path d="M265.397 116.624V136.496C265.397 137.328 264.725 138 263.861 138C263.029 138 262.357 137.328 262.357 136.496V116.624C262.357 115.792 263.029 115.12 263.861 115.12C264.725 115.12 265.397 115.792 265.397 116.624Z" fill="white"/>
<path d="M258.531 135.44C259.235 135.44 259.811 136.016 259.811 136.72C259.811 137.424 259.235 138 258.531 138H250.851C245.571 138 241.251 133.68 241.251 128.4V124.72C241.251 119.44 245.571 115.12 250.851 115.12H257.251C257.955 115.12 258.531 115.696 258.531 116.4C258.531 117.104 257.955 117.68 257.251 117.68H251.331C247.459 117.68 244.291 120.848 244.291 124.72V128.4C244.291 132.272 247.459 135.44 251.331 135.44H258.531Z" fill="white"/>
<path d="M237.704 137.456C237.096 138.192 235.88 138.16 235.304 137.392L223.176 121.2V136.496C223.176 137.328 222.504 138 221.64 138C220.808 138 220.136 137.328 220.136 136.496V116.656C220.136 115.216 222.024 114.576 222.888 115.728L235.016 131.92V116.656C235.016 115.792 235.688 115.12 236.52 115.12C237.384 115.12 238.056 115.792 238.056 116.656V136.464C238.056 136.816 237.928 137.168 237.704 137.456Z" fill="white"/>
<path d="M216.403 135.44C217.107 135.44 217.683 136.016 217.683 136.72C217.683 137.424 217.107 138 216.403 138H202.323C201.619 138 201.043 137.424 201.043 136.72V116.4C201.043 115.696 201.619 115.12 202.323 115.12H215.763C216.467 115.12 217.043 115.696 217.043 116.4C217.043 117.104 216.467 117.68 215.763 117.68H204.083V125.296H214.483C215.187 125.296 215.763 125.872 215.763 126.576C215.763 127.28 215.187 127.856 214.483 127.856H204.083V135.44H216.403Z" fill="white"/>
<path d="M198.393 135.76C198.777 136.496 198.489 137.424 197.753 137.808C197.529 137.936 197.273 138 197.049 138C196.505 138 195.961 137.712 195.705 137.2L190.937 128.24H183.801V136.464C183.801 137.328 183.129 138 182.265 138C181.433 138 180.761 137.328 180.761 136.464V116.4C180.761 115.696 181.337 115.12 182.041 115.12H192.281C195.449 115.12 198.041 117.712 198.041 120.88V122.48C198.041 124.976 196.441 127.12 194.201 127.92L198.393 135.76ZM191.321 125.68C193.337 125.68 195.001 124.016 195.001 122V121.36C195.001 119.344 193.337 117.68 191.321 117.68H183.801V125.68H191.321Z" fill="white"/>
<path d="M177.028 135.44C177.732 135.44 178.308 136.016 178.308 136.72C178.308 137.424 177.732 138 177.028 138H162.948C162.244 138 161.668 137.424 161.668 136.72V116.4C161.668 115.696 162.244 115.12 162.948 115.12H176.388C177.092 115.12 177.668 115.696 177.668 116.4C177.668 117.104 177.092 117.68 176.388 117.68H164.708V125.296H175.108C175.812 125.296 176.388 125.872 176.388 126.576C176.388 127.28 175.812 127.856 175.108 127.856H164.708V135.44H177.028Z" fill="white"/>
<path d="M157.04 126C157.904 126 158.576 126.672 158.576 127.536V136.72C158.576 137.424 158 138 157.296 138H148.976C143.696 138 139.376 133.68 139.376 128.4V124.72C139.376 119.44 143.696 115.12 148.976 115.12H155.376C156.08 115.12 156.656 115.696 156.656 116.4C156.656 117.104 156.08 117.68 155.376 117.68H149.456C145.584 117.68 142.416 120.848 142.416 124.72V128.4C142.416 132.272 145.584 135.44 149.456 135.44H155.536V127.536C155.536 126.672 156.208 126 157.04 126Z" fill="white"/>
</svg>
