<svg width="323" height="84" viewBox="0 0 323 84" fill="none" xmlns="http://www.w3.org/2000/svg">
<path d="M66 84H0V0H66V84ZM10 74H56V61.2002H48.5996L31.5 72L17.0996 61.2002H10V74ZM52.9854 49.5088L33.9873 60.8994L29.5039 57.5859L36.6064 52.2041L33.9873 50.4004L24.4961 57.6152L33.8135 64.501L53.8164 52.5088H59.8682L59.8672 49.5088H52.9854ZM19.5742 48.5996H6V51.5996H20.626L33.6338 41.1934L45 49.2002L47.7002 47.4004L33.5664 37.4062L19.5742 48.5996ZM10 45.3008H15.9004L33.9004 32.0996L53.0996 45.3008H56V10H10V45.3008Z" fill="white"/>
<path d="M50.0549 13.53C50.5409 13.53 50.9189 13.908 50.9189 14.394V25.554C50.9189 26.022 50.5409 26.4 50.0549 26.4C49.5869 26.4 49.2089 26.022 49.2089 25.554V17.58L45.2669 25.77C44.8349 26.706 44.0069 26.49 43.6289 25.806L39.6689 17.58V25.554C39.6689 26.022 39.2909 26.4 38.8049 26.4C38.3369 26.4 37.9589 26.022 37.9589 25.554V14.394C37.9589 13.908 38.3369 13.53 38.8049 13.53C39.2189 13.53 39.6329 13.566 39.8489 14.016L44.4389 23.556L49.0289 14.016C49.2269 13.602 49.6049 13.53 50.0549 13.53Z" fill="white"/>
<path d="M35.8604 24.96C36.2564 24.96 36.5804 25.284 36.5804 25.68C36.5804 26.076 36.2564 26.4 35.8604 26.4H31.5404C28.5704 26.4 26.1404 23.97 26.1404 21V18.93C26.1404 15.96 28.5704 13.53 31.5404 13.53H35.1404C35.5364 13.53 35.8604 13.854 35.8604 14.25C35.8604 14.646 35.5364 14.97 35.1404 14.97H31.8104C29.6324 14.97 27.8504 16.752 27.8504 18.93V21C27.8504 23.178 29.6324 24.96 31.8104 24.96H35.8604Z" fill="white"/>
<path d="M24.294 24.96C24.69 24.96 25.014 25.284 25.014 25.68C25.014 26.076 24.69 26.4 24.294 26.4H19.974C17.004 26.4 14.574 23.97 14.574 21V18.93C14.574 15.96 17.004 13.53 19.974 13.53H23.574C23.97 13.53 24.294 13.854 24.294 14.25C24.294 14.646 23.97 14.97 23.574 14.97H20.244C18.066 14.97 16.284 16.752 16.284 18.93V21C16.284 23.178 18.066 24.96 20.244 24.96H24.294Z" fill="white"/>
<path d="M323 75.6787V76.1812C323 76.8345 322.472 77.3622 321.794 77.3622C321.141 77.3622 320.613 76.8345 320.613 76.1812V75.6787C320.613 75.0002 321.141 74.4725 321.794 74.4725C322.472 74.4725 323 75.0002 323 75.6787Z" fill="white"/>
<path d="M310.764 60.2755L317.901 75.6535C318.177 76.2566 317.926 76.9853 317.323 77.2617C317.172 77.3371 316.996 77.3622 316.82 77.3622C316.368 77.3622 315.941 77.1109 315.74 76.6837L313.956 72.8392H305.236L303.452 76.6837C303.251 77.1109 302.824 77.3622 302.372 77.3622C302.221 77.3622 302.045 77.3371 301.869 77.2617C301.266 76.9853 301.015 76.2566 301.291 75.6535L308.428 60.2755C308.528 59.9488 308.754 59.6724 309.081 59.4965C309.257 59.4211 309.433 59.396 309.583 59.396H309.609C309.784 59.396 309.96 59.4211 310.111 59.4965C310.438 59.6724 310.689 59.9488 310.764 60.2755ZM306.166 70.829H313.026L309.609 63.4415L306.166 70.829Z" fill="white"/>
<path d="M298.56 75.6787V76.1812C298.56 76.8345 298.032 77.3622 297.353 77.3622C296.7 77.3622 296.172 76.8345 296.172 76.1812V75.6787C296.172 75.0002 296.7 74.4725 297.353 74.4725C298.032 74.4725 298.56 75.0002 298.56 75.6787Z" fill="white"/>
<path d="M290.498 68.0901C292.709 69.1706 293.162 70.7536 293.162 71.9095C293.162 74.2715 292.333 75.8797 290.674 76.7089C289.518 77.2868 288.161 77.3622 286.98 77.3622H280.598C280.045 77.3622 279.593 76.9099 279.593 76.3571C279.593 75.8043 280.045 75.352 280.598 75.352H286.126C289.016 75.352 290.775 75.1258 290.775 71.9095C290.775 70.0752 288.488 69.4219 286.026 68.9696C284.794 68.7686 283.312 68.4922 282.081 67.864C281.327 67.4871 280.749 67.0348 280.347 66.4568C279.844 65.8035 279.593 64.9994 279.593 64.12C279.593 63.0395 279.819 62.1349 280.271 61.4313C280.699 60.778 281.276 60.2755 282.055 59.9488C283.337 59.396 284.819 59.396 286.126 59.396H290.775C291.327 59.396 291.78 59.8483 291.78 60.4011C291.78 60.9539 291.327 61.4062 290.775 61.4062H286.503C285.372 61.4062 284.116 61.4062 283.236 61.7831C282.658 62.0344 281.98 62.5369 281.98 64.12C281.98 65.9794 284.166 66.5322 286.754 67.0096C287.734 67.1855 289.217 67.4368 290.498 68.0901Z" fill="white"/>
<path d="M264.765 64.4215C267.805 64.4215 270.293 66.9091 270.293 69.9496V71.8341C270.293 74.8746 267.805 77.3622 264.765 77.3622H262.755C259.714 77.3622 257.227 74.8746 257.227 71.8341V69.9496C257.227 66.9091 259.714 64.4215 262.755 64.4215H264.765ZM267.906 71.8341V69.9496C267.906 67.8137 266.147 66.0548 264.011 66.0548H263.508C261.373 66.0548 259.614 67.8137 259.614 69.9496V71.8341C259.614 73.97 261.373 75.7289 263.508 75.7289H264.011C266.147 75.7289 267.906 73.97 267.906 71.8341Z" fill="white"/>
<path d="M254.979 75.7289C255.431 75.7289 255.808 76.1058 255.808 76.533C255.808 76.9853 255.431 77.3622 254.979 77.3622H253.521C251.863 77.3622 250.506 76.0053 250.506 74.3469V66.0548H249.225C248.797 66.0548 248.421 65.6779 248.421 65.2507C248.421 64.7984 248.797 64.4215 249.225 64.4215H250.506V61.7329C250.506 61.0544 251.034 60.5267 251.687 60.5267C252.366 60.5267 252.893 61.0544 252.893 61.7329V64.4215H254.376C254.828 64.4215 255.205 64.7984 255.205 65.2507C255.205 65.6779 254.828 66.0548 254.376 66.0548H252.893V74.2212C252.893 75.0504 253.572 75.7289 254.401 75.7289H254.979Z" fill="white"/>
<path d="M242.221 64.4215C244.985 64.4215 247.247 66.683 247.247 69.447V76.1812C247.247 76.8345 246.719 77.3622 246.041 77.3622C245.387 77.3622 244.86 76.8345 244.86 76.1812V69.447C244.86 67.5876 243.327 66.0548 241.467 66.0548C239.608 66.0548 238.075 67.5876 238.075 69.447V76.1812C238.075 76.8345 237.547 77.3622 236.869 77.3622C236.216 77.3622 235.688 76.8345 235.688 76.1812V65.6276C235.688 64.9492 236.216 64.4215 236.869 64.4215C237.547 64.4215 238.075 64.9492 238.075 65.6276V65.7533C238.98 64.9241 240.161 64.4215 241.467 64.4215H242.221Z" fill="white"/>
<path d="M227.921 64.4215C231.238 64.4215 233.952 67.1353 233.952 70.4521V70.8793C233.952 71.3316 233.575 71.7085 233.123 71.7085H224.278V71.8341C224.278 73.97 225.911 75.7289 227.921 75.7289H232.118C232.57 75.7289 232.947 76.1058 232.947 76.533C232.947 76.9853 232.57 77.3622 232.118 77.3622H227.444C227.344 77.3622 227.268 77.3371 227.168 77.3119C224.203 76.9601 221.891 74.3971 221.891 71.3316V70.4521C221.891 67.1353 224.605 64.4215 227.921 64.4215ZM224.278 69.9496V70.0752H231.565V69.9496C231.565 67.8137 229.932 66.0548 227.921 66.0548C225.911 66.0548 224.278 67.8137 224.278 69.9496Z" fill="white"/>
<path d="M218.588 64.4215C219.266 64.4215 219.794 64.9492 219.794 65.6276V76.1812C219.794 76.8345 219.266 77.3622 218.588 77.3622C217.934 77.3622 217.407 76.8345 217.407 76.1812V65.6276C217.407 64.9492 217.934 64.4215 218.588 64.4215ZM219.794 60.6021V61.8585C219.794 62.5118 219.241 63.0395 218.588 63.0395C217.934 63.0395 217.407 62.5118 217.407 61.8585V60.6021C217.407 59.9237 217.934 59.396 218.588 59.396C219.241 59.396 219.794 59.9237 219.794 60.6021Z" fill="white"/>
<path d="M210.021 64.4215C212.785 64.4215 215.046 66.683 215.046 69.447V76.1812C215.046 76.8345 214.518 77.3622 213.84 77.3622C213.187 77.3622 212.659 76.8345 212.659 76.1812V69.447C212.659 67.5876 211.126 66.0548 209.267 66.0548C207.407 66.0548 205.875 67.5876 205.875 69.447V76.1812C205.875 76.8345 205.347 77.3622 204.668 77.3622C204.015 77.3622 203.487 76.8345 203.487 76.1812V69.447C203.487 67.5876 201.955 66.0548 200.095 66.0548C198.236 66.0548 196.703 67.5876 196.703 69.447V76.1812C196.703 76.8345 196.175 77.3622 195.497 77.3622C194.844 77.3622 194.316 76.8345 194.316 76.1812V65.6276C194.316 64.9492 194.844 64.4215 195.497 64.4215C196.175 64.4215 196.703 64.9492 196.703 65.6276V65.7533C197.608 64.9241 198.789 64.4215 200.095 64.4215H200.849C202.608 64.4215 204.166 65.3261 205.045 66.7081C205.95 65.3261 207.508 64.4215 209.267 64.4215H210.021Z" fill="white"/>
<path d="M190.736 64.4215C191.415 64.4215 191.943 64.9492 191.943 65.6276V76.1812C191.943 76.8345 191.415 77.3622 190.736 77.3622C190.083 77.3622 189.555 76.8345 189.555 76.1812V65.6276C189.555 64.9492 190.083 64.4215 190.736 64.4215ZM191.943 60.6021V61.8585C191.943 62.5118 191.39 63.0395 190.736 63.0395C190.083 63.0395 189.555 62.5118 189.555 61.8585V60.6021C189.555 59.9237 190.083 59.396 190.736 59.396C191.39 59.396 191.943 59.9237 191.943 60.6021Z" fill="white"/>
<path d="M182.175 64.4215C184.939 64.4215 187.201 66.683 187.201 69.447V76.1812C187.201 76.8345 186.673 77.3622 185.995 77.3622C185.341 77.3622 184.814 76.8345 184.814 76.1812V69.447C184.814 67.5876 183.281 66.0548 181.421 66.0548C179.562 66.0548 178.029 67.5876 178.029 69.447V76.1812C178.029 76.8345 177.502 77.3622 176.823 77.3622C176.17 77.3622 175.642 76.8345 175.642 76.1812V65.6276C175.642 64.9492 176.17 64.4215 176.823 64.4215C177.502 64.4215 178.029 64.9492 178.029 65.6276V65.7533C178.934 64.9241 180.115 64.4215 181.421 64.4215H182.175Z" fill="white"/>
<path d="M167.876 64.4215C171.192 64.4215 173.906 67.1353 173.906 70.4521V70.8793C173.906 71.3316 173.529 71.7085 173.077 71.7085H164.232V71.8341C164.232 73.97 165.865 75.7289 167.876 75.7289H172.072C172.524 75.7289 172.901 76.1058 172.901 76.533C172.901 76.9853 172.524 77.3622 172.072 77.3622H167.398C167.298 77.3622 167.222 77.3371 167.122 77.3119C164.157 76.9601 161.845 74.3971 161.845 71.3316V70.4521C161.845 67.1353 164.559 64.4215 167.876 64.4215ZM164.232 69.9496V70.0752H171.519V69.9496C171.519 67.8137 169.886 66.0548 167.876 66.0548C165.865 66.0548 164.232 67.8137 164.232 69.9496Z" fill="white"/>
<path d="M159.597 75.7289C160.05 75.7289 160.426 76.1058 160.426 76.533C160.426 76.9853 160.05 77.3622 159.597 77.3622H158.14C156.481 77.3622 155.125 76.0053 155.125 74.3469V66.0548H153.843C153.416 66.0548 153.039 65.6779 153.039 65.2507C153.039 64.7984 153.416 64.4215 153.843 64.4215H155.125V61.7329C155.125 61.0544 155.652 60.5267 156.306 60.5267C156.984 60.5267 157.512 61.0544 157.512 61.7329V64.4215H158.994C159.446 64.4215 159.823 64.7984 159.823 65.2507C159.823 65.6779 159.446 66.0548 158.994 66.0548H157.512V74.2212C157.512 75.0504 158.19 75.7289 159.019 75.7289H159.597Z" fill="white"/>
<path d="M146.84 64.4215C149.604 64.4215 151.865 66.683 151.865 69.447V76.1812C151.865 76.8345 151.338 77.3622 150.659 77.3622C150.006 77.3622 149.478 76.8345 149.478 76.1812V69.447C149.478 67.5876 147.945 66.0548 146.086 66.0548C144.226 66.0548 142.694 67.5876 142.694 69.447V76.1812C142.694 76.8345 142.166 77.3622 141.488 77.3622C140.834 77.3622 140.307 76.8345 140.307 76.1812V65.6276C140.307 64.9492 140.834 64.4215 141.488 64.4215C142.166 64.4215 142.694 64.9492 142.694 65.6276V65.7533C143.598 64.9241 144.779 64.4215 146.086 64.4215H146.84Z" fill="white"/>
<path d="M137.934 67.864V76.1812C137.934 76.8345 137.406 77.3622 136.727 77.3622C136.074 77.3622 135.546 76.8345 135.546 76.1812V75.7289C135.17 76.1812 134.717 76.5581 134.24 76.8094C133.612 77.1863 132.933 77.3622 132.23 77.3622H132.079C131.099 77.3622 129.868 77.3622 128.837 76.8848C128.234 76.6084 127.757 76.1812 127.405 75.6284C127.053 75.0253 126.877 74.2715 126.877 73.392C126.877 72.5377 127.254 71.3567 128.988 70.5778C129.993 70.1255 131.124 69.9244 131.878 69.8239C132.782 69.6732 133.762 69.4973 134.516 69.1455C135.421 68.7434 135.546 68.2409 135.546 67.864C135.546 66.8338 135.094 66.5071 134.617 66.3312C133.938 66.0548 132.958 66.0548 132.079 66.0548H129.189C128.762 66.0548 128.385 65.6779 128.385 65.2507C128.385 64.7984 128.762 64.4215 129.189 64.4215H132.833C133.838 64.4215 134.994 64.4215 135.974 64.7984C137.255 65.301 137.934 66.3563 137.934 67.864ZM134.491 74.4223C135.17 73.5177 135.546 72.3116 135.546 71.03V70.8039C134.692 71.1306 133.737 71.2813 132.908 71.4321C131.099 71.7085 129.265 72.1859 129.265 73.392C129.265 75.1258 130.044 75.7289 132.23 75.7289C133.059 75.7289 133.863 75.2766 134.491 74.4223Z" fill="white"/>
<path d="M123.335 59.396C124.013 59.396 124.541 59.9237 124.541 60.6021V76.1812C124.541 76.8345 124.013 77.3622 123.335 77.3622C122.681 77.3622 122.154 76.8345 122.154 76.1812V65.0497L116.651 76.4827C116.048 77.7894 114.892 77.4878 114.364 76.533L108.836 65.0497V76.1812C108.836 76.8345 108.309 77.3622 107.63 77.3622C106.977 77.3622 106.449 76.8345 106.449 76.1812V60.6021C106.449 59.9237 106.977 59.396 107.63 59.396C108.208 59.396 108.786 59.4463 109.087 60.0744L115.495 73.392L121.903 60.0744C122.179 59.4965 122.707 59.396 123.335 59.396Z" fill="white"/>
<path d="M95.3879 63.6174C95.8402 63.6174 96.192 63.9692 96.192 64.4215V71.9095C96.192 73.3669 95.5889 74.7489 94.4582 75.7792C93.3777 76.8094 91.9203 77.3622 90.3624 77.3622H88.8547C87.2968 77.3622 85.8394 76.7591 84.7338 75.6535C83.6282 74.5479 83 73.0905 83 71.5326C83 70.4019 83.3518 69.3214 83.9548 68.3665C84.5328 67.4871 85.3117 66.7835 86.2415 66.3312L85.965 66.0045V65.9794C85.362 65.2758 85.0102 64.3461 85.0102 63.4164C85.0102 61.2052 86.8194 59.396 89.0306 59.396V59.4211C89.106 59.396 89.1562 59.396 91.0408 59.396C91.4931 59.396 91.8449 59.7729 91.8449 60.2252C91.8449 60.6524 91.4931 61.0293 91.0408 61.0293H89.7844C88.4778 61.0293 87.3973 62.1098 87.3973 63.4164C87.3973 63.9441 87.5983 64.4718 87.925 64.8738L87.9753 64.9492L93.8048 72.0854V64.4215C93.8048 63.9692 94.1818 63.6174 94.634 63.6174H95.3879ZM85.3871 71.5326C85.3871 73.8443 87.2968 75.7289 89.6085 75.7289C90.89 75.7289 92.0459 75.2012 92.8249 74.372L87.523 67.8891C86.2163 68.6429 85.3871 70.0249 85.3871 71.5326Z" fill="white"/>
<path d="M253.273 43.8798C255.007 44.6587 255.359 45.8397 255.359 46.694C255.359 47.5735 255.183 48.3273 254.831 48.9304C254.505 49.4832 254.027 49.9104 253.399 50.1868C252.595 50.5637 251.69 50.6391 250.861 50.6642H245.132C244.68 50.6642 244.303 50.2873 244.303 49.8601C244.303 49.4078 244.68 49.0309 245.132 49.0309H249.404C251.64 49.0309 252.972 48.8801 252.972 46.694C252.972 45.4879 251.138 45.0105 249.353 44.7341C248.399 44.5582 247.243 44.3823 246.288 43.93C244.655 43.1762 244.303 42.0203 244.303 41.166C244.303 39.6583 244.981 38.603 246.263 38.1004C247.167 37.7486 248.198 37.7235 249.127 37.7235H253.047C253.5 37.7235 253.851 38.1004 253.851 38.5527C253.851 38.9799 253.5 39.3568 253.047 39.3568H250.158C249.303 39.3568 248.323 39.3568 247.62 39.6332C247.142 39.8091 246.69 40.1358 246.69 41.166C246.69 41.5429 246.816 42.0454 247.72 42.4475C248.474 42.7993 249.454 42.9752 250.359 43.1259C251.112 43.2264 252.268 43.4275 253.273 43.8798Z" fill="white"/>
<path d="M236.461 37.7235C239.778 37.7235 242.492 40.4373 242.492 43.7541V44.1813C242.492 44.6336 242.115 45.0105 241.662 45.0105H232.817V45.1361C232.817 47.272 234.451 49.0309 236.461 49.0309H240.657C241.11 49.0309 241.486 49.4078 241.486 49.835C241.486 50.2873 241.11 50.6642 240.657 50.6642H235.983C235.883 50.6642 235.808 50.6391 235.707 50.6139C232.742 50.2622 230.43 47.6991 230.43 44.6336V43.7541C230.43 40.4373 233.144 37.7235 236.461 37.7235ZM232.817 43.2516V43.3772H240.104V43.2516C240.104 41.1157 238.471 39.3568 236.461 39.3568C234.451 39.3568 232.817 41.1157 232.817 43.2516Z" fill="white"/>
<path d="M223.326 37.7235C226.091 37.7235 228.352 39.985 228.352 42.749V49.4832C228.352 50.1365 227.824 50.6642 227.146 50.6642C226.493 50.6642 225.965 50.1365 225.965 49.4832V42.749C225.965 40.8896 224.432 39.3568 222.573 39.3568C220.713 39.3568 219.18 40.8896 219.18 42.749V49.4832C219.18 50.1365 218.653 50.6642 217.974 50.6642C217.321 50.6642 216.793 50.1365 216.793 49.4832V38.9296C216.793 38.2512 217.321 37.7235 217.974 37.7235C218.653 37.7235 219.18 38.2512 219.18 38.9296V39.0553C220.085 38.2261 221.266 37.7235 222.573 37.7235H223.326Z" fill="white"/>
<path d="M209.185 37.7235C212.225 37.7235 214.713 40.2111 214.713 43.2516V45.1361C214.713 48.1766 212.225 50.6642 209.185 50.6642H207.175C204.134 50.6642 201.646 48.1766 201.646 45.1361V43.2516C201.646 40.2111 204.134 37.7235 207.175 37.7235H209.185ZM212.326 45.1361V43.2516C212.326 41.1157 210.567 39.3568 208.431 39.3568H207.928C205.793 39.3568 204.034 41.1157 204.034 43.2516V45.1361C204.034 47.272 205.793 49.0309 207.928 49.0309H208.431C210.567 49.0309 212.326 47.272 212.326 45.1361Z" fill="white"/>
<path d="M198.343 37.7235C199.022 37.7235 199.549 38.2512 199.549 38.9296V49.4832C199.549 50.1365 199.022 50.6642 198.343 50.6642C197.69 50.6642 197.162 50.1365 197.162 49.4832V38.9296C197.162 38.2512 197.69 37.7235 198.343 37.7235ZM199.549 33.9041V35.1605C199.549 35.8138 198.997 36.3415 198.343 36.3415C197.69 36.3415 197.162 35.8138 197.162 35.1605V33.9041C197.162 33.2257 197.69 32.698 198.343 32.698C198.997 32.698 199.549 33.2257 199.549 33.9041Z" fill="white"/>
<path d="M194.647 49.0309C195.1 49.0309 195.477 49.4078 195.477 49.8601C195.477 50.2873 195.1 50.6642 194.647 50.6642H189.948C186.908 50.6642 184.42 48.1766 184.42 45.1361V43.2516C184.42 40.2111 186.908 37.7235 189.948 37.7235H193.642C194.095 37.7235 194.471 38.1004 194.471 38.5276C194.471 38.9799 194.095 39.3568 193.642 39.3568H190.702C188.566 39.3568 186.808 41.1157 186.808 43.2516V45.1361C186.808 47.272 188.566 49.0309 190.702 49.0309H194.647Z" fill="white"/>
<path d="M182.182 49.0309C182.634 49.0309 183.011 49.4078 183.011 49.8601C183.011 50.2873 182.634 50.6642 182.182 50.6642H177.483C174.442 50.6642 171.955 48.1766 171.955 45.1361V43.2516C171.955 40.2111 174.442 37.7235 177.483 37.7235H181.177C181.629 37.7235 182.006 38.1004 182.006 38.5276C182.006 38.9799 181.629 39.3568 181.177 39.3568H178.237C176.101 39.3568 174.342 41.1157 174.342 43.2516V45.1361C174.342 47.272 176.101 49.0309 178.237 49.0309H182.182Z" fill="white"/>
<path d="M168.796 37.7235C169.399 37.7235 169.876 38.2009 169.876 38.804V49.6088C169.876 50.1868 169.399 50.6642 168.796 50.6642H168.545C167.967 50.6642 167.489 50.1868 167.489 49.6088V49.3324C166.585 50.1616 165.404 50.6642 164.097 50.6642H163.343C160.579 50.6642 158.318 48.4027 158.318 45.6387V38.804C158.318 38.2009 158.795 37.7235 159.373 37.7235H159.624C160.227 37.7235 160.705 38.2009 160.705 38.804V45.6387C160.705 47.4981 162.238 49.0309 164.097 49.0309C165.957 49.0309 167.489 47.4981 167.489 45.6387V38.804C167.489 38.2009 167.967 37.7235 168.545 37.7235H168.796Z" fill="white"/>
<path d="M155.796 37.7235C156.249 37.7235 156.625 38.1004 156.625 38.5527C156.625 38.9799 156.249 39.3568 155.796 39.3568H154.866C153.007 39.3568 151.474 40.8896 151.474 42.749V49.4832C151.474 50.1365 150.947 50.6642 150.268 50.6642C149.615 50.6642 149.087 50.1365 149.087 49.4832V38.9296C149.087 38.2512 149.615 37.7235 150.268 37.7235C150.947 37.7235 151.474 38.2512 151.474 38.9296V39.0553C152.354 38.2261 153.56 37.7235 154.841 37.7235H155.796Z" fill="white"/>
<path d="M146.739 49.0309C147.191 49.0309 147.568 49.4078 147.568 49.835C147.568 50.2873 147.191 50.6642 146.739 50.6642H145.282C143.623 50.6642 142.266 49.3073 142.266 47.6489V39.3568H140.985C140.558 39.3568 140.181 38.9799 140.181 38.5527C140.181 38.1004 140.558 37.7235 140.985 37.7235H142.266V35.0349C142.266 34.3564 142.794 33.8287 143.447 33.8287C144.126 33.8287 144.653 34.3564 144.653 35.0349V37.7235H146.136C146.588 37.7235 146.965 38.1004 146.965 38.5527C146.965 38.9799 146.588 39.3568 146.136 39.3568H144.653V47.5232C144.653 48.3525 145.332 49.0309 146.161 49.0309H146.739Z" fill="white"/>
<path d="M137.353 43.8798C139.087 44.6587 139.439 45.8397 139.439 46.694C139.439 47.5735 139.263 48.3273 138.911 48.9304C138.584 49.4832 138.107 49.9104 137.479 50.1868C136.675 50.5637 135.77 50.6391 134.941 50.6642H129.212C128.759 50.6642 128.383 50.2873 128.383 49.8601C128.383 49.4078 128.759 49.0309 129.212 49.0309H133.483C135.72 49.0309 137.052 48.8801 137.052 46.694C137.052 45.4879 135.217 45.0105 133.433 44.7341C132.478 44.5582 131.322 44.3823 130.368 43.93C128.734 43.1762 128.383 42.0203 128.383 41.166C128.383 39.6583 129.061 38.603 130.343 38.1004C131.247 37.7486 132.277 37.7235 133.207 37.7235H137.127C137.579 37.7235 137.931 38.1004 137.931 38.5527C137.931 38.9799 137.579 39.3568 137.127 39.3568H134.237C133.383 39.3568 132.403 39.3568 131.699 39.6332C131.222 39.8091 130.77 40.1358 130.77 41.166C130.77 41.5429 130.895 42.0454 131.8 42.4475C132.554 42.7993 133.534 42.9752 134.438 43.1259C135.192 43.2264 136.348 43.4275 137.353 43.8798Z" fill="white"/>
<path d="M120.927 37.7235C123.691 37.7235 125.952 39.985 125.952 42.749V49.4832C125.952 50.1365 125.425 50.6642 124.746 50.6642C124.093 50.6642 123.565 50.1365 123.565 49.4832V42.749C123.565 40.8896 122.032 39.3568 120.173 39.3568C118.314 39.3568 116.781 40.8896 116.781 42.749V49.4832C116.781 50.1365 116.253 50.6642 115.575 50.6642C114.921 50.6642 114.394 50.1365 114.394 49.4832V38.9296C114.394 38.2512 114.921 37.7235 115.575 37.7235C116.253 37.7235 116.781 38.2512 116.781 38.9296V39.0553C117.685 38.2261 118.866 37.7235 120.173 37.7235H120.927Z" fill="white"/>
<path d="M106.785 37.7235C109.826 37.7235 112.313 40.2111 112.313 43.2516V45.1361C112.313 48.1766 109.826 50.6642 106.785 50.6642H104.775C101.735 50.6642 99.2469 48.1766 99.2469 45.1361V43.2516C99.2469 40.2111 101.735 37.7235 104.775 37.7235H106.785ZM109.926 45.1361V43.2516C109.926 41.1157 108.167 39.3568 106.031 39.3568H105.529C103.393 39.3568 101.634 41.1157 101.634 43.2516V45.1361C101.634 47.272 103.393 49.0309 105.529 49.0309H106.031C108.167 49.0309 109.926 47.272 109.926 45.1361Z" fill="white"/>
<path d="M96.8454 48.654C97.3982 48.654 97.8505 49.1063 97.8505 49.6591C97.8505 50.2119 97.3982 50.6642 96.8454 50.6642H90.8147C86.6687 50.6642 83.2765 47.272 83.2765 43.1259V40.2363C83.2765 36.0902 86.6687 32.698 90.8147 32.698H95.8403C96.3931 32.698 96.8454 33.1503 96.8454 33.7031C96.8454 34.2559 96.3931 34.7082 95.8403 34.7082H91.1917C88.1512 34.7082 85.6636 37.1958 85.6636 40.2363V43.1259C85.6636 46.1664 88.1512 48.654 91.1917 48.654H96.8454Z" fill="white"/>
<path d="M141.785 11.0255C142.237 11.0255 142.614 11.4024 142.614 11.8547C142.614 12.2819 142.237 12.6588 141.785 12.6588H140.855C138.995 12.6588 137.463 14.1916 137.463 16.051V22.7852C137.463 23.4385 136.935 23.9662 136.257 23.9662C135.603 23.9662 135.076 23.4385 135.076 22.7852V12.2316C135.076 11.5532 135.603 11.0255 136.257 11.0255C136.935 11.0255 137.463 11.5532 137.463 12.2316V12.3573C138.342 11.5281 139.548 11.0255 140.83 11.0255H141.785Z" fill="white"/>
<path d="M132.879 14.468V22.7852C132.879 23.4385 132.351 23.9662 131.673 23.9662C131.019 23.9662 130.492 23.4385 130.492 22.7852V22.3329C130.115 22.7852 129.662 23.1621 129.185 23.4134C128.557 23.7903 127.878 23.9662 127.175 23.9662H127.024C126.044 23.9662 124.813 23.9662 123.782 23.4888C123.179 23.2124 122.702 22.7852 122.35 22.2324C121.998 21.6293 121.823 20.8755 121.823 19.996C121.823 19.1417 122.199 17.9607 123.933 17.1818C124.938 16.7295 126.069 16.5284 126.823 16.4279C127.727 16.2772 128.707 16.1013 129.461 15.7495C130.366 15.3474 130.492 14.8449 130.492 14.468C130.492 13.4378 130.039 13.1111 129.562 12.9352C128.883 12.6588 127.903 12.6588 127.024 12.6588H124.134C123.707 12.6588 123.33 12.2819 123.33 11.8547C123.33 11.4024 123.707 11.0255 124.134 11.0255H127.778C128.783 11.0255 129.939 11.0255 130.919 11.4024C132.2 11.905 132.879 12.9603 132.879 14.468ZM129.436 21.0263C130.115 20.1217 130.492 18.9156 130.492 17.6341V17.4079C129.637 17.7346 128.682 17.8853 127.853 18.0361C126.044 18.3125 124.21 18.7899 124.21 19.996C124.21 21.7298 124.989 22.3329 127.175 22.3329C128.004 22.3329 128.808 21.8806 129.436 21.0263Z" fill="white"/>
<path d="M114.332 11.0255C117.649 11.0255 120.363 13.7393 120.363 17.0561V17.4833C120.363 17.9356 119.986 18.3125 119.534 18.3125H110.689V18.4381C110.689 20.574 112.322 22.3329 114.332 22.3329H118.529C118.981 22.3329 119.358 22.7098 119.358 23.137C119.358 23.5893 118.981 23.9662 118.529 23.9662H113.855C113.754 23.9662 113.679 23.9411 113.578 23.9159C110.613 23.5642 108.302 21.0011 108.302 17.9356V17.0561C108.302 13.7393 111.015 11.0255 114.332 11.0255ZM110.689 16.5536V16.6792H117.976V16.5536C117.976 14.4177 116.342 12.6588 114.332 12.6588C112.322 12.6588 110.689 14.4177 110.689 16.5536Z" fill="white"/>
<path d="M106.056 11.0255C106.509 11.0255 106.886 11.4024 106.886 11.8547C106.886 12.2819 106.509 12.6588 106.056 12.6588H105.127C103.267 12.6588 101.735 14.1916 101.735 16.051V22.7852C101.735 23.4385 101.207 23.9662 100.528 23.9662C99.8751 23.9662 99.3474 23.4385 99.3474 22.7852V12.2316C99.3474 11.5532 99.8751 11.0255 100.528 11.0255C101.207 11.0255 101.735 11.5532 101.735 12.2316V12.3573C102.614 11.5281 103.82 11.0255 105.102 11.0255H106.056Z" fill="white"/>
<path d="M96.8454 21.956C97.3982 21.956 97.8505 22.4083 97.8505 22.9611C97.8505 23.5139 97.3982 23.9662 96.8454 23.9662H90.8147C86.6687 23.9662 83.2765 20.574 83.2765 16.4279V13.5383C83.2765 9.39222 86.6687 6 90.8147 6H95.8403C96.3931 6 96.8454 6.4523 96.8454 7.0051C96.8454 7.55791 96.3931 8.0102 95.8403 8.0102H91.1917C88.1512 8.0102 85.6636 10.4978 85.6636 13.5383V16.4279C85.6636 19.4684 88.1512 21.956 91.1917 21.956H96.8454Z" fill="white"/>
</svg>
