<svg xmlns="http://www.w3.org/2000/svg" viewBox="0 0 25.57 30.04"><defs><style>.cls-1{fill:#e20719;}</style></defs><g id="Capa_2" data-name="Capa 2"><g id="Layer_1" data-name="Layer 1"><path class="cls-1" d="M0,30V14.86H1.75v-4H3.5c0-.12,0-.21,0-.29,0-.76,0-1.53,0-2.29a.33.33,0,0,0-.22-.35A2.64,2.64,0,1,1,6.79,4.35a.4.4,0,0,0,.42.27q.64,0,1.29,0a.38.38,0,0,0,.39-.26L10.9.3l.16-.3,3.65,8.47a3,3,0,0,0,.13-.3C15.23,7.1,15.63,6,16,5a.45.45,0,0,1,.52-.36c.61,0,1.21,0,1.82,0a.39.39,0,0,0,.42-.26,2.64,2.64,0,0,1,5,1.2,2.55,2.55,0,0,1-1.51,2.33.37.37,0,0,0-.25.39c0,.83,0,1.66,0,2.53H23.8v4h1.77V30Zm1.77-1.78h22V16.64h-22ZM18.5,14.84v-.38c0-1.12,0-2.24,0-3.37,0-.22.06-.29.28-.28h1.44c0-.05,0-.06,0-.08,0-.86,0-1.72,0-2.58a.31.31,0,0,0-.18-.22,2.81,2.81,0,0,1-1.36-1.36.37.37,0,0,0-.25-.17c-.28,0-.57,0-.85,0a.28.28,0,0,0-.33.23c-.5,1.39-1,2.77-1.52,4.15-.3.81-.6,1.62-.92,2.5L10.94,4.21c-.33.67-.65,1.31-1,2a.36.36,0,0,1-.37.24H7.14a.3.3,0,0,0-.33.21,1.76,1.76,0,0,1-.87,1c-.67.27-.7.75-.66,1.34,0,.42,0,.84,0,1.26v.59H7.07v4Zm-13.24,0v-2.2H3.54v2.2Zm15-2.22v2.22H22V12.61Zm-15-7.1a.86.86,0,0,0-.86-.88.89.89,0,0,0-.89.86.9.9,0,0,0,.87.89A.88.88,0,0,0,5.28,5.51Zm15.87-.88a.85.85,0,0,0-.86.88.87.87,0,0,0,.87.87A.89.89,0,0,0,22,5.49.87.87,0,0,0,21.15,4.63Z"/><path class="cls-1" d="M18.64,26.2H7c0-.71,0-1.41,0-2.11a5.82,5.82,0,0,1,11.56-.5A25.08,25.08,0,0,1,18.64,26.2ZM11.9,22.45h1.77v2h3.18A4,4,0,0,0,14.74,21a3.9,3.9,0,0,0-4.41.32,3.89,3.89,0,0,0-1.6,3.16H11.9Z"/></g></g></svg>