<svg xmlns="http://www.w3.org/2000/svg" viewBox="0 0 52.43 57.79"><defs><style>.cls-1{fill:#e20719;}</style></defs><g id="Capa_2" data-name="Capa 2"><g id="Layer_1" data-name="Layer 1"><path class="cls-1" d="M13.26,14.89H35.47a2.06,2.06,0,0,0,0-4.11H13.26a2.06,2.06,0,0,0,0,4.11Z"/><path class="cls-1" d="M37.52,20.86a2.05,2.05,0,0,0-2.05-2.05H13.26a2.06,2.06,0,0,0,0,4.11H35.47A2.05,2.05,0,0,0,37.52,20.86Z"/><path class="cls-1" d="M37.52,28.89a2.05,2.05,0,0,0-2.05-2.05h-9a2.06,2.06,0,1,0,0,4.11h9A2.05,2.05,0,0,0,37.52,28.89Z"/><path class="cls-1" d="M52.43,44A10.11,10.11,0,0,0,43.9,34V3.35A3.35,3.35,0,0,0,40.55,0H7.25A3.35,3.35,0,0,0,3.91,3.35v7H2.05a2.05,2.05,0,0,0-2,2.05v.9a2.05,2.05,0,0,0,2.05,2.06H3.91V26.53H2.05a2.05,2.05,0,0,0-2,2v.9a2.05,2.05,0,0,0,2.05,2.05H3.91V42.45H2.05a2.05,2.05,0,0,0-2,2.06v.9a2.05,2.05,0,0,0,2.05,2.05H3.91v7a3.35,3.35,0,0,0,3.34,3.35h33.3a3.35,3.35,0,0,0,3.35-3.35v-.51A10.11,10.11,0,0,0,52.43,44ZM40.55,55.2H7.25a.76.76,0,0,1-.76-.76v-7H7.81v-5H6.49V31.53H7.81v-5H6.49V15.34H7.78a0,0,0,0,0,0,0v-5a0,0,0,0,0,0,0H6.49v-7a.76.76,0,0,1,.76-.76h33.3a.76.76,0,0,1,.76.76V33.88a10.12,10.12,0,0,0,0,20.14v.42A.76.76,0,0,1,40.55,55.2Zm1.76-4.13A7.12,7.12,0,1,1,49.43,44,7.13,7.13,0,0,1,42.31,51.07Z"/><polygon class="cls-1" points="41.13 45.26 38.92 42.87 37.45 44.23 41.14 48.21 47.18 41.62 45.7 40.27 41.13 45.26"/></g></g></svg>