<svg xmlns="http://www.w3.org/2000/svg" viewBox="0 0 29.3 30.05"><defs><style>.cls-1{fill:#25704F;}</style></defs><g id="Capa_2" data-name="Capa 2"><g id="Layer_1" data-name="Layer 1"><path class="cls-1" d="M16,0a5.58,5.58,0,0,1,5,2.15l-4.93,5L18.26,9.4l-1.11,1.1L29.3,22.66,24.91,27.1,12.7,15l-1.11,1.1L10.45,15l-1,1c0,.08.92.82,1,1a.22.22,0,0,1,0,.22L6.6,21,0,14.39l3.86-3.92L5,11.54l1-1L5,9.36,13,1.3A5.9,5.9,0,0,1,16,0ZM18.7,2.14c-2.29-1.26-4.53-.24-6,1.72l2.17,2.19Zm-7.11,2.8L7.22,9.39l4.37,4.39L16,9.33ZM7.11,11.65c-.15.16-1,.92-1,1l2.17,2.18,1.07-1.06Zm8.91,0-2.18,2.17,1.66,1.65,2.16-2.18A11,11,0,0,0,16,11.65ZM3.8,12.75a18.17,18.17,0,0,0-1.59,1.64l4.38,4.4,1.65-1.66Zm15,1.62L16.64,16.6l8.28,8.3,2.17-2.24Z"/><polygon class="cls-1" points="20.61 25.34 20.61 26.96 19.07 26.96 19.07 30.05 17.45 30.05 17.45 26.96 15.9 26.96 15.9 25.34 20.61 25.34"/><polygon class="cls-1" points="11.41 21.44 11.41 22.98 14.5 22.98 14.5 24.6 11.41 24.6 11.41 26.15 9.86 26.15 9.86 21.44 11.41 21.44"/><polygon class="cls-1" points="11.59 8.26 12.73 9.4 11.66 10.46 10.53 9.39 11.59 8.26"/></g></g></svg>