<svg xmlns="http://www.w3.org/2000/svg" viewBox="0 0 26.65 26.66"><defs><style>.cls-1{fill:#e20719;}</style></defs><g id="Capa_2" data-name="Capa 2"><g id="Layer_1" data-name="Layer 1"><path class="cls-1" d="M11.14,26.66,10.2,23l-1.57-.63-3.14,1.9L2.41,21.14,4.29,18l-.61-1.53-.14-.11L0,15.51V11.15l3.64-.92L4.29,8.7,2.41,5.52,5.49,2.41,8.63,4.3l1.57-.63L11.14,0h4.34l.9,3.53.1.16L18,4.3l3.12-1.88L24.25,5.5,22.36,8.64,23,10.21l3.67.94v4.37l-3.53.87-.15.1L22.36,18l1.88,3.12-3.08,3.12L18,22.36,16.45,23l-.94,3.67ZM14.25,1.57H12.39l-.85,3.37A9.48,9.48,0,0,0,8.7,6.09c-.11,0-.18,0-.27-.07C7.61,5.66,6.69,4.9,5.86,4.47c-.05,0-.13-.09-.19-.07L4.38,5.7,6.12,8.62a10.26,10.26,0,0,0-1.19,2.93l-3.38.88v1.83l3.37.86A9.89,9.89,0,0,0,6.11,18L4.39,21l1.3,1.28,2.93-1.7c.53.21,1,.54,1.58.75a7.68,7.68,0,0,0,1.32.39l.9,3.39h1.83l.86-3.36A9.65,9.65,0,0,0,18,20.54l3,1.72L22.27,21,20.53,18a10.06,10.06,0,0,0,1.18-2.9l3.38-.9V12.4l-3.37-.85a9.55,9.55,0,0,0-1.19-2.9l1.73-3L21,4.39,18,6.09c-.55-.22-1.06-.55-1.62-.76A9.86,9.86,0,0,0,15.13,5Z"/><path class="cls-1" d="M12.69,6.32a7,7,0,1,1-6.11,9A7.06,7.06,0,0,1,12.69,6.32ZM13,7.88a5.46,5.46,0,1,0,5,8.31A5.47,5.47,0,0,0,13,7.88Z"/><path class="cls-1" d="M12.84,9.44a3.92,3.92,0,1,1-3,5.61A3.93,3.93,0,0,1,12.84,9.44ZM13.1,11c-3.27.3-2.45,5.38.8,4.59A2.34,2.34,0,0,0,13.1,11Z"/></g></g></svg>