<svg xmlns="http://www.w3.org/2000/svg" viewBox="0 0 43.99 43.61"><defs><style>.cls-1{fill:#fff;}</style></defs><g id="Capa_2" data-name="Capa 2"><g id="Layer_1" data-name="Layer 1"><path class="cls-1" d="M18.39,43.56C10.25,42.82.08,34.66,0,22.14a22,22,0,1,1,44-.27c.14,11.62-8.82,20.55-18.43,21.74V28.45c1.42,0,2.78,0,4.14,0,.73,0,1-.22,1.07-1,.2-1.8.53-3.59.82-5.49h-6c0-1.81-.13-3.54,0-5.23.14-1.38,1.48-2.22,3.22-2.31.93-.05,1.87,0,2.89,0V8.94c-3.63-.33-7.33-1.16-10.54,1.54a7.15,7.15,0,0,0-2.52,5.17c-.12,2.06,0,4.14,0,6.32H13V28.4h5.43Z"/></g></g></svg>