<svg xmlns="http://www.w3.org/2000/svg" viewBox="0 0 43.63 43.61"><defs><style>.cls-1{fill:#fff;}</style></defs><g id="Capa_2" data-name="Capa 2"><g id="Layer_1" data-name="Layer 1"><path class="cls-1" d="M21.85,43.61H12.13A12,12,0,0,1,0,31.46Q0,21.8,0,12.13A12,12,0,0,1,12.16,0H31.39A12,12,0,0,1,43.62,12.25q0,9.53,0,19A12,12,0,0,1,31.26,43.61ZM3.89,21.7h0v5c0,1.7,0,3.41,0,5.11a8.11,8.11,0,0,0,7.85,7.88q10,.06,20,0a8.09,8.09,0,0,0,8-8q.06-9.91,0-19.84a8.1,8.1,0,0,0-8-7.94q-9.82,0-19.65,0a8.15,8.15,0,0,0-8.17,8.2C3.88,15.29,3.89,18.5,3.89,21.7Z"/><path class="cls-1" d="M21.91,10.6A11.22,11.22,0,1,1,10.6,21.43,11.15,11.15,0,0,1,21.91,10.6Zm7.21,11.27a7.32,7.32,0,1,0-7.46,7.25A7.19,7.19,0,0,0,29.12,21.87Z"/><path class="cls-1" d="M33.55,7.34a2.73,2.73,0,0,1,2.79,2.77,2.82,2.82,0,0,1-5.63,0A2.72,2.72,0,0,1,33.55,7.34Z"/></g></g></svg>