<svg xmlns="http://www.w3.org/2000/svg" viewBox="0 0 24.53 26.67"><defs><style>.cls-1{fill:#e20719;}</style></defs><g id="Capa_2" data-name="Capa 2"><g id="Layer_1" data-name="Layer 1"><path class="cls-1" d="M5.78,0V5H8.39V0h4.47V5h1.36v7a6.53,6.53,0,0,1-4.17,5.55v3.38H7.92a4.62,4.62,0,0,0,9.21,0c.2-3.67-.25-7.6,0-11.24a3.71,3.71,0,0,1,5.7-2.88,3.9,3.9,0,0,1,1.7,2.88v17H22.91V9.45c0-.5-.76-1.29-1.21-1.49a2.14,2.14,0,0,0-3,2c-.24,3.56.23,7.41,0,11a6.33,6.33,0,0,1-2.77,4.73,6.19,6.19,0,0,1-9.58-4.76H4.22V17.57a14.69,14.69,0,0,1-1.35-.73A6.64,6.64,0,0,1,0,11.9V5H1.25V0ZM4.22,1.56H2.87V5H4.22Zm7.08,0H10V5H11.3Zm1.36,4.95H1.56V8.64h11.1Zm0,3.7H1.56c-.16,2.1.37,4.12,2.2,5.33a6.77,6.77,0,0,0,7.13-.31A5.3,5.3,0,0,0,12.66,12Zm-4.22,7.7H5.78v1.41H8.44Z"/></g></g></svg>