<svg xmlns="http://www.w3.org/2000/svg" viewBox="0 0 12.69 17.25"><defs><style>.cls-1,.cls-2{fill:#fff;}.cls-1{stroke:#fff;stroke-miterlimit:10;stroke-width:0.75px;}</style></defs><g id="Capa_2" data-name="Capa 2"><g id="Layer_1" data-name="Layer 1"><path class="cls-1" d="M6.29,16.74c-.79-1-1.59-2.06-2.35-3.12A31.08,31.08,0,0,1,.85,8.41,5.79,5.79,0,0,1,4.37.7,6,6,0,0,1,12.18,5a6,6,0,0,1-.64,4.1,41.16,41.16,0,0,1-5.1,7.57S6.37,16.68,6.29,16.74Zm0-1.11c.08-.06.11-.07.12-.09a39.79,39.79,0,0,0,4.17-6.2,7,7,0,0,0,1-2.73,5.22,5.22,0,0,0-6.93-5.2,5,5,0,0,0-3,6.76,41.55,41.55,0,0,0,2.19,3.91C4.54,13.31,5.44,14.45,6.29,15.63Z"/><path class="cls-2" d="M9.71,6.36A3.37,3.37,0,0,1,3,6.33a3.37,3.37,0,1,1,6.74,0ZM9,6.34a2.62,2.62,0,1,0-5.24,0A2.62,2.62,0,0,0,9,6.34Z"/></g></g></svg>