<svg xmlns="http://www.w3.org/2000/svg" viewBox="0 0 17.63 12.4"><defs><style>.cls-1{fill:#fff;}</style></defs><g id="Capa_2" data-name="Capa 2"><g id="Layer_1" data-name="Layer 1"><path class="cls-1" d="M8.82,0H16a1.55,1.55,0,0,1,1.64,1.64v9.09A1.56,1.56,0,0,1,16,12.4H1.58A1.54,1.54,0,0,1,0,10.83Q0,6.2,0,1.57A1.54,1.54,0,0,1,1.63,0Zm-7,1A1.81,1.81,0,0,0,2,1.23L7.66,6.88a1.54,1.54,0,0,0,2.32,0l5.7-5.66A1.41,1.41,0,0,0,15.82,1Zm.06,10.31H15.7L11.36,6.93l-.63.67a2.59,2.59,0,0,1-3.83,0c-.22-.23-.42-.46-.65-.72ZM1,10.61,5.35,6.24,1,1.85Zm15.55,0V1.82L12.26,6.18Z" transform="translate(0)"/></g></g></svg>