<svg xmlns="http://www.w3.org/2000/svg" viewBox="0 0 791.32 168.62"><defs><style>.cls-1{opacity:0.99;}.cls-2{fill:#fff;}</style></defs><g id="Capa_2" data-name="Capa 2"><g id="Layer_1" data-name="Layer 1"><g class="cls-1"><path class="cls-2" d="M230.7,137h-16V94.74l-2.68-.65c-5.87,11.51-12.35,22.75-17.38,34.6-3.14,7.39-7.77,10.19-14.93,8.48-3.32-.79-7.35-3-9-5.76-5.39-9.27-9.74-19.13-14.71-28.65a15.19,15.19,0,0,0-7.36-6.88v41h-16v-57c9.37,0,18.69-.62,27.84.39,2.61.28,5.34,5,6.9,8.19C172,97.68,176,107.24,181,118.58c6.17-12.13,11.62-21.94,16.17-32.15,2.38-5.35,5.45-7.21,11.18-6.81,7.15.5,14.36.12,22.37.12Z"/><path class="cls-2" d="M609.89,120.9V80.37h17.62v56.91c-9.23,0-18.52.36-27.73-.25-2.44-.16-5.26-2.93-6.9-5.22-7.15-10-13.85-20.25-20.89-30.29-1.89-2.68-4.44-4.91-7.81-8.57v43.72H546.55V79.79c9.22,0,18.26-.43,27.2.27,2.66.2,5.68,3.12,7.48,5.56,8.85,12,17.34,24.27,26,36.44Z"/><path class="cls-2" d="M672.54,137.34c-8.43,0-16.86,0-25.29,0-6.74,0-12.18-3.05-12.73-9.5a222.09,222.09,0,0,1-.24-34.7c.66-9.1,6.13-13.93,16.24-13.56,15,.55,30,.12,45,.15,9.52,0,17,6.94,17.32,16.33.27,8.68.24,17.38,0,26.07-.23,9.62-6,15-15.93,15.16C688.78,137.42,680.66,137.34,672.54,137.34Zm.82-43.15c-23.77,0-23.91.26-22.78,21.12.27,5.11,2.08,7.36,7.23,7.27,7.79-.14,15.59,0,23.39,0,13,0,13,0,13.08-12.47.06-15.9.06-15.9-16.24-15.91Z"/><path class="cls-2" d="M338.92,136.85H322.55V79.77c8.53,0,17.23-.64,25.75.33,3.24.36,6.65,4,9,6.89,8.54,10.82,16.65,22,25,33,.48.64,1.48.89,3.38,2V80.31h16.27v57c-9.25,0-18.81.38-28.3-.27-2.33-.16-4.85-3.36-6.54-5.69-8.77-12.11-17.29-24.39-28.13-36Z"/><path class="cls-2" d="M717.44,79.75c20.6,0,40.57-.5,60.48.42,4.06.19,10.77,5.38,11.19,8.86,1,8.37,4.12,18.1-3.44,24.1,1.92,8,3.66,15.2,5.65,23.5H772.7c-.09-.09-.81-.51-.86-1-1.22-13.26-1.21-13.26-14.53-13.26H736.13c-.44,5.1-.83,9.56-1.25,14.47H717.44ZM735.9,107.6c11.09,0,21.38.3,31.62-.27,2-.11,5.63-4.12,5.27-5.43C772,99,769.25,94.73,767,94.56c-10.18-.78-20.45-.34-31.13-.34Z"/><path class="cls-2" d="M539.55,101.84v11H495.33v9.67h45.74v14.81H478.85V80.25h62.22V92.11H495.71c-.4,3.37-.72,6-1.17,9.73Z"/><path class="cls-2" d="M320.53,137.09c-9.66-.18-18.77,3.46-24.14-7.06-.81-1.59-4.94-2-7.55-2.09-10.3-.23-20.61-.09-31.66-.09-2,14.61-13.27,8.23-23.19,9.82,3.36-7,6.09-13,9-18.8,3.55-7.13,7.25-14.19,10.84-21.3C263.15,79,263.16,78.77,283.86,80c3.29.19,7.8,2.7,9.35,5.47C302.46,102,311,118.88,320.53,137.09Zm-30.47-22.51-13.2-24.44c-4.67,9.48-8.13,16.48-12.06,24.44Z"/><path class="cls-2" d="M449.86,137.32c-5.16,0-8.58,0-12,0-1.84,0-3.68-.2-6.6-.37V94.59H405.48V80.18h69.79V93.83H449.86Z"/><path class="cls-2" d="M240.76,168.62a9.44,9.44,0,0,1-3.48-.63,8.44,8.44,0,0,1-2.78-1.8,8,8,0,0,1-1.83-2.71,9.27,9.27,0,0,1,0-6.82,7.9,7.9,0,0,1,1.84-2.71,8.46,8.46,0,0,1,2.78-1.79,9.16,9.16,0,0,1,3.47-.64,9.42,9.42,0,0,1,3.34.58,6.86,6.86,0,0,1,2.66,1.75l-.77.8a6.46,6.46,0,0,0-2.4-1.53,8.24,8.24,0,0,0-2.78-.47,8,8,0,0,0-3,.55,7.19,7.19,0,0,0-4,3.93,8,8,0,0,0,0,5.88,7.22,7.22,0,0,0,1.59,2.36,7.13,7.13,0,0,0,2.41,1.57,8.46,8.46,0,0,0,5.78.08,6.39,6.39,0,0,0,2.4-1.55l.77.79A6.91,6.91,0,0,1,244.1,168,9.21,9.21,0,0,1,240.76,168.62Z"/><path class="cls-2" d="M257.32,168.62a9.44,9.44,0,0,1-3.48-.63,8.37,8.37,0,0,1-4.64-4.53,9.14,9.14,0,0,1,0-6.77,8.28,8.28,0,0,1,4.64-4.53,9.78,9.78,0,0,1,7,0,8.21,8.21,0,0,1,4.63,4.5,9.14,9.14,0,0,1,0,6.82,8.34,8.34,0,0,1-1.84,2.71,8.48,8.48,0,0,1-2.79,1.8A9.37,9.37,0,0,1,257.32,168.62Zm0-1.13a7.91,7.91,0,0,0,3-.55,7,7,0,0,0,2.39-1.57,7.17,7.17,0,0,0,1.57-2.36,7.89,7.89,0,0,0,0-5.89,7.14,7.14,0,0,0-4-3.92,8.4,8.4,0,0,0-6,0,7.3,7.3,0,0,0-2.39,1.57,7,7,0,0,0-1.59,2.35,7.89,7.89,0,0,0,0,5.89,6.93,6.93,0,0,0,1.59,2.36,7.14,7.14,0,0,0,2.39,1.57A8,8,0,0,0,257.32,167.49Z"/><path class="cls-2" d="M270,168.5V151.64h1L283,167h-.56V151.64h1.23V168.5h-1l-12.05-15.34h.56V168.5Z"/><path class="cls-2" d="M293.59,168.62A10.07,10.07,0,0,1,290,168a6.63,6.63,0,0,1-2.59-1.66l.56-.91a7,7,0,0,0,2.37,1.51,8.38,8.38,0,0,0,3.19.61,7.17,7.17,0,0,0,2.76-.45,3.38,3.38,0,0,0,1.59-1.19,2.82,2.82,0,0,0,.52-1.66,2.52,2.52,0,0,0-.58-1.74,4.08,4.08,0,0,0-1.51-1,13,13,0,0,0-2-.65l-2.24-.57a10.43,10.43,0,0,1-2.08-.78,4,4,0,0,1-1.5-1.32,3.71,3.71,0,0,1-.57-2.15,4.15,4.15,0,0,1,.63-2.22,4.52,4.52,0,0,1,2-1.64,8.1,8.1,0,0,1,3.4-.62,9.32,9.32,0,0,1,2.76.41A7.58,7.58,0,0,1,299,153l-.46,1a7.74,7.74,0,0,0-2.27-1.07,8.64,8.64,0,0,0-2.35-.35,6.72,6.72,0,0,0-2.68.46,3.39,3.39,0,0,0-1.56,1.22,3,3,0,0,0-.51,1.69,2.53,2.53,0,0,0,.57,1.74,4,4,0,0,0,1.5,1,15,15,0,0,0,2.08.65c.75.17,1.5.36,2.24.56a9.72,9.72,0,0,1,2,.79,4,4,0,0,1,1.52,1.3,3.54,3.54,0,0,1,.58,2.12,4.06,4.06,0,0,1-.65,2.2,4.51,4.51,0,0,1-2,1.64A8.23,8.23,0,0,1,293.59,168.62Z"/><path class="cls-2" d="M307.26,168.5V152.75h-6.07v-1.11h13.37v1.11h-6.07V168.5Z"/><path class="cls-2" d="M317.27,168.5V151.64h6.05a8.88,8.88,0,0,1,3.63.67,5.19,5.19,0,0,1,2.34,1.94,5.5,5.5,0,0,1,.82,3.07,5.43,5.43,0,0,1-.82,3,5.27,5.27,0,0,1-2.34,2,8.71,8.71,0,0,1-3.63.69h-5.38l.56-.58v6.09Zm1.23-6-.56-.58h5.38a6.22,6.22,0,0,0,4.13-1.2,4.76,4.76,0,0,0,0-6.76,6.22,6.22,0,0,0-4.13-1.19h-5.38l.56-.61Zm10.48,6-4.39-6.12H326l4.39,6.12Z"/><path class="cls-2" d="M340.69,168.62a6.62,6.62,0,0,1-4.94-1.83,7.41,7.41,0,0,1-1.81-5.44v-9.71h1.23v9.66a6.53,6.53,0,0,0,1.45,4.67,6.24,6.24,0,0,0,8.16,0,6.53,6.53,0,0,0,1.45-4.67v-9.66h1.23v9.71a7.41,7.41,0,0,1-1.81,5.44A6.65,6.65,0,0,1,340.69,168.62Z"/><path class="cls-2" d="M359.91,168.62a9.44,9.44,0,0,1-3.48-.63,8.33,8.33,0,0,1-2.78-1.8,8,8,0,0,1-1.83-2.71,9.27,9.27,0,0,1,0-6.82,7.9,7.9,0,0,1,1.84-2.71,8.36,8.36,0,0,1,2.78-1.79,9.16,9.16,0,0,1,3.47-.64,9.42,9.42,0,0,1,3.34.58,6.86,6.86,0,0,1,2.66,1.75l-.77.8a6.46,6.46,0,0,0-2.4-1.53,8.24,8.24,0,0,0-2.78-.47,8,8,0,0,0-3,.55,7.19,7.19,0,0,0-4,3.93,7.87,7.87,0,0,0,0,5.88,7.22,7.22,0,0,0,1.59,2.36,7.13,7.13,0,0,0,2.41,1.57,8.46,8.46,0,0,0,5.78.08,6.39,6.39,0,0,0,2.4-1.55l.77.79a6.91,6.91,0,0,1-2.66,1.77A9.21,9.21,0,0,1,359.91,168.62Z"/><path class="cls-2" d="M376.45,168.62A9.4,9.4,0,0,1,373,168a8.48,8.48,0,0,1-2.79-1.8,8.31,8.31,0,0,1-1.83-2.71,9.27,9.27,0,0,1,0-6.82A8.07,8.07,0,0,1,370.2,154a8.36,8.36,0,0,1,2.78-1.79,9.16,9.16,0,0,1,3.47-.64,9.42,9.42,0,0,1,3.34.58,6.94,6.94,0,0,1,2.66,1.75l-.77.8a6.62,6.62,0,0,0-2.4-1.53,8.28,8.28,0,0,0-2.78-.47,8,8,0,0,0-3,.55,7.18,7.18,0,0,0-2.41,1.57,6.93,6.93,0,0,0-1.59,2.36,7.87,7.87,0,0,0,0,5.88,6.93,6.93,0,0,0,1.59,2.36,7,7,0,0,0,2.41,1.57,8.46,8.46,0,0,0,5.78.08,6.55,6.55,0,0,0,2.4-1.55l.77.79a7,7,0,0,1-2.66,1.77A9.21,9.21,0,0,1,376.45,168.62Z"/><path class="cls-2" d="M385.9,168.5V151.64h1.22V168.5Z"/><path class="cls-2" d="M399.82,168.62a9.44,9.44,0,0,1-3.48-.63,8.49,8.49,0,0,1-2.8-1.81,8.28,8.28,0,0,1-1.84-2.72,9.14,9.14,0,0,1,0-6.77,8.22,8.22,0,0,1,1.84-2.73,8.31,8.31,0,0,1,2.8-1.8,9.78,9.78,0,0,1,7,0,8.16,8.16,0,0,1,2.78,1.79,8.37,8.37,0,0,1,1.85,2.71,9.14,9.14,0,0,1,0,6.82A8.35,8.35,0,0,1,403.3,168,9.44,9.44,0,0,1,399.82,168.62Zm0-1.13a7.91,7.91,0,0,0,3-.55,7,7,0,0,0,2.38-1.57,7.2,7.2,0,0,0,1.58-2.36,7.89,7.89,0,0,0,0-5.89,7.26,7.26,0,0,0-1.58-2.35,7.15,7.15,0,0,0-2.38-1.57,8.4,8.4,0,0,0-6,0,7.45,7.45,0,0,0-2.4,1.57,7.29,7.29,0,0,0-1.59,2.35,8,8,0,0,0,0,5.89,7.21,7.21,0,0,0,4,3.93A7.91,7.91,0,0,0,399.82,167.49Zm-1.37-17.23,3.34-2.84h1.74l-3.78,2.84Z"/><path class="cls-2" d="M412.48,168.5V151.64h1l12,15.35H425V151.64h1.23V168.5h-1l-12.05-15.34h.55V168.5Z"/><path class="cls-2" d="M442.26,168.5v-6.12l.29.8-7.09-11.54h1.35l6.43,10.48h-.67L449,151.64h1.28l-7.08,11.54.28-.8v6.12Z"/><path class="cls-2" d="M459.53,168.5V151.64h1l7.83,13.51h-.56l7.81-13.51h1l0,16.86h-1.21l0-15h.33l-7.39,12.77h-.6l-7.43-12.77h.37v15Z"/><path class="cls-2" d="M479.42,168.5l7.76-16.86h1.23l7.75,16.86h-1.32l-7.33-16.09H488l-7.3,16.09Zm2.84-4.74.41-1h10.1l.41,1Z"/><path class="cls-2" d="M498.9,168.5V151.64h1L512,167h-.56V151.64h1.23V168.5h-1l-12.05-15.34h.55V168.5Z"/><path class="cls-2" d="M521.42,168.5V152.75h-6.07v-1.11h13.37v1.11h-6.07V168.5Z"/><path class="cls-2" d="M532.66,167.39h10.41v1.11H531.43V151.64h11.28v1.11H532.66Zm-.15-8h9.14v1.08h-9.14Z"/><path class="cls-2" d="M546.48,168.5V151.64h1l12,15.35H559V151.64h1.23V168.5h-1l-12-15.34h.55V168.5Z"/><path class="cls-2" d="M565.43,168.5V151.64h1.23V168.5Z"/><path class="cls-2" d="M571.87,168.5V151.64h1l7.83,13.51h-.55L588,151.64h1l0,16.86h-1.2l0-15h.34l-7.4,12.77h-.6l-7.42-12.77h.36v15Z"/><path class="cls-2" d="M594.23,168.5V151.64h1.23V168.5Z"/><path class="cls-2" d="M601.9,167.39h10.41v1.11H600.67V151.64H612v1.11H601.9Zm-.15-8h9.14v1.08h-9.14Z"/><path class="cls-2" d="M615.72,168.5V151.64h1l12,15.35h-.55V151.64h1.22V168.5h-1l-12-15.34H617V168.5Z"/><path class="cls-2" d="M638.25,168.5V152.75h-6.07v-1.11h13.37v1.11h-6.07V168.5Z"/><path class="cls-2" d="M654.57,168.62a9.44,9.44,0,0,1-3.48-.63,8.37,8.37,0,0,1-4.64-4.53,9.14,9.14,0,0,1,0-6.77,8.28,8.28,0,0,1,4.64-4.53,9.78,9.78,0,0,1,7,0,8.21,8.21,0,0,1,4.63,4.5,9.14,9.14,0,0,1,0,6.82,8.34,8.34,0,0,1-1.84,2.71,8.48,8.48,0,0,1-2.79,1.8A9.37,9.37,0,0,1,654.57,168.62Zm0-1.13a7.91,7.91,0,0,0,3-.55,7,7,0,0,0,2.39-1.57,7.17,7.17,0,0,0,1.57-2.36,7.89,7.89,0,0,0,0-5.89,7.14,7.14,0,0,0-4-3.92,8.4,8.4,0,0,0-6,0,7.3,7.3,0,0,0-2.39,1.57,7,7,0,0,0-1.59,2.35,7.89,7.89,0,0,0,0,5.89,6.93,6.93,0,0,0,1.59,2.36,7.14,7.14,0,0,0,2.39,1.57A8,8,0,0,0,654.57,167.49Z"/><path class="cls-2" d="M673.8,168.5V151.64H675V168.5Z"/><path class="cls-2" d="M680.24,168.5V151.64h1l12,15.35h-.56V151.64H694V168.5h-1l-12.05-15.34h.56V168.5Z"/><path class="cls-2" d="M702.77,168.5V152.75h-6.08v-1.11h13.38v1.11H704V168.5Z"/><path class="cls-2" d="M714,167.39h10.41v1.11H712.77V151.64h11.28v1.11H714Zm-.14-8H723v1.08h-9.13Z"/><path class="cls-2" d="M735.13,168.62a9.62,9.62,0,0,1-3.52-.63,8.52,8.52,0,0,1-2.8-1.8,8.07,8.07,0,0,1-1.85-2.71,9.27,9.27,0,0,1,0-6.82,8,8,0,0,1,1.86-2.71,8.55,8.55,0,0,1,2.8-1.79,9.39,9.39,0,0,1,3.53-.64,9.59,9.59,0,0,1,3.4.58,6.93,6.93,0,0,1,2.68,1.73l-.77.82a6.5,6.5,0,0,0-2.43-1.54,8.43,8.43,0,0,0-2.85-.46,8.17,8.17,0,0,0-3,.55,7.37,7.37,0,0,0-2.43,1.57,7,7,0,0,0-1.6,2.36,7.87,7.87,0,0,0,0,5.88,7,7,0,0,0,1.6,2.36,7.21,7.21,0,0,0,2.43,1.57,8.17,8.17,0,0,0,3,.55A8.57,8.57,0,0,0,738,167a6.66,6.66,0,0,0,2.45-1.51l.69.94a7.18,7.18,0,0,1-2.71,1.62A10.12,10.12,0,0,1,735.13,168.62Zm4.84-2.29v-6.19h1.18v6.32Z"/><path class="cls-2" d="M745.88,168.5V151.64h6a8.93,8.93,0,0,1,3.64.67,5.29,5.29,0,0,1,2.34,1.94,5.58,5.58,0,0,1,.82,3.07,5.51,5.51,0,0,1-.82,3,5.38,5.38,0,0,1-2.34,2,8.76,8.76,0,0,1-3.64.69h-5.37l.55-.58v6.09Zm1.23-6-.55-.58h5.37a6.2,6.2,0,0,0,4.13-1.2,4.76,4.76,0,0,0,0-6.76,6.2,6.2,0,0,0-4.13-1.19h-5.37l.55-.61Zm10.48,6-4.38-6.12h1.4L759,168.5Z"/><path class="cls-2" d="M760.91,168.5l7.76-16.86h1.23l7.75,16.86h-1.32L769,152.41h.53l-7.3,16.09Zm2.84-4.74.41-1h10.1l.41,1Z"/><path class="cls-2" d="M780.39,168.5V151.64h1.22v15.75h9.71v1.11Z"/><path class="cls-2" d="M40.05,68c1.53-14.4,12.53-27.38,26.16-30.44s25.4,3.3,28.07,18.54c2.5,14.3-4.64,30.4-16.72,38a25.58,25.58,0,0,1-14.73,4.22c-9.6-.37-16.31-5.16-20.32-13.78A31.8,31.8,0,0,1,40.05,68Z"/><path class="cls-2" d="M87.68,130.06A17,17,0,0,1,72.62,111.5,13.25,13.25,0,0,1,85.49,99.38c9.57-.5,18.17,8,17.67,17.5A13.62,13.62,0,0,1,87.68,130.06Z"/><path class="cls-2" d="M102.65,144.4a7.74,7.74,0,0,1-6.87-8.46,6.05,6.05,0,0,1,5.87-5.53,7.86,7.86,0,0,1,8.06,8A6.21,6.21,0,0,1,102.65,144.4Z"/><path class="cls-2" d="M111.14,155a4.21,4.21,0,0,1-3.73-4.61,3.28,3.28,0,0,1,3.19-3,4.27,4.27,0,0,1,4.38,4.34A3.38,3.38,0,0,1,111.14,155Z"/><path class="cls-2" d="M127.7,50.23c-.89,8.08-5.85,13.75-12.43,14.66-8.75,1.21-15.36-5.73-13.69-14.39,1.29-6.7,8.52-13,15.29-13.28,6.44-.29,10.81,4.14,10.9,11.06C127.79,49.1,127.71,49.92,127.7,50.23Z"/><path class="cls-2" d="M149,45c-.53,4.83-3.5,8.22-7.44,8.77a7.09,7.09,0,0,1-8.19-8.61c.78-4,5.1-7.77,9.15-8,3.85-.17,6.47,2.48,6.53,6.62C149,44.27,149,44.76,149,45Z"/><path class="cls-2" d="M164.13,41.61c-.27,2.41-1.75,4.11-3.72,4.38a3.54,3.54,0,0,1-4.1-4.3,5.35,5.35,0,0,1,4.58-4A3.06,3.06,0,0,1,164.15,41C164.15,41.27,164.13,41.52,164.13,41.61Z"/><path class="cls-2" d="M37,113.89c-1.56-4.28-2.27-7.83.52-10.81s6.46-3,10.07-1.85c7.77,2.46,13,7.55,14.71,15.62,1.4,6.71-3.35,11.22-10.08,9.63C44.79,124.73,39.9,119.8,37,113.89Z"/><path class="cls-2" d="M35,134.37c-.87-2.37-1.26-4.34.29-6s3.58-1.65,5.58-1c4.32,1.37,7.23,4.19,8.16,8.67.78,3.72-1.85,6.23-5.59,5.34A12.53,12.53,0,0,1,35,134.37Z"/><path class="cls-2" d="M33.37,148.39c-.49-1.33-.71-2.44.16-3.37a2.83,2.83,0,0,1,3.13-.57,6.25,6.25,0,0,1,4.58,4.86,2.42,2.42,0,0,1-3.14,3A7,7,0,0,1,33.37,148.39Z"/><path class="cls-2" d="M35.44,82.15c-.6,3.77-1,7.59-1.86,11.31-.5,2.17-1.72,4.29-4.28,4.56s-3.95-1.54-5.05-3.43a31.32,31.32,0,0,1-3-25.22,6.58,6.58,0,0,1,.52-1.22c2-4,5.62-4.59,8.13-.93a38.58,38.58,0,0,1,4,8.68A35.2,35.2,0,0,1,35,82Z"/><path class="cls-2" d="M16.55,89c-.14,2.15-.18,4.32-.45,6.45a2.92,2.92,0,0,1-2.16,2.79c-1.37.27-2.31-.66-3-1.66a17.69,17.69,0,0,1-3-14,3.68,3.68,0,0,1,.23-.71C9,79.52,11,79,12.64,80.93a21.86,21.86,0,0,1,2.72,4.66A20.21,20.21,0,0,1,16.3,89Z"/><path class="cls-2" d="M5.07,94.94c.15,1.12.35,2.23.42,3.35a1.5,1.5,0,0,1-.82,1.64A1.58,1.58,0,0,1,3,99.39a9.21,9.21,0,0,1-3-6.85,2.58,2.58,0,0,1,0-.39c.23-1.3,1.2-1.77,2.22-.94a11.33,11.33,0,0,1,1.86,2.1A10.46,10.46,0,0,1,4.94,95Z"/><path class="cls-2" d="M84.45,33.34c-1.8-1.38-3.62-3.37-3.3-6.45A7,7,0,0,1,86.1,21a23.94,23.94,0,0,1,21.62,2.3c3.42,2.11,3.64,4.62,1.21,7.39C103.7,36.6,91.45,38.14,84.45,33.34Z"/><path class="cls-2" d="M99.67,17.13a4.14,4.14,0,0,1-1.93-3.78,4.08,4.08,0,0,1,2.9-3.48,14,14,0,0,1,12.65,1.35c2,1.23,2.13,2.71.71,4.32C110.94,19,103.77,19.94,99.67,17.13Z"/><path class="cls-2" d="M111.85,6.33a2.1,2.1,0,0,1-1-1.92,2.07,2.07,0,0,1,1.47-1.76,7.12,7.12,0,0,1,6.42.68,1.28,1.28,0,0,1,.36,2.2A6.13,6.13,0,0,1,111.85,6.33Z"/><path class="cls-2" d="M70.79,17.76a16.54,16.54,0,0,1,1.61.58c2.48,1.14,3,2.78,1.78,5.2a3,3,0,0,1-.38.65c-6.06,7.12-13.52,11.45-23.11,11.4a8.49,8.49,0,0,1-3.1-.75A4.3,4.3,0,0,1,45,29a12.58,12.58,0,0,1,2.31-3.85C52.07,19.72,63.4,16.14,70.79,17.76Z"/><path class="cls-2" d="M61.23,6.47c.16.06.51.16.84.31A1.72,1.72,0,0,1,63,9.5a1.45,1.45,0,0,1-.2.34c-3.17,3.72-7.07,6-12.09,6a4.42,4.42,0,0,1-1.62-.39,2.24,2.24,0,0,1-1.37-3.06,6.39,6.39,0,0,1,1.21-2C51.44,7.5,57.36,5.63,61.23,6.47Z"/><path class="cls-2" d="M57.71.1a2.81,2.81,0,0,1,.4.14.8.8,0,0,1,.43,1.27.61.61,0,0,1-.09.16,7.17,7.17,0,0,1-5.66,2.79A2.06,2.06,0,0,1,52,4.28a1.06,1.06,0,0,1-.64-1.44A3.11,3.11,0,0,1,52,1.9,7,7,0,0,1,57.71.1Z"/></g></g></g></svg>