<svg xmlns="http://www.w3.org/2000/svg" viewBox="0 0 26.66 26.66"><defs><style>.cls-1{fill:#25704F;}</style></defs><g id="Capa_2" data-name="Capa 2"><g id="Layer_1" data-name="Layer 1"><path class="cls-1" d="M26.66,5.57V9L23.9,11.74l-4.76,0-2,2,2.71,2.7,2.42.08,3.41,3.41a4.63,4.63,0,0,1,.75,1.38c.08.26.11.53.19.78v1a4.5,4.5,0,0,1-1,2.17,4.41,4.41,0,0,1-2.61,1.43h-1c-.25-.08-.52-.11-.78-.19-1.78-.53-3.34-3-4.79-4.16l-.08-2.42-2.7-2.71-2,2,0,4.76L9,26.66H5.57a1.68,1.68,0,0,1-1.25-1.95c.11-.79,1.41-1.66,1.9-2.27v-1l-1-1-.91,0c-.69.44-1.51,1.81-2.35,1.92A1.64,1.64,0,0,1,0,21V17.68l2.75-2.76,4.75,0,2-1.94L5.13,8.59,3.16,8,.1,2.42,2.42.1,8,3.09l.63,2,4.35,4.34,1.94-2,0-4.75L17.68,0H21a1.64,1.64,0,0,1,1.33,1.94c-.11.84-1.48,1.66-1.92,2.35l0,.91,1,1h1c.61-.49,1.48-1.79,2.27-1.9A1.69,1.69,0,0,1,26.66,5.57Zm-5.89-4H18.35L16.46,3.47l0,4.75L8.28,16.38l-.18.07H3.47L1.56,18.35v2.42c.09,0,.1,0,.15-.08.66-.5,1.24-1.37,1.92-1.89.64.05,1.45-.09,2.07,0a.25.25,0,0,1,.18.08l2,2a13.11,13.11,0,0,1,0,2.26c-.52.63-1.37,1.22-1.85,1.85,0,0-.1.06-.08.15H8.3l1.89-1.91V18.56l.08-.19,8.15-8.14,4.75,0L25.09,8.3V5.88c-.09,0-.1,0-.15.08-.63.48-1.22,1.33-1.85,1.85a13.11,13.11,0,0,1-2.26,0l-2-1.95a.25.25,0,0,1-.08-.18c-.08-.62.06-1.43,0-2.07.52-.68,1.39-1.26,1.89-1.92C20.73,1.66,20.79,1.65,20.77,1.56ZM6.65,4.17,2.67,2,2,2.63l2.17,4,1.11.24L6.87,5.34C7,5.09,6.67,4.47,6.65,4.17ZM7.83,6.61,6.61,7.83l4,4,1.22-1.22Zm8.23,8.23-1.22,1.22,2.42,2.42,1.22-1.22ZM20,18,18,19.94V21.6c1.63,1.3,3.29,4.58,5.79,3.14a2.54,2.54,0,0,0,.64-3.84c-.83-1-2-1.88-2.87-2.86Z"/><polygon class="cls-1" points="20.91 19.84 23.01 21.9 21.94 23.01 19.84 20.95 20.91 19.84"/></g></g></svg>