<svg width="890" height="172" viewBox="0 0 890 172" fill="none" xmlns="http://www.w3.org/2000/svg">
<path d="M251.06 135.44H235.06V93.1798L232.38 92.5298C226.51 104.04 220.03 115.28 215 127.13C211.86 134.52 207.23 137.32 200.07 135.61C196.75 134.82 192.72 132.61 191.07 129.85C185.68 120.58 181.33 110.72 176.36 101.2C174.761 98.136 172.165 95.7091 169 94.3198V135.32H153V78.3198C162.37 78.3198 171.69 77.6998 180.84 78.7098C183.45 78.9898 186.18 83.7098 187.74 86.8998C192.36 96.1198 196.36 105.68 201.36 117.02C207.53 104.89 212.98 95.0798 217.53 84.8698C219.91 79.5198 222.98 77.6598 228.71 78.0598C235.86 78.5598 243.07 78.1798 251.08 78.1798L251.06 135.44Z" fill="white"/>
<path d="M737.8 78.1898C758.4 78.1898 778.37 77.6898 798.28 78.6098C802.34 78.7998 809.05 83.9898 809.47 87.4698C810.47 95.8398 813.59 105.57 806.03 111.57C807.95 119.57 809.69 126.77 811.68 135.07H793.06C792.97 134.98 792.25 134.56 792.2 134.07C790.98 120.81 790.99 120.81 777.67 120.81H756.49C756.05 125.91 755.66 130.37 755.24 135.28H737.8V78.1898ZM756.26 106.04C767.35 106.04 777.64 106.34 787.88 105.77C789.88 105.66 793.51 101.65 793.15 100.34C792.36 97.4398 789.61 93.1698 787.36 92.9998C777.18 92.2198 766.91 92.6598 756.23 92.6598L756.26 106.04Z" fill="white"/>
<path d="M559.91 100.28V111.28H515.69V120.95H561.43V135.76H499.21V78.6898H561.43V90.5498H516.07C515.67 93.9198 515.35 96.5498 514.9 100.28H559.91Z" fill="white"/>
<path d="M340.89 135.53C331.23 135.35 322.12 138.99 316.75 128.47C315.94 126.88 311.81 126.47 309.2 126.38C298.9 126.15 288.59 126.29 277.54 126.29C275.54 140.9 264.27 134.52 254.35 136.11C257.71 129.11 260.44 123.11 263.35 117.31C266.9 110.18 270.6 103.12 274.19 96.0098C283.51 77.4398 283.52 77.2098 304.22 78.4398C307.51 78.6298 312.02 81.1398 313.57 83.9098C322.82 100.44 331.36 117.32 340.89 135.53ZM310.42 113.02L297.22 88.5798C292.55 98.0598 289.09 105.06 285.16 113.02H310.42Z" fill="white"/>
<path d="M630.25 119.34V78.8098H647.87V135.72C638.64 135.72 629.35 136.08 620.14 135.47C617.7 135.31 614.88 132.54 613.24 130.25C606.09 120.25 599.39 110 592.35 99.9598C590.46 97.2798 587.91 95.0498 584.54 91.3898V135.11H566.91V78.2298C576.13 78.2298 585.17 77.7998 594.11 78.4998C596.77 78.6998 599.79 81.6198 601.59 84.0598C610.44 96.0598 618.93 108.33 627.59 120.5L630.25 119.34Z" fill="white"/>
<path d="M692.9 135.78C684.47 135.78 676.04 135.78 667.61 135.78C660.87 135.78 655.43 132.73 654.88 126.28C653.895 114.737 653.815 103.135 654.64 91.5798C655.3 82.4798 660.77 77.6498 670.88 78.0198C685.88 78.5698 700.88 78.1398 715.88 78.1698C725.4 78.1698 732.88 85.1098 733.2 94.4998C733.47 103.18 733.44 111.88 733.2 120.57C732.97 130.19 727.2 135.57 717.27 135.73C709.14 135.86 701.02 135.78 692.9 135.78ZM693.72 92.6298C669.95 92.6298 669.81 92.8898 670.94 113.75C671.21 118.86 673.02 121.11 678.17 121.02C685.96 120.88 693.76 121.02 701.56 121.02C714.56 121.02 714.56 121.02 714.64 108.55C714.7 92.6498 714.7 92.6498 698.4 92.6398L693.72 92.6298Z" fill="white"/>
<path d="M359.28 135.29H342.91V78.2098C351.44 78.2098 360.14 77.5698 368.66 78.5398C371.9 78.8998 375.31 82.5398 377.66 85.4298C386.2 96.2498 394.31 107.43 402.66 118.43C403.14 119.07 404.14 119.32 406.04 120.43V78.7498H422.31V135.75C413.06 135.75 403.5 136.13 394.01 135.48C391.68 135.32 389.16 132.12 387.47 129.79C378.7 117.68 370.18 105.4 359.34 93.7898L359.28 135.29Z" fill="white"/>
<path d="M470.22 135.76C465.06 135.76 461.64 135.76 458.22 135.76C456.38 135.76 454.54 135.56 451.62 135.39V93.0298H425.84V78.6198H495.63V92.2698H470.22V135.76Z" fill="white"/>
<path d="M62.0574 72.9651C63.5874 58.5651 74.5874 45.5851 88.2174 42.5251C101.847 39.4651 113.617 45.8251 116.287 61.0651C118.787 75.3651 111.647 91.4651 99.5674 99.0651C95.2039 101.944 90.0632 103.417 84.8374 103.285C75.2374 102.915 68.5274 98.1251 64.5174 89.5051C62.2365 84.31 61.3872 78.5992 62.0574 72.9651Z" fill="white"/>
<path d="M109.687 135.025C105.24 134.536 101.164 132.313 98.3451 128.839C95.5258 125.364 94.19 120.918 94.6274 116.465C94.9045 113.215 96.3709 110.181 98.7456 107.945C101.12 105.709 104.236 104.427 107.497 104.345C117.067 103.845 125.667 112.345 125.167 121.845C125.123 123.764 124.674 125.653 123.849 127.386C123.024 129.12 121.842 130.659 120.38 131.904C118.919 133.148 117.21 134.07 115.368 134.608C113.525 135.145 111.589 135.288 109.687 135.025Z" fill="white"/>
<path d="M124.657 149.365C122.628 149.146 120.768 148.134 119.481 146.549C118.194 144.965 117.586 142.936 117.787 140.905C117.915 139.423 118.584 138.04 119.667 137.019C120.749 135.999 122.17 135.414 123.657 135.375C124.718 135.348 125.773 135.536 126.76 135.928C127.746 136.319 128.643 136.906 129.396 137.654C130.149 138.402 130.743 139.294 131.142 140.277C131.541 141.26 131.737 142.314 131.717 143.375C131.695 144.249 131.488 145.108 131.11 145.896C130.733 146.684 130.193 147.384 129.527 147.949C128.861 148.515 128.082 148.933 127.243 149.177C126.404 149.421 125.523 149.485 124.657 149.365Z" fill="white"/>
<path d="M133.147 159.965C132.043 159.844 131.032 159.292 130.333 158.428C129.634 157.565 129.305 156.46 129.417 155.355C129.486 154.55 129.85 153.798 130.438 153.245C131.027 152.691 131.799 152.374 132.607 152.355C133.183 152.34 133.756 152.442 134.292 152.654C134.827 152.867 135.314 153.185 135.723 153.59C136.133 153.996 136.456 154.48 136.673 155.014C136.89 155.547 136.997 156.119 136.987 156.695C136.976 157.171 136.865 157.639 136.66 158.069C136.455 158.499 136.162 158.881 135.8 159.19C135.437 159.499 135.013 159.727 134.556 159.861C134.099 159.995 133.619 160.03 133.147 159.965Z" fill="white"/>
<path d="M149.707 55.1951C148.817 63.2751 143.857 68.9451 137.277 69.8551C128.527 71.0651 121.917 64.1251 123.587 55.4651C124.877 48.7651 132.107 42.4651 138.877 42.1851C145.317 41.8951 149.687 46.3251 149.777 53.2451C149.797 54.0651 149.717 54.8851 149.707 55.1951Z" fill="white"/>
<path d="M171.007 49.9652C170.477 54.7952 167.507 58.1852 163.567 58.7352C162.407 58.9502 161.211 58.8722 160.088 58.5081C158.966 58.1441 157.952 57.5055 157.138 56.6504C156.325 55.7952 155.738 54.7506 155.43 53.6111C155.123 52.4716 155.105 51.2734 155.377 50.1252C156.157 46.1252 160.477 42.3552 164.527 42.1252C168.377 41.9552 170.997 44.6052 171.057 48.7452C171.007 49.2352 171.007 49.7252 171.007 49.9652Z" fill="white"/>
<path d="M186.137 46.5751C185.867 48.9851 184.387 50.6851 182.417 50.9551C181.837 51.0646 181.239 51.0273 180.676 50.8464C180.114 50.6655 179.606 50.3468 179.199 49.9194C178.791 49.492 178.497 48.9694 178.343 48.3993C178.189 47.8291 178.18 47.2295 178.317 46.6551C178.584 45.6023 179.166 44.6557 179.984 43.9411C180.802 43.2266 181.818 42.7781 182.897 42.6551C183.338 42.6247 183.779 42.6899 184.192 42.8462C184.605 43.0025 184.979 43.2462 185.288 43.5606C185.598 43.875 185.836 44.2527 185.986 44.6677C186.136 45.0828 186.194 45.5254 186.157 45.9651C186.157 46.2351 186.137 46.4851 186.137 46.5751Z" fill="white"/>
<path d="M59.0074 118.855C57.4474 114.575 56.7374 111.025 59.5274 108.045C62.3174 105.065 65.9874 105.045 69.5974 106.195C77.3674 108.655 82.5974 113.745 84.3074 121.815C85.7074 128.525 80.9574 133.035 74.2274 131.445C66.7974 129.695 61.9074 124.765 59.0074 118.855Z" fill="white"/>
<path d="M57.0074 139.335C56.1374 136.965 55.7474 134.995 57.2974 133.335C58.8474 131.675 60.8774 131.685 62.8774 132.335C67.1974 133.705 70.1074 136.525 71.0374 141.005C71.8174 144.725 69.1874 147.235 65.4474 146.345C63.601 145.893 61.8816 145.027 60.4194 143.813C58.9571 142.598 57.7903 141.067 57.0074 139.335Z" fill="white"/>
<path d="M55.3774 153.355C54.8874 152.025 54.6674 150.915 55.5374 149.985C55.9419 149.587 56.4566 149.32 57.0147 149.219C57.5728 149.117 58.1486 149.185 58.6674 149.415C59.8122 149.709 60.8502 150.322 61.6609 151.182C62.4716 152.042 63.0217 153.115 63.2474 154.275C63.3833 154.706 63.3957 155.167 63.2832 155.605C63.1708 156.043 62.9379 156.44 62.6111 156.752C62.2842 157.065 61.8764 157.279 61.4339 157.372C60.9914 157.464 60.5319 157.431 60.1074 157.275C59.0728 157.024 58.109 156.541 57.2894 155.862C56.4698 155.182 55.8158 154.325 55.3774 153.355Z" fill="white"/>
<path d="M57.4474 87.1151C56.8474 90.8851 56.4474 94.7051 55.5874 98.4251C55.0874 100.595 53.8674 102.715 51.3074 102.985C48.7474 103.255 47.3574 101.445 46.2574 99.5551C44.0239 95.7939 42.603 91.6065 42.0863 87.2628C41.5696 82.9191 41.9685 78.5152 43.2574 74.3351C43.3892 73.9119 43.5634 73.5032 43.7774 73.1151C45.7774 69.1151 49.3974 68.5251 51.9074 72.1851C53.5953 74.9014 54.939 77.8171 55.9074 80.8651C56.4527 82.8621 56.8208 84.9033 57.0074 86.9651L57.4474 87.1151Z" fill="white"/>
<path d="M38.5574 93.9651C38.4174 96.1151 38.3774 98.2851 38.1074 100.415C38.101 101.052 37.8864 101.669 37.4964 102.173C37.1065 102.677 36.5625 103.039 35.9474 103.205C34.5774 103.475 33.6374 102.545 32.9474 101.545C31.4993 99.5494 30.4843 97.2731 29.9677 94.8621C29.4511 92.4512 29.4441 89.9588 29.9474 87.5451C29.9998 87.3012 30.0769 87.0633 30.1774 86.8351C31.0074 84.4851 33.0074 83.9651 34.6474 85.8951C35.743 87.3301 36.6566 88.8954 37.3674 90.5551C37.7798 91.6621 38.0943 92.8031 38.3074 93.9651H38.5574Z" fill="white"/>
<path d="M27.0774 99.9051C27.2274 101.025 27.4274 102.135 27.4974 103.255C27.5613 103.581 27.5155 103.918 27.3671 104.215C27.2188 104.512 26.9762 104.751 26.6774 104.895C26.3768 104.98 26.0577 104.974 25.7605 104.878C25.4633 104.782 25.2012 104.6 25.0074 104.355C24.0561 103.487 23.2976 102.428 22.7809 101.248C22.2641 100.068 22.0006 98.7932 22.0074 97.5051C21.9975 97.3753 21.9975 97.2449 22.0074 97.1151C22.2374 95.8151 23.2074 95.3451 24.2274 96.1751C24.932 96.7953 25.5568 97.5007 26.0874 98.2751C26.4246 98.8112 26.7125 99.3769 26.9474 99.9651L27.0774 99.9051Z" fill="white"/>
<path d="M106.457 38.3051C104.657 36.9251 102.837 34.9351 103.157 31.8551C103.317 30.4972 103.871 29.2158 104.751 28.1691C105.63 27.1224 106.797 26.3562 108.107 25.9651C111.637 24.6149 115.436 24.1195 119.194 24.5192C122.951 24.919 126.561 26.2026 129.727 28.2651C133.147 30.3751 133.367 32.8851 130.937 35.6551C125.707 41.5651 113.457 43.1051 106.457 38.3051Z" fill="white"/>
<path d="M121.677 22.0952C121.045 21.6979 120.531 21.1368 120.191 20.4713C119.851 19.8058 119.698 19.0607 119.747 18.3152C119.833 17.5135 120.154 16.7551 120.67 16.1357C121.186 15.5164 121.874 15.0638 122.647 14.8352C124.713 14.0452 126.936 13.7557 129.135 13.9903C131.333 14.225 133.445 14.9771 135.297 16.1852C137.297 17.4152 137.427 18.8952 136.007 20.5052C132.947 23.9652 125.777 24.9052 121.677 22.0952Z" fill="white"/>
<path d="M133.857 11.2951C133.532 11.0961 133.267 10.8122 133.091 10.4739C132.915 10.1357 132.834 9.7558 132.857 9.37513C132.902 8.96955 133.065 8.58611 133.326 8.27297C133.588 7.95984 133.936 7.73097 134.327 7.61513C135.375 7.21465 136.503 7.06749 137.619 7.18566C138.735 7.30384 139.807 7.68399 140.747 8.29513C140.96 8.37326 141.149 8.50656 141.293 8.68137C141.438 8.85618 141.533 9.06624 141.57 9.29004C141.606 9.51384 141.583 9.74336 141.502 9.9551C141.42 10.1668 141.284 10.3532 141.107 10.4951C140.144 11.3874 138.92 11.9467 137.614 12.0908C136.309 12.2348 134.992 11.9559 133.857 11.2951Z" fill="white"/>
<path d="M92.7974 22.7251C93.3437 22.8906 93.8811 23.0841 94.4074 23.3051C96.8874 24.4451 97.4074 26.0851 96.1874 28.5051C96.0885 28.7369 95.9608 28.9553 95.8074 29.1551C89.7474 36.2751 82.2874 40.6051 72.6974 40.5551C71.6259 40.5032 70.5741 40.2487 69.5974 39.8051C69.0249 39.6179 68.4982 39.3126 68.0513 38.9088C67.6044 38.5051 67.2472 38.0119 67.0031 37.4614C66.7589 36.9108 66.6331 36.3151 66.6339 35.7128C66.6346 35.1105 66.7619 34.5151 67.0074 33.9651C67.5403 32.5537 68.3228 31.2496 69.3174 30.1151C74.0774 24.6851 85.4074 21.1051 92.7974 22.7251Z" fill="white"/>
<path d="M83.2374 11.4351C83.3974 11.4951 83.7474 11.5951 84.0774 11.7451C84.3534 11.8162 84.6075 11.9548 84.8167 12.1484C85.0259 12.342 85.1837 12.5846 85.2759 12.8543C85.3682 13.124 85.3919 13.4124 85.345 13.6936C85.2981 13.9748 85.1821 14.2399 85.0074 14.4651C84.9565 14.587 84.8892 14.7014 84.8074 14.8051C81.6374 18.5251 77.7374 20.8051 72.7174 20.8051C72.1575 20.779 71.6078 20.6466 71.0974 20.4151C70.7951 20.3202 70.5163 20.1622 70.2796 19.9516C70.0428 19.741 69.8535 19.4825 69.724 19.1933C69.5945 18.9041 69.5279 18.5907 69.5284 18.2738C69.529 17.957 69.5968 17.6438 69.7274 17.3551C70.0043 16.6197 70.4145 15.9417 70.9374 15.3551C73.4474 12.4651 79.3674 10.5951 83.2374 11.4351Z" fill="white"/>
<path d="M79.7174 5.06512C79.854 5.10165 79.9877 5.14845 80.1174 5.20512C80.2464 5.23816 80.3651 5.30287 80.4627 5.39341C80.5604 5.48394 80.6339 5.59742 80.6766 5.72355C80.7193 5.84969 80.7299 5.98449 80.7073 6.11573C80.6847 6.24697 80.6298 6.3705 80.5474 6.47512C80.5256 6.53269 80.4953 6.58663 80.4574 6.63512C79.7892 7.50106 78.9318 8.20268 77.9508 8.68626C76.9698 9.16984 75.8911 9.42258 74.7974 9.42512C74.5247 9.41801 74.2562 9.35683 74.0074 9.24512C73.8661 9.19914 73.736 9.12398 73.6256 9.02449C73.5153 8.925 73.427 8.80342 73.3667 8.66764C73.3063 8.53186 73.2752 8.3849 73.2753 8.23631C73.2754 8.08772 73.3068 7.94081 73.3674 7.80512C73.5211 7.45511 73.7381 7.13645 74.0074 6.86512C74.7668 6.16151 75.6728 5.63512 76.6602 5.32386C77.6476 5.01261 78.6917 4.92424 79.7174 5.06512Z" fill="white"/>
<path d="M189.724 171.504C188.337 171.504 187.046 171.279 185.85 170.828C184.671 170.36 183.64 169.71 182.756 168.878C181.889 168.029 181.213 167.032 180.728 165.888C180.243 164.744 180 163.496 180 162.144C180 160.792 180.243 159.544 180.728 158.4C181.213 157.256 181.898 156.268 182.782 155.436C183.666 154.587 184.697 153.937 185.876 153.486C187.055 153.018 188.346 152.784 189.75 152.784C191.241 152.784 192.601 153.044 193.832 153.564C195.063 154.067 196.103 154.821 196.952 155.826L194.768 157.88C194.109 157.169 193.373 156.641 192.558 156.294C191.743 155.93 190.859 155.748 189.906 155.748C188.953 155.748 188.077 155.904 187.28 156.216C186.5 156.528 185.815 156.97 185.226 157.542C184.654 158.114 184.203 158.79 183.874 159.57C183.562 160.35 183.406 161.208 183.406 162.144C183.406 163.08 183.562 163.938 183.874 164.718C184.203 165.498 184.654 166.174 185.226 166.746C185.815 167.318 186.5 167.76 187.28 168.072C188.077 168.384 188.953 168.54 189.906 168.54C190.859 168.54 191.743 168.367 192.558 168.02C193.373 167.656 194.109 167.11 194.768 166.382L196.952 168.462C196.103 169.45 195.063 170.204 193.832 170.724C192.601 171.244 191.232 171.504 189.724 171.504Z" fill="white"/>
<path d="M208.338 171.504C206.916 171.504 205.608 171.27 204.412 170.802C203.216 170.334 202.176 169.684 201.292 168.852C200.408 168.003 199.723 167.015 199.238 165.888C198.752 164.744 198.51 163.496 198.51 162.144C198.51 160.792 198.752 159.553 199.238 158.426C199.723 157.282 200.408 156.294 201.292 155.462C202.176 154.613 203.216 153.954 204.412 153.486C205.608 153.018 206.908 152.784 208.312 152.784C209.733 152.784 211.033 153.018 212.212 153.486C213.408 153.954 214.448 154.613 215.332 155.462C216.216 156.294 216.9 157.282 217.386 158.426C217.871 159.553 218.114 160.792 218.114 162.144C218.114 163.496 217.871 164.744 217.386 165.888C216.9 167.032 216.216 168.02 215.332 168.852C214.448 169.684 213.408 170.334 212.212 170.802C211.033 171.27 209.742 171.504 208.338 171.504ZM208.312 168.54C209.23 168.54 210.08 168.384 210.86 168.072C211.64 167.76 212.316 167.318 212.888 166.746C213.46 166.157 213.902 165.481 214.214 164.718C214.543 163.938 214.708 163.08 214.708 162.144C214.708 161.208 214.543 160.359 214.214 159.596C213.902 158.816 213.46 158.14 212.888 157.568C212.316 156.979 211.64 156.528 210.86 156.216C210.08 155.904 209.23 155.748 208.312 155.748C207.393 155.748 206.544 155.904 205.764 156.216C205.001 156.528 204.325 156.979 203.736 157.568C203.164 158.14 202.713 158.816 202.384 159.596C202.072 160.359 201.916 161.208 201.916 162.144C201.916 163.063 202.072 163.912 202.384 164.692C202.713 165.472 203.164 166.157 203.736 166.746C204.308 167.318 204.984 167.76 205.764 168.072C206.544 168.384 207.393 168.54 208.312 168.54Z" fill="white"/>
<path d="M221.696 171.244V153.044H224.478L235.892 167.058H234.514V153.044H237.868V171.244H235.086L223.672 157.23H225.05V171.244H221.696Z" fill="white"/>
<path d="M248.387 171.504C246.966 171.504 245.605 171.305 244.305 170.906C243.005 170.49 241.974 169.961 241.211 169.32L242.381 166.694C243.109 167.266 244.011 167.743 245.085 168.124C246.16 168.505 247.261 168.696 248.387 168.696C249.341 168.696 250.112 168.592 250.701 168.384C251.291 168.176 251.724 167.899 252.001 167.552C252.279 167.188 252.417 166.781 252.417 166.33C252.417 165.775 252.218 165.333 251.819 165.004C251.421 164.657 250.901 164.389 250.259 164.198C249.635 163.99 248.933 163.799 248.153 163.626C247.391 163.453 246.619 163.253 245.839 163.028C245.077 162.785 244.375 162.482 243.733 162.118C243.109 161.737 242.598 161.234 242.199 160.61C241.801 159.986 241.601 159.189 241.601 158.218C241.601 157.23 241.861 156.329 242.381 155.514C242.919 154.682 243.725 154.023 244.799 153.538C245.891 153.035 247.269 152.784 248.933 152.784C250.025 152.784 251.109 152.923 252.183 153.2C253.258 153.477 254.194 153.876 254.991 154.396L253.925 157.022C253.111 156.537 252.27 156.181 251.403 155.956C250.537 155.713 249.705 155.592 248.907 155.592C247.971 155.592 247.209 155.705 246.619 155.93C246.047 156.155 245.623 156.45 245.345 156.814C245.085 157.178 244.955 157.594 244.955 158.062C244.955 158.617 245.146 159.067 245.527 159.414C245.926 159.743 246.437 160.003 247.061 160.194C247.703 160.385 248.413 160.575 249.193 160.766C249.973 160.939 250.745 161.139 251.507 161.364C252.287 161.589 252.989 161.884 253.613 162.248C254.255 162.612 254.766 163.106 255.147 163.73C255.546 164.354 255.745 165.143 255.745 166.096C255.745 167.067 255.477 167.968 254.939 168.8C254.419 169.615 253.613 170.273 252.521 170.776C251.429 171.261 250.051 171.504 248.387 171.504Z" fill="white"/>
<path d="M262.535 171.244V155.904H256.503V153.044H271.947V155.904H265.915V171.244H262.535Z" fill="white"/>
<path d="M274.484 171.244V153.044H281.972C283.584 153.044 284.962 153.304 286.106 153.824C287.267 154.344 288.16 155.089 288.784 156.06C289.408 157.031 289.72 158.183 289.72 159.518C289.72 160.853 289.408 162.005 288.784 162.976C288.16 163.929 287.267 164.666 286.106 165.186C284.962 165.689 283.584 165.94 281.972 165.94H276.356L277.864 164.406V171.244H274.484ZM286.392 171.244L281.79 164.64H285.404L290.032 171.244H286.392ZM277.864 164.77L276.356 163.158H281.816C283.306 163.158 284.424 162.837 285.17 162.196C285.932 161.555 286.314 160.662 286.314 159.518C286.314 158.357 285.932 157.464 285.17 156.84C284.424 156.216 283.306 155.904 281.816 155.904H276.356L277.864 154.24V164.77Z" fill="white"/>
<path d="M301.327 171.504C298.831 171.504 296.873 170.802 295.451 169.398C294.047 167.994 293.345 165.966 293.345 163.314V153.044H296.725V163.184C296.725 165.056 297.124 166.417 297.921 167.266C298.736 168.115 299.88 168.54 301.353 168.54C302.827 168.54 303.962 168.115 304.759 167.266C305.557 166.417 305.955 165.056 305.955 163.184V153.044H309.283V163.314C309.283 165.966 308.573 167.994 307.151 169.398C305.747 170.802 303.806 171.504 301.327 171.504Z" fill="white"/>
<path d="M322.441 171.504C321.054 171.504 319.763 171.279 318.567 170.828C317.388 170.36 316.357 169.71 315.473 168.878C314.606 168.029 313.93 167.032 313.445 165.888C312.959 164.744 312.717 163.496 312.717 162.144C312.717 160.792 312.959 159.544 313.445 158.4C313.93 157.256 314.615 156.268 315.499 155.436C316.383 154.587 317.414 153.937 318.593 153.486C319.771 153.018 321.063 152.784 322.467 152.784C323.957 152.784 325.318 153.044 326.549 153.564C327.779 154.067 328.819 154.821 329.669 155.826L327.485 157.88C326.826 157.169 326.089 156.641 325.275 156.294C324.46 155.93 323.576 155.748 322.623 155.748C321.669 155.748 320.794 155.904 319.997 156.216C319.217 156.528 318.532 156.97 317.943 157.542C317.371 158.114 316.92 158.79 316.591 159.57C316.279 160.35 316.123 161.208 316.123 162.144C316.123 163.08 316.279 163.938 316.591 164.718C316.92 165.498 317.371 166.174 317.943 166.746C318.532 167.318 319.217 167.76 319.997 168.072C320.794 168.384 321.669 168.54 322.623 168.54C323.576 168.54 324.46 168.367 325.275 168.02C326.089 167.656 326.826 167.11 327.485 166.382L329.669 168.462C328.819 169.45 327.779 170.204 326.549 170.724C325.318 171.244 323.949 171.504 322.441 171.504Z" fill="white"/>
<path d="M340.951 171.504C339.564 171.504 338.273 171.279 337.077 170.828C335.898 170.36 334.867 169.71 333.983 168.878C333.116 168.029 332.44 167.032 331.955 165.888C331.469 164.744 331.227 163.496 331.227 162.144C331.227 160.792 331.469 159.544 331.955 158.4C332.44 157.256 333.125 156.268 334.009 155.436C334.893 154.587 335.924 153.937 337.103 153.486C338.281 153.018 339.573 152.784 340.977 152.784C342.467 152.784 343.828 153.044 345.059 153.564C346.289 154.067 347.329 154.821 348.179 155.826L345.995 157.88C345.336 157.169 344.599 156.641 343.785 156.294C342.97 155.93 342.086 155.748 341.133 155.748C340.179 155.748 339.304 155.904 338.507 156.216C337.727 156.528 337.042 156.97 336.453 157.542C335.881 158.114 335.43 158.79 335.101 159.57C334.789 160.35 334.633 161.208 334.633 162.144C334.633 163.08 334.789 163.938 335.101 164.718C335.43 165.498 335.881 166.174 336.453 166.746C337.042 167.318 337.727 167.76 338.507 168.072C339.304 168.384 340.179 168.54 341.133 168.54C342.086 168.54 342.97 168.367 343.785 168.02C344.599 167.656 345.336 167.11 345.995 166.382L348.179 168.462C347.329 169.45 346.289 170.204 345.059 170.724C343.828 171.244 342.459 171.504 340.951 171.504Z" fill="white"/>
<path d="M351.417 171.244V153.044H354.797V171.244H351.417Z" fill="white"/>
<path d="M368.248 171.504C366.827 171.504 365.518 171.27 364.322 170.802C363.126 170.334 362.086 169.684 361.202 168.852C360.318 168.003 359.633 167.015 359.148 165.888C358.663 164.744 358.42 163.496 358.42 162.144C358.42 160.792 358.663 159.553 359.148 158.426C359.633 157.282 360.318 156.294 361.202 155.462C362.086 154.613 363.126 153.954 364.322 153.486C365.518 153.018 366.818 152.784 368.222 152.784C369.643 152.784 370.943 153.018 372.122 153.486C373.318 153.954 374.358 154.613 375.242 155.462C376.126 156.294 376.811 157.282 377.296 158.426C377.781 159.553 378.024 160.792 378.024 162.144C378.024 163.496 377.781 164.744 377.296 165.888C376.811 167.032 376.126 168.02 375.242 168.852C374.358 169.684 373.318 170.334 372.122 170.802C370.943 171.27 369.652 171.504 368.248 171.504ZM368.222 168.54C369.141 168.54 369.99 168.384 370.77 168.072C371.55 167.76 372.226 167.318 372.798 166.746C373.37 166.157 373.812 165.481 374.124 164.718C374.453 163.938 374.618 163.08 374.618 162.144C374.618 161.208 374.453 160.359 374.124 159.596C373.812 158.816 373.37 158.14 372.798 157.568C372.226 156.979 371.55 156.528 370.77 156.216C369.99 155.904 369.141 155.748 368.222 155.748C367.303 155.748 366.454 155.904 365.674 156.216C364.911 156.528 364.235 156.979 363.646 157.568C363.074 158.14 362.623 158.816 362.294 159.596C361.982 160.359 361.826 161.208 361.826 162.144C361.826 163.063 361.982 163.912 362.294 164.692C362.623 165.472 363.074 166.157 363.646 166.746C364.218 167.318 364.894 167.76 365.674 168.072C366.454 168.384 367.303 168.54 368.222 168.54ZM366.038 151.562L369.548 148H373.37L368.846 151.562H366.038Z" fill="white"/>
<path d="M381.607 171.244V153.044H384.389L395.803 167.058H394.425V153.044H397.779V171.244H394.997L383.583 157.23H384.961V171.244H381.607Z" fill="white"/>
<path d="M414.313 171.244V164.042L415.067 166.122L407.163 153.044H410.777L417.121 163.574H415.093L421.489 153.044H424.817L416.913 166.122L417.693 164.042V171.244H414.313Z" fill="white"/>
<path d="M434.216 171.244V153.044H436.998L444.954 166.33H443.498L451.324 153.044H454.106L454.132 171.244H450.934L450.908 158.062H451.584L444.928 169.164H443.42L436.66 158.062H437.44V171.244H434.216Z" fill="white"/>
<path d="M456.474 171.244L464.664 153.044H467.992L476.208 171.244H472.672L465.626 154.838H466.978L459.958 171.244H456.474ZM460.244 167.032L461.154 164.38H470.982L471.892 167.032H460.244Z" fill="white"/>
<path d="M478.523 171.244V153.044H481.305L492.719 167.058H491.341V153.044H494.695V171.244H491.913L480.499 157.23H481.877V171.244H478.523Z" fill="white"/>
<path d="M503.263 171.244V155.904H497.231V153.044H512.675V155.904H506.643V171.244H503.263Z" fill="white"/>
<path d="M518.332 160.61H527.38V163.392H518.332V160.61ZM518.592 168.41H528.862V171.244H515.212V153.044H528.498V155.878H518.592V168.41Z" fill="white"/>
<path d="M532.63 171.244V153.044H535.412L546.826 167.058H545.448V153.044H548.802V171.244H546.02L534.606 157.23H535.984V171.244H532.63Z" fill="white"/>
<path d="M553.679 171.244V153.044H557.059V171.244H553.679Z" fill="white"/>
<path d="M561.982 171.244V153.044H564.764L572.72 166.33H571.264L579.09 153.044H581.872L581.898 171.244H578.7L578.674 158.062H579.35L572.694 169.164H571.186L564.426 158.062H565.206V171.244H561.982Z" fill="white"/>
<path d="M586.814 171.244V153.044H590.194V171.244H586.814Z" fill="white"/>
<path d="M598.236 160.61H607.284V163.392H598.236V160.61ZM598.496 168.41H608.766V171.244H595.116V153.044H608.402V155.878H598.496V168.41Z" fill="white"/>
<path d="M612.534 171.244V153.044H615.316L626.73 167.058H625.352V153.044H628.706V171.244H625.924L614.51 157.23H615.888V171.244H612.534Z" fill="white"/>
<path d="M637.275 171.244V155.904H631.243V153.044H646.687V155.904H640.655V171.244H637.275Z" fill="white"/>
<path d="M657.498 171.504C656.077 171.504 654.768 171.27 653.572 170.802C652.376 170.334 651.336 169.684 650.452 168.852C649.568 168.003 648.883 167.015 648.398 165.888C647.913 164.744 647.67 163.496 647.67 162.144C647.67 160.792 647.913 159.553 648.398 158.426C648.883 157.282 649.568 156.294 650.452 155.462C651.336 154.613 652.376 153.954 653.572 153.486C654.768 153.018 656.068 152.784 657.472 152.784C658.893 152.784 660.193 153.018 661.372 153.486C662.568 153.954 663.608 154.613 664.492 155.462C665.376 156.294 666.061 157.282 666.546 158.426C667.031 159.553 667.274 160.792 667.274 162.144C667.274 163.496 667.031 164.744 666.546 165.888C666.061 167.032 665.376 168.02 664.492 168.852C663.608 169.684 662.568 170.334 661.372 170.802C660.193 171.27 658.902 171.504 657.498 171.504ZM657.472 168.54C658.391 168.54 659.24 168.384 660.02 168.072C660.8 167.76 661.476 167.318 662.048 166.746C662.62 166.157 663.062 165.481 663.374 164.718C663.703 163.938 663.868 163.08 663.868 162.144C663.868 161.208 663.703 160.359 663.374 159.596C663.062 158.816 662.62 158.14 662.048 157.568C661.476 156.979 660.8 156.528 660.02 156.216C659.24 155.904 658.391 155.748 657.472 155.748C656.553 155.748 655.704 155.904 654.924 156.216C654.161 156.528 653.485 156.979 652.896 157.568C652.324 158.14 651.873 158.816 651.544 159.596C651.232 160.359 651.076 161.208 651.076 162.144C651.076 163.063 651.232 163.912 651.544 164.692C651.873 165.472 652.324 166.157 652.896 166.746C653.468 167.318 654.144 167.76 654.924 168.072C655.704 168.384 656.553 168.54 657.472 168.54Z" fill="white"/>
<path d="M678.042 171.244V153.044H681.422V171.244H678.042Z" fill="white"/>
<path d="M686.345 171.244V153.044H689.127L700.541 167.058H699.163V153.044H702.517V171.244H699.735L688.321 157.23H689.699V171.244H686.345Z" fill="white"/>
<path d="M711.086 171.244V155.904H705.054V153.044H720.498V155.904H714.466V171.244H711.086Z" fill="white"/>
<path d="M726.154 160.61H735.202V163.392H726.154V160.61ZM726.414 168.41H736.684V171.244H723.034V153.044H736.32V155.878H726.414V168.41Z" fill="white"/>
<path d="M748.954 171.504C747.533 171.504 746.224 171.279 745.028 170.828C743.85 170.36 742.818 169.71 741.934 168.878C741.05 168.029 740.366 167.032 739.88 165.888C739.395 164.744 739.152 163.496 739.152 162.144C739.152 160.792 739.395 159.544 739.88 158.4C740.366 157.256 741.05 156.268 741.934 155.436C742.836 154.587 743.884 153.937 745.08 153.486C746.276 153.018 747.585 152.784 749.006 152.784C750.549 152.784 751.936 153.035 753.166 153.538C754.414 154.041 755.463 154.777 756.312 155.748L754.18 157.828C753.47 157.117 752.698 156.597 751.866 156.268C751.052 155.921 750.15 155.748 749.162 155.748C748.209 155.748 747.325 155.904 746.51 156.216C745.696 156.528 744.994 156.97 744.404 157.542C743.815 158.114 743.356 158.79 743.026 159.57C742.714 160.35 742.558 161.208 742.558 162.144C742.558 163.063 742.714 163.912 743.026 164.692C743.356 165.472 743.815 166.157 744.404 166.746C744.994 167.318 745.687 167.76 746.484 168.072C747.282 168.384 748.166 168.54 749.136 168.54C750.038 168.54 750.904 168.401 751.736 168.124C752.586 167.829 753.392 167.344 754.154 166.668L756.078 169.19C755.125 169.953 754.016 170.533 752.75 170.932C751.502 171.313 750.237 171.504 748.954 171.504ZM752.88 168.748V161.936H756.078V169.19L752.88 168.748Z" fill="white"/>
<path d="M760.536 171.244V153.044H768.024C769.636 153.044 771.014 153.304 772.158 153.824C773.32 154.344 774.212 155.089 774.836 156.06C775.46 157.031 775.772 158.183 775.772 159.518C775.772 160.853 775.46 162.005 774.836 162.976C774.212 163.929 773.32 164.666 772.158 165.186C771.014 165.689 769.636 165.94 768.024 165.94H762.408L763.916 164.406V171.244H760.536ZM772.444 171.244L767.842 164.64H771.456L776.084 171.244H772.444ZM763.916 164.77L762.408 163.158H767.868C769.359 163.158 770.477 162.837 771.222 162.196C771.985 161.555 772.366 160.662 772.366 159.518C772.366 158.357 771.985 157.464 771.222 156.84C770.477 156.216 769.359 155.904 767.868 155.904H762.408L763.916 154.24V164.77Z" fill="white"/>
<path d="M776.98 171.244L785.17 153.044H788.498L796.714 171.244H793.178L786.132 154.838H787.484L780.464 171.244H776.98ZM780.75 167.032L781.66 164.38H791.488L792.398 167.032H780.75Z" fill="white"/>
<path d="M799.029 171.244V153.044H802.409V168.384H811.924V171.244H799.029Z" fill="white"/>
</svg>
