<svg width="890" height="164" viewBox="0 0 890 164" fill="none" xmlns="http://www.w3.org/2000/svg">
<path d="M313.06 84.4398H297.06V42.1798L294.38 41.5298C288.51 53.0398 282.03 64.2798 277 76.1298C273.86 83.5198 269.23 86.3198 262.07 84.6098C258.75 83.8198 254.72 81.6098 253.07 78.8498C247.68 69.5798 243.33 59.7198 238.36 50.1998C236.761 47.136 234.165 44.7091 231 43.3198V84.3198H215V27.3198C224.37 27.3198 233.69 26.6998 242.84 27.7098C245.45 27.9898 248.18 32.7098 249.74 35.8998C254.36 45.1198 258.36 54.6798 263.36 66.0198C269.53 53.8898 274.98 44.0798 279.53 33.8698C281.91 28.5198 284.98 26.6598 290.71 27.0598C297.86 27.5598 305.07 27.1798 313.08 27.1798L313.06 84.4398Z" fill="white"/>
<path d="M799.8 27.1898C820.4 27.1898 840.37 26.6898 860.28 27.6098C864.34 27.7998 871.05 32.9898 871.47 36.4698C872.47 44.8398 875.59 54.5698 868.03 60.5698C869.95 68.5698 871.69 75.7698 873.68 84.0698H855.06C854.97 83.9798 854.25 83.5598 854.2 83.0698C852.98 69.8098 852.99 69.8098 839.67 69.8098H818.49C818.05 74.9098 817.66 79.3698 817.24 84.2798H799.8V27.1898ZM818.26 55.0398C829.35 55.0398 839.64 55.3398 849.88 54.7698C851.88 54.6598 855.51 50.6498 855.15 49.3398C854.36 46.4398 851.61 42.1698 849.36 41.9998C839.18 41.2198 828.91 41.6598 818.23 41.6598L818.26 55.0398Z" fill="white"/>
<path d="M621.91 49.2798V60.2798H577.69V69.9498H623.43V84.7598H561.21V27.6898H623.43V39.5498H578.07C577.67 42.9198 577.35 45.5498 576.9 49.2798H621.91Z" fill="white"/>
<path d="M402.89 84.5298C393.23 84.3498 384.12 87.9898 378.75 77.4698C377.94 75.8798 373.81 75.4698 371.2 75.3798C360.9 75.1498 350.59 75.2898 339.54 75.2898C337.54 89.8998 326.27 83.5198 316.35 85.1098C319.71 78.1098 322.44 72.1098 325.35 66.3098C328.9 59.1798 332.6 52.1198 336.19 45.0098C345.51 26.4398 345.52 26.2098 366.22 27.4398C369.51 27.6298 374.02 30.1398 375.57 32.9098C384.82 49.4398 393.36 66.3198 402.89 84.5298ZM372.42 62.0198L359.22 37.5798C354.55 47.0598 351.09 54.0598 347.16 62.0198H372.42Z" fill="white"/>
<path d="M692.25 68.3398V27.8098H709.87V84.7198C700.64 84.7198 691.35 85.0798 682.14 84.4698C679.7 84.3098 676.88 81.5398 675.24 79.2498C668.09 69.2498 661.39 58.9998 654.35 48.9598C652.46 46.2798 649.91 44.0498 646.54 40.3898V84.1098H628.91V27.2298C638.13 27.2298 647.17 26.7998 656.11 27.4998C658.77 27.6998 661.79 30.6198 663.59 33.0598C672.44 45.0598 680.93 57.3298 689.59 69.4998L692.25 68.3398Z" fill="white"/>
<path d="M754.9 84.7798C746.47 84.7798 738.04 84.7798 729.61 84.7798C722.87 84.7798 717.43 81.7298 716.88 75.2798C715.895 63.7371 715.815 52.135 716.64 40.5798C717.3 31.4798 722.77 26.6498 732.88 27.0198C747.88 27.5698 762.88 27.1398 777.88 27.1698C787.4 27.1698 794.88 34.1098 795.2 43.4998C795.47 52.1798 795.44 60.8798 795.2 69.5698C794.97 79.1898 789.2 84.5698 779.27 84.7298C771.14 84.8598 763.02 84.7798 754.9 84.7798ZM755.72 41.6298C731.95 41.6298 731.81 41.8898 732.94 62.7498C733.21 67.8598 735.02 70.1098 740.17 70.0198C747.96 69.8798 755.76 70.0198 763.56 70.0198C776.56 70.0198 776.56 70.0198 776.64 57.5498C776.7 41.6498 776.7 41.6498 760.4 41.6398L755.72 41.6298Z" fill="white"/>
<path d="M421.28 84.2898H404.91V27.2098C413.44 27.2098 422.14 26.5698 430.66 27.5398C433.9 27.8998 437.31 31.5398 439.66 34.4298C448.2 45.2498 456.31 56.4298 464.66 67.4298C465.14 68.0698 466.14 68.3198 468.04 69.4298V27.7498H484.31V84.7498C475.06 84.7498 465.5 85.1298 456.01 84.4798C453.68 84.3198 451.16 81.1198 449.47 78.7898C440.7 66.6798 432.18 54.3998 421.34 42.7898L421.28 84.2898Z" fill="white"/>
<path d="M532.22 84.7598C527.06 84.7598 523.64 84.7598 520.22 84.7598C518.38 84.7598 516.54 84.5598 513.62 84.3898V42.0298H487.84V27.6198H557.63V41.2698H532.22V84.7598Z" fill="white"/>
<path d="M62.0574 72.9651C63.5874 58.5651 74.5874 45.5851 88.2174 42.5251C101.847 39.4651 113.617 45.8251 116.287 61.0651C118.787 75.3651 111.647 91.4651 99.5674 99.0651C95.2039 101.944 90.0632 103.417 84.8374 103.285C75.2374 102.915 68.5274 98.1251 64.5174 89.5051C62.2365 84.31 61.3872 78.5992 62.0574 72.9651Z" fill="white"/>
<path d="M109.687 135.025C105.24 134.536 101.164 132.313 98.3451 128.839C95.5258 125.364 94.19 120.918 94.6274 116.465C94.9045 113.215 96.3709 110.181 98.7456 107.945C101.12 105.709 104.236 104.427 107.497 104.345C117.067 103.845 125.667 112.345 125.167 121.845C125.123 123.764 124.674 125.653 123.849 127.386C123.024 129.12 121.842 130.659 120.38 131.904C118.919 133.148 117.21 134.07 115.368 134.608C113.525 135.145 111.589 135.288 109.687 135.025Z" fill="white"/>
<path d="M124.657 149.365C122.628 149.146 120.768 148.134 119.481 146.549C118.194 144.965 117.586 142.936 117.787 140.905C117.915 139.423 118.584 138.04 119.667 137.019C120.749 135.999 122.17 135.414 123.657 135.375C124.718 135.348 125.773 135.536 126.76 135.927C127.746 136.319 128.643 136.906 129.396 137.654C130.149 138.401 130.743 139.294 131.142 140.277C131.541 141.26 131.737 142.314 131.717 143.375C131.695 144.249 131.488 145.108 131.11 145.896C130.733 146.684 130.193 147.384 129.527 147.949C128.861 148.515 128.082 148.933 127.243 149.177C126.404 149.421 125.523 149.485 124.657 149.365Z" fill="white"/>
<path d="M133.147 159.965C132.043 159.844 131.032 159.292 130.333 158.428C129.634 157.565 129.305 156.46 129.417 155.355C129.486 154.55 129.85 153.798 130.438 153.245C131.027 152.691 131.799 152.374 132.607 152.355C133.183 152.34 133.756 152.442 134.292 152.654C134.827 152.867 135.314 153.185 135.723 153.59C136.133 153.996 136.456 154.48 136.673 155.014C136.89 155.547 136.997 156.119 136.987 156.695C136.976 157.171 136.865 157.64 136.66 158.069C136.455 158.499 136.162 158.881 135.8 159.19C135.437 159.499 135.013 159.727 134.556 159.861C134.099 159.995 133.619 160.03 133.147 159.965Z" fill="white"/>
<path d="M149.707 55.1951C148.817 63.2751 143.857 68.9451 137.277 69.8551C128.527 71.0651 121.917 64.1251 123.587 55.4651C124.877 48.7651 132.107 42.4651 138.877 42.1851C145.317 41.8951 149.687 46.3251 149.777 53.2451C149.797 54.0651 149.717 54.8851 149.707 55.1951Z" fill="white"/>
<path d="M171.007 49.9651C170.477 54.7951 167.507 58.1851 163.567 58.7351C162.407 58.9502 161.211 58.8722 160.088 58.5081C158.966 58.1441 157.952 57.5055 157.138 56.6504C156.325 55.7952 155.738 54.7505 155.43 53.6111C155.123 52.4716 155.105 51.2734 155.377 50.1251C156.157 46.1251 160.477 42.3551 164.527 42.1251C168.377 41.9551 170.997 44.6051 171.057 48.7451C171.007 49.2351 171.007 49.7251 171.007 49.9651Z" fill="white"/>
<path d="M186.137 46.5751C185.867 48.9851 184.387 50.6851 182.417 50.9551C181.837 51.0647 181.239 51.0273 180.676 50.8464C180.114 50.6655 179.606 50.3468 179.199 49.9194C178.791 49.492 178.497 48.9694 178.343 48.3993C178.189 47.8292 178.18 47.2296 178.317 46.6551C178.584 45.6023 179.166 44.6557 179.984 43.9412C180.802 43.2267 181.818 42.7781 182.897 42.6551C183.338 42.6247 183.779 42.6899 184.192 42.8462C184.605 43.0025 184.979 43.2462 185.288 43.5606C185.598 43.8751 185.836 44.2527 185.986 44.6678C186.136 45.0828 186.194 45.5254 186.157 45.9651C186.157 46.2351 186.137 46.4851 186.137 46.5751Z" fill="white"/>
<path d="M59.0074 118.855C57.4474 114.575 56.7374 111.025 59.5274 108.045C62.3174 105.065 65.9874 105.045 69.5974 106.195C77.3674 108.655 82.5974 113.745 84.3074 121.815C85.7074 128.525 80.9574 133.035 74.2274 131.445C66.7974 129.695 61.9074 124.765 59.0074 118.855Z" fill="white"/>
<path d="M57.0074 139.335C56.1374 136.965 55.7474 134.995 57.2974 133.335C58.8474 131.675 60.8774 131.685 62.8774 132.335C67.1974 133.705 70.1074 136.525 71.0374 141.005C71.8174 144.725 69.1874 147.235 65.4474 146.345C63.601 145.893 61.8816 145.027 60.4194 143.813C58.9571 142.598 57.7903 141.067 57.0074 139.335Z" fill="white"/>
<path d="M55.3774 153.355C54.8874 152.025 54.6674 150.915 55.5374 149.985C55.9419 149.587 56.4566 149.32 57.0147 149.219C57.5728 149.117 58.1486 149.185 58.6674 149.415C59.8122 149.709 60.8502 150.322 61.6609 151.182C62.4716 152.042 63.0217 153.115 63.2474 154.275C63.3833 154.706 63.3957 155.167 63.2832 155.605C63.1708 156.043 62.9379 156.44 62.6111 156.752C62.2842 157.065 61.8764 157.279 61.4339 157.372C60.9914 157.464 60.5319 157.431 60.1074 157.275C59.0728 157.024 58.109 156.541 57.2894 155.862C56.4698 155.182 55.8158 154.325 55.3774 153.355Z" fill="white"/>
<path d="M57.4474 87.1151C56.8474 90.8851 56.4474 94.7051 55.5874 98.4251C55.0874 100.595 53.8674 102.715 51.3074 102.985C48.7474 103.255 47.3574 101.445 46.2574 99.5551C44.0239 95.7939 42.603 91.6066 42.0863 87.2628C41.5696 82.9191 41.9685 78.5153 43.2574 74.3351C43.3892 73.912 43.5634 73.5032 43.7774 73.1151C45.7774 69.1151 49.3974 68.5251 51.9074 72.1851C53.5953 74.9015 54.939 77.8172 55.9074 80.8651C56.4527 82.8621 56.8208 84.9034 57.0074 86.9651L57.4474 87.1151Z" fill="white"/>
<path d="M38.5574 93.9651C38.4174 96.1151 38.3774 98.2851 38.1074 100.415C38.101 101.052 37.8864 101.67 37.4964 102.173C37.1065 102.677 36.5625 103.039 35.9474 103.205C34.5774 103.475 33.6374 102.545 32.9474 101.545C31.4993 99.5495 30.4843 97.2731 29.9677 94.8622C29.4511 92.4512 29.4441 89.9589 29.9474 87.5451C29.9998 87.3012 30.0769 87.0634 30.1774 86.8351C31.0074 84.4851 33.0074 83.9651 34.6474 85.8951C35.743 87.3301 36.6566 88.8954 37.3674 90.5551C37.7798 91.6621 38.0943 92.8031 38.3074 93.9651H38.5574Z" fill="white"/>
<path d="M27.0774 99.9051C27.2274 101.025 27.4274 102.135 27.4974 103.255C27.5613 103.581 27.5155 103.918 27.3671 104.215C27.2188 104.512 26.9762 104.751 26.6774 104.895C26.3768 104.98 26.0577 104.974 25.7605 104.878C25.4633 104.782 25.2012 104.6 25.0074 104.355C24.0561 103.487 23.2976 102.428 22.7809 101.248C22.2641 100.068 22.0006 98.7932 22.0074 97.5051C21.9975 97.3753 21.9975 97.2449 22.0074 97.1151C22.2374 95.8151 23.2074 95.3451 24.2274 96.1751C24.932 96.7954 25.5568 97.5008 26.0874 98.2751C26.4246 98.8113 26.7125 99.3769 26.9474 99.9651L27.0774 99.9051Z" fill="white"/>
<path d="M106.457 38.3051C104.657 36.9251 102.837 34.9351 103.157 31.8551C103.317 30.4972 103.871 29.2158 104.751 28.1691C105.63 27.1223 106.797 26.3562 108.107 25.9651C111.637 24.6149 115.436 24.1194 119.194 24.5192C122.951 24.9189 126.561 26.2026 129.727 28.2651C133.147 30.3751 133.367 32.8851 130.937 35.6551C125.707 41.5651 113.457 43.1051 106.457 38.3051Z" fill="white"/>
<path d="M121.677 22.0951C121.045 21.6979 120.531 21.1368 120.191 20.4713C119.851 19.8058 119.698 19.0607 119.747 18.3151C119.833 17.5134 120.154 16.755 120.67 16.1357C121.186 15.5163 121.874 15.0638 122.647 14.8351C124.713 14.0451 126.936 13.7556 129.135 13.9903C131.333 14.2249 133.445 14.9771 135.297 16.1851C137.297 17.4151 137.427 18.8951 136.007 20.5051C132.947 23.9651 125.777 24.9051 121.677 22.0951Z" fill="white"/>
<path d="M133.857 11.2951C133.532 11.0961 133.267 10.8122 133.091 10.4739C132.915 10.1357 132.834 9.7558 132.857 9.37513C132.902 8.96955 133.065 8.58611 133.326 8.27297C133.588 7.95984 133.936 7.73097 134.327 7.61513C135.375 7.21465 136.503 7.06749 137.619 7.18566C138.735 7.30384 139.807 7.68399 140.747 8.29513C140.96 8.37326 141.149 8.50656 141.293 8.68137C141.438 8.85618 141.533 9.06624 141.57 9.29004C141.606 9.51384 141.583 9.74336 141.502 9.9551C141.42 10.1668 141.284 10.3532 141.107 10.4951C140.144 11.3874 138.92 11.9467 137.614 12.0908C136.309 12.2348 134.992 11.9559 133.857 11.2951Z" fill="white"/>
<path d="M92.7974 22.7251C93.3437 22.8906 93.8811 23.0841 94.4074 23.3051C96.8874 24.4451 97.4074 26.0851 96.1874 28.5051C96.0885 28.7369 95.9608 28.9553 95.8074 29.1551C89.7474 36.2751 82.2874 40.6051 72.6974 40.5551C71.6259 40.5032 70.5741 40.2487 69.5974 39.8051C69.0249 39.6179 68.4982 39.3126 68.0513 38.9088C67.6044 38.5051 67.2472 38.0119 67.0031 37.4614C66.7589 36.9108 66.6331 36.3151 66.6339 35.7128C66.6346 35.1105 66.7619 34.5151 67.0074 33.9651C67.5403 32.5537 68.3228 31.2496 69.3174 30.1151C74.0774 24.6851 85.4074 21.1051 92.7974 22.7251Z" fill="white"/>
<path d="M83.2374 11.4351C83.3974 11.4951 83.7474 11.5951 84.0774 11.7451C84.3534 11.8162 84.6075 11.9548 84.8167 12.1484C85.0259 12.342 85.1837 12.5846 85.2759 12.8543C85.3682 13.124 85.3919 13.4124 85.345 13.6936C85.2981 13.9748 85.1821 14.2399 85.0074 14.4651C84.9565 14.587 84.8892 14.7014 84.8074 14.8051C81.6374 18.5251 77.7374 20.8051 72.7174 20.8051C72.1575 20.779 71.6078 20.6466 71.0974 20.4151C70.7951 20.3202 70.5163 20.1622 70.2796 19.9516C70.0428 19.741 69.8535 19.4825 69.724 19.1933C69.5945 18.9041 69.5279 18.5907 69.5284 18.2738C69.529 17.957 69.5968 17.6438 69.7274 17.3551C70.0043 16.6197 70.4145 15.9417 70.9374 15.3551C73.4474 12.4651 79.3674 10.5951 83.2374 11.4351Z" fill="white"/>
<path d="M79.7174 5.06512C79.854 5.10165 79.9877 5.14845 80.1174 5.20512C80.2464 5.23816 80.3651 5.30287 80.4627 5.39341C80.5604 5.48394 80.6339 5.59742 80.6766 5.72355C80.7193 5.84969 80.7299 5.98449 80.7073 6.11573C80.6847 6.24697 80.6298 6.3705 80.5474 6.47512C80.5256 6.53269 80.4953 6.58663 80.4574 6.63512C79.7892 7.50106 78.9318 8.20268 77.9508 8.68626C76.9698 9.16984 75.8911 9.42258 74.7974 9.42512C74.5247 9.41801 74.2562 9.35683 74.0074 9.24512C73.8661 9.19914 73.736 9.12398 73.6256 9.02449C73.5153 8.925 73.427 8.80342 73.3667 8.66764C73.3063 8.53186 73.2752 8.3849 73.2753 8.23631C73.2754 8.08772 73.3068 7.94081 73.3674 7.80512C73.5211 7.45511 73.7381 7.13645 74.0074 6.86512C74.7668 6.16151 75.6728 5.63512 76.6602 5.32386C77.6476 5.01261 78.6917 4.92424 79.7174 5.06512Z" fill="white"/>
<path d="M263.686 135.043C265.017 135.045 266.337 134.8 267.578 134.321C268.776 133.886 269.856 133.179 270.733 132.255L271.1 131.869L270.728 131.487L269.875 130.612L269.478 130.205L269.081 130.612C268.395 131.317 267.558 131.858 266.634 132.194C264.68 132.873 262.549 132.843 260.615 132.111C259.687 131.746 258.843 131.196 258.135 130.494L258.134 130.494C257.433 129.801 256.876 128.975 256.497 128.065C255.724 126.105 255.724 123.926 256.497 121.966C256.877 121.051 257.438 120.221 258.145 119.526C258.854 118.831 259.694 118.284 260.618 117.92C261.61 117.531 262.668 117.337 263.733 117.349L263.733 117.349L263.741 117.349C264.726 117.344 265.704 117.51 266.633 117.837C267.556 118.17 268.394 118.704 269.085 119.401L269.484 119.803L269.877 119.395L270.73 118.508L271.096 118.129L270.735 117.745C269.859 116.813 268.776 116.101 267.574 115.665C266.329 115.207 265.011 114.977 263.684 114.989C262.299 114.974 260.924 115.228 259.636 115.736C258.421 116.215 257.313 116.929 256.374 117.836C255.437 118.737 254.699 119.824 254.207 121.028L254.207 121.028L254.205 121.034C253.193 123.592 253.193 126.439 254.205 128.998L254.205 128.998L254.207 129.003C254.698 130.204 255.431 131.29 256.361 132.193C257.299 133.106 258.407 133.824 259.624 134.306L259.624 134.306L259.629 134.308C260.923 134.806 262.299 135.055 263.686 135.043Z" fill="white" stroke="white" stroke-width="1.10796"/>
<path d="M277.972 134.306L277.977 134.308C279.269 134.806 280.645 135.055 282.03 135.043C283.431 135.063 284.824 134.813 286.131 134.307L286.135 134.306C287.354 133.825 288.467 133.107 289.408 132.194L289.411 132.192C290.334 131.284 291.069 130.202 291.572 129.009L291.572 129.009L291.575 129.001C292.603 126.443 292.603 123.588 291.575 121.031L291.575 121.031L291.572 121.024C291.07 119.82 290.328 118.731 289.393 117.822C288.458 116.913 287.348 116.203 286.13 115.735L286.13 115.734C283.505 114.729 280.602 114.729 277.977 115.734L277.977 115.734L277.975 115.735C276.755 116.21 275.643 116.926 274.706 117.841C273.77 118.755 273.027 119.849 272.523 121.058L272.523 121.058L272.52 121.066C271.507 123.605 271.507 126.437 272.52 128.977L272.52 128.977L272.524 128.987C273.033 130.192 273.777 131.282 274.712 132.196C275.648 133.109 276.756 133.826 277.972 134.306ZM282.038 132.683L282.031 132.683L282.023 132.683C280.944 132.699 279.872 132.506 278.867 132.112C277.946 131.745 277.109 131.195 276.406 130.495L276.406 130.495L276.401 130.491C275.695 129.804 275.138 128.978 274.767 128.065C273.979 126.105 273.978 123.916 274.767 121.956C275.141 121.048 275.697 120.226 276.401 119.541L276.401 119.541L276.404 119.538C277.11 118.842 277.947 118.292 278.866 117.92C280.877 117.152 283.1 117.152 285.111 117.921C286.034 118.281 286.875 118.825 287.583 119.519C288.29 120.212 288.85 121.041 289.23 121.956C290.018 123.916 290.017 126.105 289.229 128.065C288.857 128.975 288.307 129.801 287.612 130.496L287.611 130.497C286.911 131.199 286.074 131.749 285.152 132.112C284.161 132.502 283.103 132.696 282.038 132.683Z" fill="white" stroke="white" stroke-width="1.10796"/>
<path d="M295.526 134.356V134.91H296.08H297.388H297.942V134.356V119.752L309.682 134.698L309.849 134.91H310.118H311.226H311.78V134.356V115.676V115.122H311.226H309.863H309.309V115.676V130.291L297.625 115.335L297.458 115.122H297.188H296.08H295.526V115.676V134.356Z" fill="white" stroke="white" stroke-width="1.10796"/>
<path d="M314.898 131.672L314.673 132.038L314.971 132.347C315.829 133.238 316.885 133.915 318.052 134.323C319.385 134.813 320.795 135.057 322.215 135.043C323.591 135.069 324.958 134.801 326.223 134.256C327.222 133.838 328.076 133.137 328.682 132.239L328.682 132.239L328.688 132.23C329.212 131.418 329.493 130.472 329.496 129.506C329.539 128.561 329.283 127.628 328.762 126.838L328.758 126.832L328.754 126.825C328.271 126.136 327.622 125.58 326.867 125.209C326.129 124.819 325.351 124.512 324.545 124.293L324.544 124.293C323.72 124.07 322.882 123.857 322.043 123.667C321.285 123.489 320.541 123.257 319.817 122.971L319.817 122.971L319.809 122.968C319.263 122.762 318.77 122.436 318.368 122.013C318.02 121.581 317.843 121.035 317.873 120.481L317.874 120.464L317.874 120.448C317.871 119.894 318.034 119.352 318.342 118.892C318.707 118.372 319.219 117.972 319.812 117.744L319.812 117.744L319.816 117.742C320.69 117.4 321.625 117.239 322.564 117.271L322.564 117.271L322.577 117.271C323.408 117.279 324.233 117.402 325.03 117.636L325.03 117.636L325.035 117.638C325.874 117.877 326.669 118.251 327.387 118.747L327.93 119.12L328.205 118.522L328.714 117.414L328.912 116.984L328.519 116.722C327.695 116.171 326.784 115.761 325.825 115.508C324.788 115.191 323.709 115.031 322.625 115.033C321.258 114.987 319.898 115.236 318.636 115.763L318.635 115.763C317.635 116.182 316.78 116.883 316.174 117.781L316.168 117.789L316.163 117.798C315.65 118.62 315.379 119.57 315.381 120.54C315.341 121.488 315.591 122.426 316.098 123.229L316.103 123.236L316.108 123.244C316.582 123.942 317.226 124.508 317.978 124.889L317.98 124.89C318.75 125.277 319.56 125.581 320.395 125.796L320.396 125.796L322.878 126.428L322.878 126.428L322.887 126.43C323.615 126.603 324.327 126.834 325.017 127.122L325.026 127.126L325.035 127.129C325.585 127.337 326.082 127.664 326.49 128.088C326.842 128.518 327.021 129.063 326.993 129.619L326.992 129.636L326.992 129.652C326.998 130.193 326.833 130.721 326.52 131.163C326.144 131.678 325.622 132.068 325.022 132.283L325.022 132.283L325.015 132.286C324.106 132.626 323.139 132.783 322.17 132.75L322.159 132.749L322.147 132.749C321.009 132.756 319.88 132.54 318.824 132.114L318.824 132.114L318.814 132.11C317.905 131.762 317.075 131.234 316.376 130.556L315.88 130.076L315.519 130.664L314.898 131.672Z" fill="white" stroke="white" stroke-width="1.10796"/>
<path d="M336.809 134.356V134.91H337.363H338.726H339.28V134.356V117.459H345.451H346.005V116.905V115.676V115.122H345.451H330.638H330.084V115.676V116.905V117.459H330.638H336.809V134.356Z" fill="white" stroke="white" stroke-width="1.10796"/>
<path d="M347.9 134.356V134.901L348.445 134.91L349.807 134.932L350.37 134.941V134.378V129.079V128.827H355.15C355.676 128.84 356.202 128.813 356.721 128.745L360.978 134.679L361.143 134.91H361.428H362.99H364.069L363.44 134.033L359.187 128.104C359.257 128.076 359.326 128.048 359.395 128.019L359.395 128.019L359.4 128.017C360.566 127.508 361.555 126.664 362.239 125.59L362.239 125.59L362.241 125.586C362.916 124.503 363.261 123.247 363.234 121.971C363.273 120.669 362.928 119.384 362.242 118.276L362.238 118.269L362.234 118.263C361.543 117.212 360.553 116.391 359.392 115.907L359.39 115.906C358.047 115.351 356.602 115.084 355.149 115.122H350.37V114.829L350.102 115.122H348.454H347.9V115.676V126.511H347.891L347.9 126.52V128.818L347.891 128.827H347.9V134.356ZM355.157 126.511H350.37V126.259V117.482H355.157H355.177L355.197 117.48C356.685 117.372 358.163 117.793 359.371 118.668C359.8 119.101 360.142 119.613 360.376 120.176C360.616 120.751 360.739 121.368 360.739 121.991C360.739 122.614 360.616 123.231 360.376 123.806C360.141 124.369 359.8 124.881 359.371 125.314C358.164 126.193 356.686 126.618 355.196 126.513L355.176 126.511H355.157Z" fill="white" stroke="white" stroke-width="1.10796"/>
<path d="M368.512 132.826L368.528 132.844L368.545 132.861C369.325 133.608 370.25 134.187 371.262 134.562C372.266 134.934 373.334 135.098 374.402 135.043C375.473 135.099 376.545 134.936 377.552 134.564C378.568 134.189 379.496 133.61 380.28 132.862L380.298 132.845L380.314 132.826C381.081 131.949 381.665 130.929 382.032 129.824C382.398 128.726 382.542 127.567 382.457 126.413V115.676V115.122H381.903H380.54H379.986V115.676V126.378V126.401L379.988 126.424C380.13 128.133 379.609 129.83 378.535 131.165C377.385 132.143 375.924 132.681 374.413 132.681C372.902 132.681 371.441 132.143 370.291 131.165C369.217 129.83 368.696 128.133 368.838 126.424L368.84 126.401V126.378V115.676V115.122H368.286H366.923H366.369V115.676V126.413C366.284 127.567 366.428 128.726 366.794 129.824C367.161 130.929 367.745 131.949 368.512 132.826Z" fill="white" stroke="white" stroke-width="1.10796"/>
<path d="M391.639 134.306L391.642 134.308C392.935 134.806 394.311 135.055 395.697 135.043C397.026 135.056 398.347 134.822 399.591 134.354C400.794 133.91 401.876 133.19 402.75 132.252L403.11 131.865L402.741 131.487L401.888 130.612L401.491 130.205L401.095 130.612C400.408 131.317 399.572 131.858 398.647 132.194C396.693 132.873 394.562 132.843 392.628 132.111C391.7 131.746 390.857 131.196 390.148 130.494L390.148 130.494C389.446 129.8 388.889 128.974 388.509 128.063C387.723 126.108 387.723 123.924 388.509 121.968C388.89 121.052 389.451 120.222 390.159 119.526C390.867 118.831 391.708 118.284 392.631 117.92C393.623 117.531 394.681 117.337 395.747 117.349L395.747 117.349L395.755 117.349C396.74 117.344 397.718 117.51 398.646 117.837C399.57 118.17 400.407 118.704 401.098 119.401L401.498 119.803L401.891 119.395L402.744 118.508L403.109 118.129L402.748 117.745C401.872 116.813 400.79 116.101 399.588 115.665C398.342 115.207 397.025 114.977 395.698 114.989C394.313 114.974 392.938 115.227 391.65 115.736C390.433 116.212 389.324 116.926 388.387 117.837C387.45 118.737 386.712 119.825 386.221 121.028L386.221 121.028L386.218 121.034C385.206 123.592 385.206 126.439 386.218 128.998L386.218 128.998L386.221 129.003C386.711 130.203 387.445 131.289 388.374 132.193C389.31 133.109 390.42 133.827 391.639 134.306Z" fill="white" stroke="white" stroke-width="1.10796"/>
<path d="M409.997 134.317L409.997 134.317C408.777 133.836 407.665 133.118 406.723 132.205L406.72 132.202C405.8 131.294 405.069 130.212 404.57 129.019L404.566 129.009L404.566 129.009C403.554 126.451 403.554 123.603 404.566 121.045L404.57 121.035L404.57 121.035C405.065 119.854 405.794 118.785 406.712 117.893L409.997 134.317ZM409.997 134.317L410.002 134.319M409.997 134.317L410.002 134.319M410.002 134.319C411.284 134.81 412.646 135.055 414.019 135.043C415.344 135.074 416.663 134.86 417.911 134.412L417.911 134.412L417.917 134.41C419.117 133.962 420.198 133.243 421.074 132.308L421.437 131.922L421.067 131.543L420.214 130.667L419.819 130.262L419.422 130.665C418.732 131.367 417.895 131.908 416.971 132.25C415.017 132.928 412.887 132.899 410.953 132.166C410.024 131.805 409.181 131.255 408.475 130.551L408.475 130.551L408.47 130.546C407.763 129.859 407.207 129.033 406.836 128.121C406.048 126.164 406.048 123.978 406.836 122.021C407.207 121.109 407.763 120.283 408.47 119.596L408.47 119.596L408.473 119.593C409.183 118.892 410.028 118.341 410.957 117.975C411.949 117.587 413.007 117.393 414.072 117.404V117.404L414.08 117.404C415.064 117.4 416.042 117.566 416.971 117.892C417.893 118.23 418.731 118.765 419.426 119.458L419.825 119.856L420.216 119.45L421.07 118.564L421.436 118.183M410.002 134.319L421.436 118.183M421.436 118.183L421.073 117.799M421.436 118.183L421.073 117.799M421.073 117.799C420.195 116.871 419.114 116.159 417.914 115.721C416.669 115.262 415.35 115.033 414.023 115.044C412.638 115.029 411.264 115.283 409.975 115.792M421.073 117.799L409.975 115.792M409.975 115.792C408.759 116.268 407.649 116.982 406.712 117.893L409.975 115.792Z" fill="white" stroke="white" stroke-width="1.10796"/>
<path d="M423.939 134.356V134.91H424.493H425.845H426.399V134.356V115.676V115.122H425.845H424.493H423.939V115.676V134.356Z" fill="white" stroke="white" stroke-width="1.10796"/>
<path d="M435.856 134.306L435.861 134.308C437.154 134.806 438.529 135.055 439.915 135.043C441.3 135.059 442.675 134.813 443.969 134.319L443.971 134.318C445.194 133.845 446.309 133.132 447.251 132.22C448.193 131.308 448.942 130.217 449.455 129.011L449.455 129.011L449.46 129.001C450.488 126.443 450.488 123.588 449.46 121.031L449.46 121.031L449.455 121.021C448.949 119.828 448.21 118.746 447.284 117.84C446.349 116.922 445.237 116.206 444.015 115.735L444.014 115.734C441.39 114.729 438.486 114.729 435.862 115.734L435.862 115.734L435.86 115.735C434.632 116.211 433.513 116.93 432.571 117.85L432.57 117.851C431.64 118.764 430.904 119.855 430.407 121.059L430.407 121.059L430.404 121.066C429.392 123.605 429.392 126.437 430.404 128.977L430.404 128.977L430.408 128.985C430.908 130.184 431.643 131.27 432.569 132.181L432.571 132.182C433.515 133.1 434.632 133.822 435.856 134.306ZM439.923 132.683L439.923 132.683L439.909 132.683C438.848 132.695 437.794 132.501 436.806 132.112C435.883 131.746 435.043 131.199 434.335 130.504C433.627 129.809 433.066 128.979 432.684 128.065C431.909 126.103 431.909 123.919 432.684 121.957C433.066 121.052 433.623 120.23 434.321 119.539C435.033 118.844 435.873 118.294 436.795 117.919C438.805 117.152 441.027 117.152 443.037 117.92C443.953 118.289 444.786 118.838 445.485 119.536L445.486 119.536C446.182 120.229 446.736 121.051 447.114 121.957C447.902 123.917 447.902 126.105 447.114 128.064C446.738 128.974 446.185 129.801 445.486 130.495L445.484 130.497C444.787 131.198 443.954 131.748 443.036 132.112C442.045 132.503 440.988 132.696 439.923 132.683ZM438.039 113.725L436.891 114.701H438.398H439.838H440.023L440.171 114.59L444.359 111.443L445.686 110.446H444.026H442.098H441.895L441.739 110.578L438.039 113.725Z" fill="white" stroke="white" stroke-width="1.10796"/>
<path d="M453.388 134.356V134.91H453.942H455.327H455.881V134.356V119.737L467.633 134.698L467.8 134.91H468.069H469.177H469.731V134.356V115.676V115.122H469.177H467.814H467.26V115.676V130.394L455.487 115.334L455.32 115.122H455.05H453.942H453.388V115.676V134.356Z" fill="white" stroke="white" stroke-width="1.10796"/>
<path d="M486.384 134.356V134.91H486.938H488.289H488.843V134.356V128.112L489.01 127.841H489.013L489.011 127.838L496.296 115.965L496.813 115.122H495.823H494.405H494.095L493.933 115.386L487.652 125.623L481.371 115.386L481.209 115.122H480.899H479.403H478.413L478.931 115.966L486.384 128.095V134.356Z" fill="white" stroke="white" stroke-width="1.10796"/>
<path d="M505.518 134.356V134.91H506.072H507.346H507.9V134.356V120.495L514.689 132.164L514.85 132.439H515.168H515.833H516.153L516.313 132.163L523.101 120.432V134.356V134.91H523.655H524.996H525.55V134.356V115.676V115.122H524.996H523.888H523.568L523.408 115.398L515.544 129.002L507.659 115.398L507.499 115.122H507.18H506.072H505.518V115.676V134.356Z" fill="white" stroke="white" stroke-width="1.10796"/>
<path d="M527.606 134.124L527.244 134.91H528.109H529.528H529.884L530.032 134.585L532.267 129.658H542.445L544.69 134.585L544.838 134.91H545.194H546.657H547.521L547.16 134.124L538.573 115.444L538.425 115.122H538.07H536.707H536.352L536.204 115.444L527.606 134.124ZM541.436 127.442H533.273L537.346 118.464L541.436 127.442Z" fill="white" stroke="white" stroke-width="1.10796"/>
<path d="M549.138 134.356V134.91H549.692H551.099H551.653V134.356V119.737L563.405 134.698L563.572 134.91H563.841H564.949H565.503V134.356V115.676V115.122H564.949H563.586H563.032V115.676V130.308L551.235 115.333L551.069 115.122H550.8H549.692H549.138V115.676V134.356Z" fill="white" stroke="white" stroke-width="1.10796"/>
<path d="M574.09 134.356V134.91H574.644H576.006H576.56V134.356V117.459H582.732H583.286V116.905V115.676V115.122H582.732H567.918H567.364V115.676V116.905V117.459H567.918H574.09V134.356Z" fill="white" stroke="white" stroke-width="1.10796"/>
<path d="M587.651 132.572V126.013H597.058H597.612V125.459V124.262V123.708H597.058H587.651V117.459H598.232H598.786V116.905V115.676V115.122H598.232H585.734H585.18V115.676V134.356V134.91H585.734H598.631H599.185V134.356V133.126V132.572H598.631H587.651Z" fill="white" stroke="white" stroke-width="1.10796"/>
<path d="M601.855 134.356V134.91H602.409H603.849H604.403V134.356V119.746L616.099 134.697L616.266 134.91H616.536H617.644H618.198V134.356V115.676V115.122H617.644H616.281H615.727V115.676V130.394L603.953 115.334L603.787 115.122H603.517H602.409H601.855V115.676V134.356Z" fill="white" stroke="white" stroke-width="1.10796"/>
<path d="M622.851 134.356V134.91H623.405H624.768H625.322V134.356V115.676V115.122H624.768H623.405H622.851V115.676V134.356Z" fill="white" stroke="white" stroke-width="1.10796"/>
<path d="M629.986 134.356V134.91H630.54H631.881H632.435V134.356V120.479L639.224 132.163L639.384 132.439H639.703H640.368H640.687L640.847 132.163L647.636 120.447V134.356V134.91H648.19H649.52H650.074V134.356V115.676V115.122H649.52H648.412H648.093L647.933 115.397L640.02 129.015L632.127 115.398L631.967 115.122H631.648H630.54H629.986V115.676V134.356Z" fill="white" stroke="white" stroke-width="1.10796"/>
<path d="M654.76 134.356V134.91H655.314H656.677H657.231V134.356V115.676V115.122H656.677H655.314H654.76V115.676V134.356Z" fill="white" stroke="white" stroke-width="1.10796"/>
<path d="M664.366 132.572V126.013H673.773H674.327V125.459V124.262V123.708H673.773H664.366V117.459H675.003H675.557V116.905V115.676V115.122H675.003H662.449H661.895V115.676V134.356V134.91H662.449H675.346H675.9V134.356V133.126V132.572H675.346H664.366Z" fill="white" stroke="white" stroke-width="1.10796"/>
<path d="M678.57 134.356V134.91H679.124H680.542H681.096V134.356V119.831L692.726 134.697L692.892 134.91H693.162H694.27H694.824V134.356V115.676V115.122H694.27H692.918H692.364V115.676V130.295L680.669 115.334L680.502 115.122H680.232H679.124H678.57V115.676V134.356Z" fill="white" stroke="white" stroke-width="1.10796"/>
<path d="M703.533 134.356V134.91H704.087H705.449H706.003V134.356V117.459H712.175H712.729V116.905V115.676V115.122H712.175H697.361H696.807V115.676V116.905V117.459H697.361H703.533V134.356Z" fill="white" stroke="white" stroke-width="1.10796"/>
<path d="M718.11 134.306L718.114 134.308C719.407 134.806 720.782 135.055 722.167 135.043C723.569 135.063 724.961 134.813 726.268 134.307L726.272 134.306C727.492 133.825 728.604 133.107 729.545 132.194L729.548 132.192C730.472 131.284 731.206 130.202 731.709 129.009L731.709 129.009L731.712 129.001C732.741 126.443 732.741 123.588 731.712 121.031L731.712 121.031L731.71 121.024C731.207 119.82 730.466 118.731 729.53 117.822C728.595 116.913 727.485 116.203 726.267 115.735L726.267 115.734C723.643 114.729 720.739 114.729 718.115 115.734L718.115 115.734L718.112 115.735C716.892 116.21 715.78 116.926 714.844 117.841C713.907 118.755 713.164 119.849 712.661 121.058L712.661 121.058L712.657 121.066C711.645 123.605 711.645 126.437 712.657 128.977L712.657 128.977L712.662 128.987C713.17 130.192 713.914 131.282 714.85 132.196C715.785 133.109 716.893 133.826 718.11 134.306ZM722.176 132.683L722.168 132.683L722.16 132.683C721.081 132.699 720.009 132.506 719.004 132.112C718.083 131.745 717.246 131.195 716.543 130.495L716.543 130.495L716.538 130.491C715.832 129.804 715.275 128.978 714.904 128.065C714.116 126.105 714.116 123.916 714.904 121.956C715.278 121.048 715.835 120.226 716.539 119.541L716.539 119.541L716.541 119.538C717.247 118.842 718.084 118.292 719.003 117.92C721.014 117.152 723.238 117.152 725.249 117.921C726.172 118.281 727.012 118.825 727.72 119.519C728.428 120.212 728.988 121.041 729.367 121.956C730.155 123.916 730.155 126.105 729.367 128.065C728.994 128.975 728.445 129.801 727.749 130.496L727.748 130.497C727.048 131.199 726.211 131.749 725.289 132.112C724.298 132.502 723.241 132.696 722.176 132.683Z" fill="white" stroke="white" stroke-width="1.10796"/>
<path d="M742.921 134.356V134.91H743.475H744.804H745.358V134.356V115.676V115.122H744.804H743.475H742.921V115.676V134.356Z" fill="white" stroke="white" stroke-width="1.10796"/>
<path d="M750.056 134.356V134.91H750.61H752.017H752.571V134.356V119.752L764.312 134.698L764.478 134.91H764.747H765.855H766.409V134.356V115.676V115.122H765.855H764.393H763.839V115.676V130.281L752.154 115.334L751.988 115.122H751.718H750.61H750.056V115.676V134.356Z" fill="white" stroke="white" stroke-width="1.10796"/>
<path d="M775.018 134.356V134.91H775.572H776.935H777.489V134.356V117.459H783.66H784.214V116.905V115.676V115.122H783.66H768.836H768.282V115.676V116.905V117.459H768.836H775.018V134.356Z" fill="white" stroke="white" stroke-width="1.10796"/>
<path d="M788.569 132.572V126.013H797.986H798.54V125.459V124.262V123.708H797.986H788.569V117.459H799.15H799.704V116.905V115.676V115.122H799.15H786.652H786.098V115.676V134.356V134.91H786.652H799.548H800.102V134.356V133.126V132.572H799.548H788.569Z" fill="white" stroke="white" stroke-width="1.10796"/>
<path d="M815.26 134.382C816.362 134.02 817.376 133.436 818.243 132.669L818.65 132.714V132.289L818.82 132.128L818.65 131.896V125.093V124.539H818.096H816.788H816.234V125.093V131.216C815.684 131.623 815.073 131.945 814.424 132.171L814.421 132.172C813.476 132.506 812.481 132.678 811.479 132.683L811.478 132.683C810.411 132.69 809.353 132.496 808.358 132.111C807.422 131.746 806.57 131.196 805.853 130.492L805.851 130.49C805.142 129.803 804.582 128.977 804.205 128.064C803.418 126.108 803.418 123.923 804.205 121.967C804.582 121.054 805.142 120.229 805.851 119.541L805.851 119.541C806.572 118.84 807.424 118.289 808.359 117.92C809.354 117.536 810.411 117.342 811.478 117.349L811.478 117.349L811.488 117.349C812.497 117.336 813.501 117.498 814.456 117.827C815.39 118.16 816.239 118.698 816.939 119.401L817.343 119.808L817.735 119.39L818.588 118.481L818.948 118.098L818.584 117.718C817.697 116.796 816.608 116.092 815.403 115.664C814.136 115.202 812.796 114.973 811.448 114.989C810.042 114.971 808.646 115.225 807.336 115.736L807.335 115.736C806.114 116.214 804.998 116.927 804.052 117.835C803.109 118.735 802.364 119.821 801.862 121.025L801.862 121.025L801.859 121.034C800.847 123.592 800.847 126.439 801.859 128.998L801.859 128.998L801.862 129.007C802.362 130.207 803.103 131.293 804.039 132.195C804.984 133.108 806.1 133.825 807.323 134.306L807.323 134.306L807.329 134.308C808.638 134.807 810.029 135.056 811.43 135.043C812.734 135.036 814.029 134.813 815.26 134.382Z" fill="white" stroke="white" stroke-width="1.10796"/>
<path d="M822.782 134.356V134.9L823.327 134.91L824.634 134.932L825.198 134.941V134.378V129.039L825.253 129.097V128.827H829.977C830.524 128.841 831.069 128.811 831.609 128.738L835.86 134.678L836.026 134.91H836.311H837.873H838.952L838.323 134.033L834.06 128.09C834.118 128.067 834.176 128.043 834.233 128.019L834.233 128.019L834.242 128.015C835.402 127.501 836.387 126.659 837.075 125.593L837.075 125.593L837.081 125.584C837.75 124.499 838.094 123.245 838.072 121.971C838.106 120.67 837.762 119.388 837.082 118.278L837.077 118.269L837.071 118.26C836.376 117.216 835.389 116.398 834.233 115.908L834.233 115.908L834.228 115.906C832.881 115.351 831.433 115.084 829.977 115.122H825.253V114.81L824.972 115.122H823.336H822.782V115.676V128.788L822.746 128.827H822.782V134.356ZM830.04 126.511H825.253V117.482H830.04H830.06L830.08 117.48C831.568 117.371 833.047 117.792 834.254 118.668C834.683 119.101 835.024 119.613 835.259 120.176C835.498 120.751 835.622 121.368 835.622 121.991C835.622 122.614 835.498 123.231 835.259 123.806C835.024 124.369 834.683 124.881 834.253 125.314C833.048 126.195 831.569 126.619 830.079 126.513L830.059 126.511H830.04Z" fill="white" stroke="white" stroke-width="1.10796"/>
<path d="M839.486 134.124L839.124 134.91H839.989H841.452H841.809L841.956 134.585L844.191 129.658H854.325L856.57 134.585L856.717 134.91H857.074H858.536H859.401L859.04 134.124L850.453 115.444L850.305 115.122H849.95H848.587H848.232L848.084 115.444L839.486 134.124ZM853.315 127.442H845.197L849.248 118.513L853.315 127.442Z" fill="white" stroke="white" stroke-width="1.10796"/>
<path d="M861.018 134.356V134.91H861.572H873.682H874.236V134.356V133.126V132.572H873.682H863.478V115.676V115.122H862.924H861.572H861.018V115.676V134.356Z" fill="white" stroke="white" stroke-width="1.10796"/>
</svg>
