<svg width="890" height="172" viewBox="0 0 890 172" fill="none" xmlns="http://www.w3.org/2000/svg">
<path d="M251.06 135.44H235.06V93.1798L232.38 92.5298C226.51 104.04 220.03 115.28 215 127.13C211.86 134.52 207.23 137.32 200.07 135.61C196.75 134.82 192.72 132.61 191.07 129.85C185.68 120.58 181.33 110.72 176.36 101.2C174.761 98.136 172.165 95.7091 169 94.3198V135.32H153V78.3198C162.37 78.3198 171.69 77.6998 180.84 78.7098C183.45 78.9898 186.18 83.7098 187.74 86.8998C192.36 96.1198 196.36 105.68 201.36 117.02C207.53 104.89 212.98 95.0798 217.53 84.8698C219.91 79.5198 222.98 77.6598 228.71 78.0598C235.86 78.5598 243.07 78.1798 251.08 78.1798L251.06 135.44Z" fill="white"/>
<path d="M737.8 78.1898C758.4 78.1898 778.37 77.6898 798.28 78.6098C802.34 78.7998 809.05 83.9898 809.47 87.4698C810.47 95.8398 813.59 105.57 806.03 111.57C807.95 119.57 809.69 126.77 811.68 135.07H793.06C792.97 134.98 792.25 134.56 792.2 134.07C790.98 120.81 790.99 120.81 777.67 120.81H756.49C756.05 125.91 755.66 130.37 755.24 135.28H737.8V78.1898ZM756.26 106.04C767.35 106.04 777.64 106.34 787.88 105.77C789.88 105.66 793.51 101.65 793.15 100.34C792.36 97.4398 789.61 93.1698 787.36 92.9998C777.18 92.2198 766.91 92.6598 756.23 92.6598L756.26 106.04Z" fill="white"/>
<path d="M559.91 100.28V111.28H515.69V120.95H561.43V135.76H499.21V78.6898H561.43V90.5498H516.07C515.67 93.9198 515.35 96.5498 514.9 100.28H559.91Z" fill="white"/>
<path d="M340.89 135.53C331.23 135.35 322.12 138.99 316.75 128.47C315.94 126.88 311.81 126.47 309.2 126.38C298.9 126.15 288.59 126.29 277.54 126.29C275.54 140.9 264.27 134.52 254.35 136.11C257.71 129.11 260.44 123.11 263.35 117.31C266.9 110.18 270.6 103.12 274.19 96.0098C283.51 77.4398 283.52 77.2098 304.22 78.4398C307.51 78.6298 312.02 81.1398 313.57 83.9098C322.82 100.44 331.36 117.32 340.89 135.53ZM310.42 113.02L297.22 88.5798C292.55 98.0598 289.09 105.06 285.16 113.02H310.42Z" fill="white"/>
<path d="M630.25 119.34V78.8098H647.87V135.72C638.64 135.72 629.35 136.08 620.14 135.47C617.7 135.31 614.88 132.54 613.24 130.25C606.09 120.25 599.39 110 592.35 99.9598C590.46 97.2798 587.91 95.0498 584.54 91.3898V135.11H566.91V78.2298C576.13 78.2298 585.17 77.7998 594.11 78.4998C596.77 78.6998 599.79 81.6198 601.59 84.0598C610.44 96.0598 618.93 108.33 627.59 120.5L630.25 119.34Z" fill="white"/>
<path d="M692.9 135.78C684.47 135.78 676.04 135.78 667.61 135.78C660.87 135.78 655.43 132.73 654.88 126.28C653.895 114.737 653.815 103.135 654.64 91.5798C655.3 82.4798 660.77 77.6498 670.88 78.0198C685.88 78.5698 700.88 78.1398 715.88 78.1698C725.4 78.1698 732.88 85.1098 733.2 94.4998C733.47 103.18 733.44 111.88 733.2 120.57C732.97 130.19 727.2 135.57 717.27 135.73C709.14 135.86 701.02 135.78 692.9 135.78ZM693.72 92.6298C669.95 92.6298 669.81 92.8898 670.94 113.75C671.21 118.86 673.02 121.11 678.17 121.02C685.96 120.88 693.76 121.02 701.56 121.02C714.56 121.02 714.56 121.02 714.64 108.55C714.7 92.6498 714.7 92.6498 698.4 92.6398L693.72 92.6298Z" fill="white"/>
<path d="M359.28 135.29H342.91V78.2098C351.44 78.2098 360.14 77.5698 368.66 78.5398C371.9 78.8998 375.31 82.5398 377.66 85.4298C386.2 96.2498 394.31 107.43 402.66 118.43C403.14 119.07 404.14 119.32 406.04 120.43V78.7498H422.31V135.75C413.06 135.75 403.5 136.13 394.01 135.48C391.68 135.32 389.16 132.12 387.47 129.79C378.7 117.68 370.18 105.4 359.34 93.7898L359.28 135.29Z" fill="white"/>
<path d="M470.22 135.76C465.06 135.76 461.64 135.76 458.22 135.76C456.38 135.76 454.54 135.56 451.62 135.39V93.0298H425.84V78.6198H495.63V92.2698H470.22V135.76Z" fill="white"/>
<path d="M62.0574 72.9651C63.5874 58.5651 74.5874 45.5851 88.2174 42.5251C101.847 39.4651 113.617 45.8251 116.287 61.0651C118.787 75.3651 111.647 91.4651 99.5674 99.0651C95.2039 101.944 90.0632 103.417 84.8374 103.285C75.2374 102.915 68.5274 98.1251 64.5174 89.5051C62.2365 84.31 61.3872 78.5992 62.0574 72.9651Z" fill="white"/>
<path d="M109.687 135.025C105.24 134.536 101.164 132.313 98.3451 128.839C95.5258 125.364 94.19 120.918 94.6274 116.465C94.9045 113.215 96.3709 110.181 98.7456 107.945C101.12 105.709 104.236 104.427 107.497 104.345C117.067 103.845 125.667 112.345 125.167 121.845C125.123 123.764 124.674 125.653 123.849 127.386C123.024 129.12 121.842 130.659 120.38 131.904C118.919 133.148 117.21 134.07 115.368 134.608C113.525 135.145 111.589 135.288 109.687 135.025Z" fill="white"/>
<path d="M124.657 149.365C122.628 149.146 120.768 148.134 119.481 146.549C118.194 144.965 117.586 142.936 117.787 140.905C117.915 139.423 118.584 138.04 119.667 137.019C120.749 135.999 122.17 135.414 123.657 135.375C124.718 135.348 125.773 135.536 126.76 135.928C127.746 136.319 128.643 136.906 129.396 137.654C130.149 138.402 130.743 139.294 131.142 140.277C131.541 141.26 131.737 142.314 131.717 143.375C131.695 144.249 131.488 145.108 131.11 145.896C130.733 146.684 130.193 147.384 129.527 147.949C128.861 148.515 128.082 148.933 127.243 149.177C126.404 149.421 125.523 149.485 124.657 149.365Z" fill="white"/>
<path d="M133.147 159.965C132.043 159.844 131.032 159.292 130.333 158.428C129.634 157.565 129.305 156.46 129.417 155.355C129.486 154.55 129.85 153.798 130.438 153.245C131.027 152.691 131.799 152.374 132.607 152.355C133.183 152.34 133.756 152.442 134.292 152.654C134.827 152.867 135.314 153.185 135.723 153.59C136.133 153.996 136.456 154.48 136.673 155.014C136.89 155.547 136.997 156.119 136.987 156.695C136.976 157.171 136.865 157.639 136.66 158.069C136.455 158.499 136.162 158.881 135.8 159.19C135.437 159.499 135.013 159.727 134.556 159.861C134.099 159.995 133.619 160.03 133.147 159.965Z" fill="white"/>
<path d="M149.707 55.1951C148.817 63.2751 143.857 68.9451 137.277 69.8551C128.527 71.0651 121.917 64.1251 123.587 55.4651C124.877 48.7651 132.107 42.4651 138.877 42.1851C145.317 41.8951 149.687 46.3251 149.777 53.2451C149.797 54.0651 149.717 54.8851 149.707 55.1951Z" fill="white"/>
<path d="M171.007 49.9652C170.477 54.7952 167.507 58.1852 163.567 58.7352C162.407 58.9502 161.211 58.8722 160.088 58.5081C158.966 58.1441 157.952 57.5055 157.138 56.6504C156.325 55.7952 155.738 54.7506 155.43 53.6111C155.123 52.4716 155.105 51.2734 155.377 50.1252C156.157 46.1252 160.477 42.3552 164.527 42.1252C168.377 41.9552 170.997 44.6052 171.057 48.7452C171.007 49.2352 171.007 49.7252 171.007 49.9652Z" fill="white"/>
<path d="M186.137 46.5751C185.867 48.9851 184.387 50.6851 182.417 50.9551C181.837 51.0646 181.239 51.0273 180.676 50.8464C180.114 50.6655 179.606 50.3468 179.199 49.9194C178.791 49.492 178.497 48.9694 178.343 48.3993C178.189 47.8291 178.18 47.2295 178.317 46.6551C178.584 45.6023 179.166 44.6557 179.984 43.9411C180.802 43.2266 181.818 42.7781 182.897 42.6551C183.338 42.6247 183.779 42.6899 184.192 42.8462C184.605 43.0025 184.979 43.2462 185.288 43.5606C185.598 43.875 185.836 44.2527 185.986 44.6677C186.136 45.0828 186.194 45.5254 186.157 45.9651C186.157 46.2351 186.137 46.4851 186.137 46.5751Z" fill="white"/>
<path d="M59.0074 118.855C57.4474 114.575 56.7374 111.025 59.5274 108.045C62.3174 105.065 65.9874 105.045 69.5974 106.195C77.3674 108.655 82.5974 113.745 84.3074 121.815C85.7074 128.525 80.9574 133.035 74.2274 131.445C66.7974 129.695 61.9074 124.765 59.0074 118.855Z" fill="white"/>
<path d="M57.0074 139.335C56.1374 136.965 55.7474 134.995 57.2974 133.335C58.8474 131.675 60.8774 131.685 62.8774 132.335C67.1974 133.705 70.1074 136.525 71.0374 141.005C71.8174 144.725 69.1874 147.235 65.4474 146.345C63.601 145.893 61.8816 145.027 60.4194 143.813C58.9571 142.598 57.7903 141.067 57.0074 139.335Z" fill="white"/>
<path d="M55.3774 153.355C54.8874 152.025 54.6674 150.915 55.5374 149.985C55.9419 149.587 56.4566 149.32 57.0147 149.219C57.5728 149.117 58.1486 149.185 58.6674 149.415C59.8122 149.709 60.8502 150.322 61.6609 151.182C62.4716 152.042 63.0217 153.115 63.2474 154.275C63.3833 154.706 63.3957 155.167 63.2832 155.605C63.1708 156.043 62.9379 156.44 62.6111 156.752C62.2842 157.065 61.8764 157.279 61.4339 157.372C60.9914 157.464 60.5319 157.431 60.1074 157.275C59.0728 157.024 58.109 156.541 57.2894 155.862C56.4698 155.182 55.8158 154.325 55.3774 153.355Z" fill="white"/>
<path d="M57.4474 87.1151C56.8474 90.8851 56.4474 94.7051 55.5874 98.4251C55.0874 100.595 53.8674 102.715 51.3074 102.985C48.7474 103.255 47.3574 101.445 46.2574 99.5551C44.0239 95.7939 42.603 91.6065 42.0863 87.2628C41.5696 82.9191 41.9685 78.5152 43.2574 74.3351C43.3892 73.9119 43.5634 73.5032 43.7774 73.1151C45.7774 69.1151 49.3974 68.5251 51.9074 72.1851C53.5953 74.9014 54.939 77.8171 55.9074 80.8651C56.4527 82.8621 56.8208 84.9033 57.0074 86.9651L57.4474 87.1151Z" fill="white"/>
<path d="M38.5574 93.9651C38.4174 96.1151 38.3774 98.2851 38.1074 100.415C38.101 101.052 37.8864 101.669 37.4964 102.173C37.1065 102.677 36.5625 103.039 35.9474 103.205C34.5774 103.475 33.6374 102.545 32.9474 101.545C31.4993 99.5494 30.4843 97.2731 29.9677 94.8621C29.4511 92.4512 29.4441 89.9588 29.9474 87.5451C29.9998 87.3012 30.0769 87.0633 30.1774 86.8351C31.0074 84.4851 33.0074 83.9651 34.6474 85.8951C35.743 87.3301 36.6566 88.8954 37.3674 90.5551C37.7798 91.6621 38.0943 92.8031 38.3074 93.9651H38.5574Z" fill="white"/>
<path d="M27.0774 99.9051C27.2274 101.025 27.4274 102.135 27.4974 103.255C27.5613 103.581 27.5155 103.918 27.3671 104.215C27.2188 104.512 26.9762 104.751 26.6774 104.895C26.3768 104.98 26.0577 104.974 25.7605 104.878C25.4633 104.782 25.2012 104.6 25.0074 104.355C24.0561 103.487 23.2976 102.428 22.7809 101.248C22.2641 100.068 22.0006 98.7932 22.0074 97.5051C21.9975 97.3753 21.9975 97.2449 22.0074 97.1151C22.2374 95.8151 23.2074 95.3451 24.2274 96.1751C24.932 96.7953 25.5568 97.5007 26.0874 98.2751C26.4246 98.8112 26.7125 99.3769 26.9474 99.9651L27.0774 99.9051Z" fill="white"/>
<path d="M106.457 38.3051C104.657 36.9251 102.837 34.9351 103.157 31.8551C103.317 30.4972 103.871 29.2158 104.751 28.1691C105.63 27.1224 106.797 26.3562 108.107 25.9651C111.637 24.6149 115.436 24.1195 119.194 24.5192C122.951 24.919 126.561 26.2026 129.727 28.2651C133.147 30.3751 133.367 32.8851 130.937 35.6551C125.707 41.5651 113.457 43.1051 106.457 38.3051Z" fill="white"/>
<path d="M121.677 22.0952C121.045 21.6979 120.531 21.1368 120.191 20.4713C119.851 19.8058 119.698 19.0607 119.747 18.3152C119.833 17.5135 120.154 16.7551 120.67 16.1357C121.186 15.5164 121.874 15.0638 122.647 14.8352C124.713 14.0452 126.936 13.7557 129.135 13.9903C131.333 14.225 133.445 14.9771 135.297 16.1852C137.297 17.4152 137.427 18.8952 136.007 20.5052C132.947 23.9652 125.777 24.9052 121.677 22.0952Z" fill="white"/>
<path d="M133.857 11.2951C133.532 11.0961 133.267 10.8122 133.091 10.4739C132.915 10.1357 132.834 9.7558 132.857 9.37513C132.902 8.96955 133.065 8.58611 133.326 8.27297C133.588 7.95984 133.936 7.73097 134.327 7.61513C135.375 7.21465 136.503 7.06749 137.619 7.18566C138.735 7.30384 139.807 7.68399 140.747 8.29513C140.96 8.37326 141.149 8.50656 141.293 8.68137C141.438 8.85618 141.533 9.06624 141.57 9.29004C141.606 9.51384 141.583 9.74336 141.502 9.9551C141.42 10.1668 141.284 10.3532 141.107 10.4951C140.144 11.3874 138.92 11.9467 137.614 12.0908C136.309 12.2348 134.992 11.9559 133.857 11.2951Z" fill="white"/>
<path d="M92.7974 22.7251C93.3437 22.8906 93.8811 23.0841 94.4074 23.3051C96.8874 24.4451 97.4074 26.0851 96.1874 28.5051C96.0885 28.7369 95.9608 28.9553 95.8074 29.1551C89.7474 36.2751 82.2874 40.6051 72.6974 40.5551C71.6259 40.5032 70.5741 40.2487 69.5974 39.8051C69.0249 39.6179 68.4982 39.3126 68.0513 38.9088C67.6044 38.5051 67.2472 38.0119 67.0031 37.4614C66.7589 36.9108 66.6331 36.3151 66.6339 35.7128C66.6346 35.1105 66.7619 34.5151 67.0074 33.9651C67.5403 32.5537 68.3228 31.2496 69.3174 30.1151C74.0774 24.6851 85.4074 21.1051 92.7974 22.7251Z" fill="white"/>
<path d="M83.2374 11.4351C83.3974 11.4951 83.7474 11.5951 84.0774 11.7451C84.3534 11.8162 84.6075 11.9548 84.8167 12.1484C85.0259 12.342 85.1837 12.5846 85.2759 12.8543C85.3682 13.124 85.3919 13.4124 85.345 13.6936C85.2981 13.9748 85.1821 14.2399 85.0074 14.4651C84.9565 14.587 84.8892 14.7014 84.8074 14.8051C81.6374 18.5251 77.7374 20.8051 72.7174 20.8051C72.1575 20.779 71.6078 20.6466 71.0974 20.4151C70.7951 20.3202 70.5163 20.1622 70.2796 19.9516C70.0428 19.741 69.8535 19.4825 69.724 19.1933C69.5945 18.9041 69.5279 18.5907 69.5284 18.2738C69.529 17.957 69.5968 17.6438 69.7274 17.3551C70.0043 16.6197 70.4145 15.9417 70.9374 15.3551C73.4474 12.4651 79.3674 10.5951 83.2374 11.4351Z" fill="white"/>
<path d="M79.7174 5.06512C79.854 5.10165 79.9877 5.14845 80.1174 5.20512C80.2464 5.23816 80.3651 5.30287 80.4627 5.39341C80.5604 5.48394 80.6339 5.59742 80.6766 5.72355C80.7193 5.84969 80.7299 5.98449 80.7073 6.11573C80.6847 6.24697 80.6298 6.3705 80.5474 6.47512C80.5256 6.53269 80.4953 6.58663 80.4574 6.63512C79.7892 7.50106 78.9318 8.20268 77.9508 8.68626C76.9698 9.16984 75.8911 9.42258 74.7974 9.42512C74.5247 9.41801 74.2562 9.35683 74.0074 9.24512C73.8661 9.19914 73.736 9.12398 73.6256 9.02449C73.5153 8.925 73.427 8.80342 73.3667 8.66764C73.3063 8.53186 73.2752 8.3849 73.2753 8.23631C73.2754 8.08772 73.3068 7.94081 73.3674 7.80512C73.5211 7.45511 73.7381 7.13645 74.0074 6.86512C74.7668 6.16151 75.6728 5.63512 76.6602 5.32386C77.6476 5.01261 78.6917 4.92424 79.7174 5.06512Z" fill="white"/>
<path d="M200.686 171.043C202.017 171.045 203.337 170.8 204.578 170.321C205.776 169.886 206.856 169.179 207.733 168.255L208.1 167.869L207.728 167.487L206.875 166.612L206.478 166.205L206.081 166.612C205.395 167.317 204.558 167.858 203.634 168.194C201.68 168.873 199.549 168.843 197.615 168.111C196.687 167.746 195.843 167.196 195.135 166.494L195.134 166.494C194.433 165.801 193.876 164.975 193.497 164.065C192.724 162.105 192.724 159.926 193.497 157.966C193.877 157.051 194.438 156.221 195.145 155.526C195.854 154.831 196.694 154.284 197.618 153.92C198.61 153.531 199.668 153.337 200.733 153.349L200.733 153.349L200.741 153.349C201.726 153.344 202.704 153.51 203.633 153.837C204.556 154.17 205.394 154.704 206.085 155.401L206.484 155.803L206.877 155.395L207.73 154.508L208.096 154.129L207.735 153.745C206.859 152.813 205.776 152.101 204.574 151.665C203.329 151.207 202.011 150.977 200.684 150.989C199.299 150.974 197.924 151.228 196.636 151.736C195.421 152.215 194.313 152.929 193.374 153.836C192.437 154.737 191.699 155.824 191.207 157.028L191.207 157.028L191.205 157.034C190.193 159.592 190.193 162.439 191.205 164.998L191.205 164.998L191.207 165.003C191.698 166.204 192.431 167.29 193.361 168.193C194.299 169.106 195.407 169.824 196.624 170.306L196.624 170.306L196.629 170.308C197.923 170.806 199.299 171.055 200.686 171.043Z" fill="white" stroke="white" stroke-width="1.10796"/>
<path d="M214.972 170.306L214.977 170.308C216.269 170.806 217.645 171.055 219.03 171.043C220.431 171.063 221.824 170.813 223.131 170.307L223.135 170.306C224.354 169.825 225.467 169.107 226.408 168.194L226.411 168.192C227.334 167.284 228.069 166.202 228.572 165.009L228.572 165.009L228.575 165.001C229.603 162.444 229.603 159.588 228.575 157.031L228.575 157.031L228.572 157.024C228.07 155.82 227.328 154.731 226.393 153.822C225.458 152.913 224.348 152.203 223.13 151.735L223.13 151.734C220.505 150.729 217.602 150.729 214.977 151.734L214.977 151.734L214.975 151.735C213.755 152.21 212.643 152.926 211.706 153.841C210.77 154.755 210.027 155.849 209.523 157.058L209.523 157.058L209.52 157.066C208.507 159.606 208.507 162.437 209.52 164.977L209.52 164.977L209.524 164.987C210.033 166.192 210.777 167.282 211.712 168.196C212.648 169.109 213.756 169.827 214.972 170.306ZM219.038 168.683L219.031 168.683L219.023 168.683C217.944 168.699 216.872 168.506 215.867 168.112C214.946 167.745 214.109 167.195 213.406 166.495L213.406 166.495L213.401 166.491C212.695 165.804 212.138 164.978 211.767 164.065C210.979 162.105 210.978 159.916 211.767 157.956C212.141 157.048 212.697 156.226 213.401 155.541L213.401 155.541L213.404 155.538C214.11 154.842 214.947 154.292 215.866 153.92C217.877 153.152 220.1 153.152 222.111 153.921C223.034 154.282 223.875 154.825 224.583 155.519C225.29 156.212 225.85 157.041 226.23 157.956C227.018 159.916 227.017 162.105 226.229 164.065C225.857 164.975 225.307 165.801 224.612 166.496L224.611 166.497C223.911 167.199 223.074 167.749 222.152 168.112C221.161 168.503 220.103 168.696 219.038 168.683Z" fill="white" stroke="white" stroke-width="1.10796"/>
<path d="M232.526 170.356V170.91H233.08H234.388H234.942V170.356V155.752L246.682 170.698L246.849 170.91H247.118H248.226H248.78V170.356V151.676V151.122H248.226H246.863H246.309V151.676V166.291L234.625 151.334L234.458 151.122H234.188H233.08H232.526V151.676V170.356Z" fill="white" stroke="white" stroke-width="1.10796"/>
<path d="M251.898 167.672L251.673 168.038L251.971 168.347C252.829 169.238 253.885 169.915 255.052 170.323C256.385 170.813 257.795 171.057 259.215 171.043C260.591 171.069 261.958 170.801 263.223 170.256C264.222 169.838 265.076 169.137 265.682 168.239L265.682 168.239L265.688 168.23C266.212 167.418 266.493 166.472 266.496 165.505C266.539 164.561 266.283 163.628 265.762 162.838L265.758 162.832L265.754 162.825C265.271 162.136 264.622 161.58 263.867 161.209C263.129 160.819 262.35 160.512 261.545 160.293L261.544 160.293C260.72 160.07 259.882 159.857 259.042 159.667C258.285 159.489 257.541 159.257 256.817 158.971L256.817 158.971L256.809 158.968C256.263 158.762 255.77 158.436 255.368 158.013C255.02 157.581 254.843 157.035 254.873 156.481L254.874 156.464L254.874 156.448C254.871 155.894 255.034 155.352 255.342 154.892C255.707 154.372 256.219 153.972 256.812 153.744L256.812 153.744L256.816 153.742C257.69 153.4 258.625 153.239 259.564 153.271L259.564 153.271L259.577 153.271C260.408 153.279 261.233 153.402 262.03 153.636L262.03 153.636L262.035 153.638C262.874 153.877 263.669 154.251 264.387 154.747L264.93 155.12L265.205 154.522L265.714 153.414L265.912 152.984L265.519 152.722C264.694 152.171 263.784 151.761 262.825 151.508C261.788 151.191 260.709 151.031 259.625 151.033C258.258 150.987 256.898 151.236 255.635 151.763L255.635 151.763C254.635 152.181 253.78 152.883 253.174 153.781L253.168 153.789L253.163 153.797C252.649 154.62 252.378 155.57 252.381 156.54C252.341 157.488 252.591 158.426 253.098 159.229L253.103 159.236L253.108 159.244C253.582 159.942 254.226 160.508 254.978 160.889L254.98 160.89C255.75 161.277 256.56 161.581 257.395 161.796L257.396 161.796L259.878 162.428L259.878 162.428L259.887 162.43C260.615 162.603 261.327 162.834 262.017 163.122L262.026 163.126L262.035 163.129C262.585 163.337 263.082 163.664 263.49 164.088C263.842 164.518 264.021 165.063 263.993 165.619L263.992 165.636L263.992 165.652C263.998 166.193 263.833 166.721 263.52 167.163C263.144 167.678 262.622 168.068 262.022 168.283L262.022 168.283L262.015 168.286C261.106 168.626 260.139 168.783 259.17 168.75L259.158 168.749L259.147 168.749C258.009 168.756 256.879 168.54 255.824 168.114L255.824 168.114L255.814 168.11C254.905 167.762 254.075 167.234 253.376 166.556L252.88 166.076L252.519 166.664L251.898 167.672Z" fill="white" stroke="white" stroke-width="1.10796"/>
<path d="M273.809 170.356V170.91H274.363H275.726H276.28V170.356V153.459H282.451H283.005V152.905V151.676V151.122H282.451H267.638H267.084V151.676V152.905V153.459H267.638H273.809V170.356Z" fill="white" stroke="white" stroke-width="1.10796"/>
<path d="M284.9 170.356V170.901L285.445 170.91L286.807 170.932L287.37 170.941V170.378V165.079V164.827H292.15C292.676 164.84 293.202 164.813 293.721 164.745L297.978 170.679L298.143 170.91H298.428H299.99H301.069L300.44 170.033L296.187 164.104C296.257 164.076 296.326 164.048 296.395 164.019L296.395 164.019L296.4 164.017C297.566 163.508 298.555 162.664 299.238 161.59L299.239 161.59L299.241 161.586C299.916 160.503 300.261 159.247 300.234 157.971C300.273 156.669 299.928 155.384 299.242 154.276L299.238 154.269L299.234 154.263C298.543 153.212 297.553 152.391 296.392 151.907L296.39 151.906C295.047 151.351 293.602 151.084 292.149 151.122H287.37V150.829L287.102 151.122H285.454H284.9V151.676V162.511H284.891L284.9 162.52V164.818L284.891 164.827H284.9V170.356ZM292.157 162.511H287.37V162.259V153.482H292.157H292.177L292.197 153.48C293.685 153.372 295.163 153.793 296.371 154.668C296.8 155.101 297.142 155.613 297.376 156.176C297.616 156.751 297.739 157.368 297.739 157.991C297.739 158.614 297.616 159.231 297.376 159.806C297.141 160.369 296.8 160.881 296.371 161.314C295.164 162.193 293.686 162.618 292.196 162.513L292.176 162.511H292.157Z" fill="white" stroke="white" stroke-width="1.10796"/>
<path d="M305.512 168.826L305.528 168.844L305.545 168.861C306.325 169.608 307.25 170.187 308.262 170.562C309.266 170.934 310.334 171.098 311.402 171.043C312.473 171.099 313.545 170.936 314.552 170.564C315.568 170.189 316.497 169.61 317.28 168.862L317.298 168.845L317.315 168.826C318.081 167.949 318.665 166.929 319.032 165.824C319.398 164.726 319.542 163.567 319.457 162.413V151.676V151.122H318.903H317.54H316.986V151.676V162.378V162.401L316.988 162.424C317.13 164.133 316.609 165.83 315.535 167.165C314.385 168.143 312.924 168.681 311.413 168.681C309.902 168.681 308.441 168.143 307.291 167.165C306.217 165.83 305.696 164.133 305.838 162.424L305.84 162.401V162.378V151.676V151.122H305.286H303.923H303.369V151.676V162.413C303.284 163.567 303.428 164.726 303.794 165.824C304.161 166.929 304.745 167.949 305.512 168.826Z" fill="white" stroke="white" stroke-width="1.10796"/>
<path d="M328.639 170.306L328.642 170.308C329.935 170.806 331.311 171.055 332.697 171.043C334.026 171.056 335.347 170.822 336.591 170.354C337.794 169.91 338.876 169.19 339.75 168.252L340.11 167.865L339.741 167.487L338.888 166.612L338.491 166.205L338.095 166.612C337.408 167.317 336.572 167.858 335.647 168.194C333.693 168.873 331.562 168.843 329.628 168.111C328.7 167.746 327.856 167.196 327.148 166.494L327.148 166.494C326.446 165.8 325.889 164.974 325.509 164.063C324.723 162.108 324.723 159.924 325.509 157.968C325.89 157.052 326.451 156.222 327.159 155.526C327.867 154.831 328.708 154.284 329.631 153.92C330.623 153.531 331.681 153.337 332.747 153.349L332.747 153.349L332.755 153.349C333.74 153.344 334.718 153.51 335.646 153.837C336.57 154.17 337.407 154.704 338.098 155.401L338.498 155.803L338.891 155.395L339.744 154.508L340.109 154.129L339.748 153.745C338.872 152.813 337.79 152.101 336.588 151.665C335.342 151.207 334.024 150.977 332.698 150.989C331.313 150.974 329.938 151.227 328.65 151.736C327.433 152.212 326.324 152.926 325.387 153.837C324.45 154.737 323.712 155.825 323.221 157.028L323.221 157.028L323.218 157.034C322.206 159.592 322.206 162.439 323.218 164.998L323.218 164.998L323.221 165.003C323.711 166.203 324.445 167.289 325.374 168.193C326.31 169.109 327.42 169.827 328.639 170.306Z" fill="white" stroke="white" stroke-width="1.10796"/>
<path d="M346.997 170.317L346.997 170.317C345.777 169.836 344.665 169.118 343.723 168.205L343.72 168.202C342.8 167.294 342.069 166.212 341.57 165.019L341.566 165.009L341.566 165.009C340.554 162.451 340.554 159.603 341.566 157.045L341.57 157.035L341.57 157.035C342.065 155.854 342.794 154.785 343.712 153.893L346.997 170.317ZM346.997 170.317L347.002 170.319M346.997 170.317L347.002 170.319M347.002 170.319C348.284 170.81 349.646 171.055 351.019 171.043C352.344 171.074 353.663 170.86 354.911 170.412L354.911 170.412L354.917 170.41C356.117 169.962 357.198 169.243 358.074 168.308L358.437 167.922L358.067 167.543L357.214 166.667L356.819 166.262L356.422 166.666C355.732 167.367 354.895 167.908 353.971 168.25C352.017 168.928 349.887 168.899 347.953 168.166C347.024 167.805 346.181 167.255 345.475 166.551L345.475 166.551L345.47 166.546C344.763 165.859 344.207 165.033 343.836 164.121C343.048 162.164 343.048 159.978 343.836 158.021C344.207 157.109 344.763 156.283 345.47 155.596L345.47 155.596L345.473 155.593C346.183 154.892 347.028 154.341 347.957 153.975C348.949 153.587 350.007 153.393 351.072 153.404V153.404L351.08 153.404C352.064 153.4 353.042 153.566 353.971 153.892C354.893 154.23 355.731 154.765 356.426 155.458L356.825 155.856L357.216 155.45L358.07 154.564L358.436 154.183M347.002 170.319L358.436 154.183M358.436 154.183L358.073 153.799M358.436 154.183L358.073 153.799M358.073 153.799C357.195 152.871 356.114 152.159 354.914 151.721C353.669 151.262 352.35 151.033 351.023 151.044C349.638 151.029 348.264 151.283 346.975 151.792M358.073 153.799L346.975 151.792M346.975 151.792C345.759 152.268 344.649 152.982 343.712 153.893L346.975 151.792Z" fill="white" stroke="white" stroke-width="1.10796"/>
<path d="M360.939 170.356V170.91H361.493H362.845H363.399V170.356V151.676V151.122H362.845H361.493H360.939V151.676V170.356Z" fill="white" stroke="white" stroke-width="1.10796"/>
<path d="M372.856 170.306L372.861 170.308C374.154 170.806 375.529 171.055 376.915 171.043C378.3 171.059 379.675 170.813 380.969 170.319L380.971 170.318C382.194 169.845 383.309 169.132 384.251 168.22C385.193 167.308 385.942 166.217 386.455 165.011L386.455 165.011L386.46 165.001C387.488 162.443 387.488 159.588 386.46 157.031L386.46 157.031L386.455 157.021C385.949 155.828 385.21 154.746 384.284 153.84C383.349 152.922 382.237 152.206 381.015 151.735L381.014 151.734C378.39 150.729 375.486 150.729 372.862 151.734L372.862 151.734L372.86 151.735C371.632 152.211 370.513 152.93 369.571 153.85L369.57 153.851C368.64 154.764 367.904 155.855 367.407 157.059L367.407 157.059L367.404 157.066C366.392 159.605 366.392 162.437 367.404 164.977L367.404 164.977L367.408 164.985C367.908 166.184 368.643 167.27 369.569 168.181L369.571 168.182C370.515 169.1 371.632 169.822 372.856 170.306ZM376.923 168.683L376.923 168.683L376.909 168.683C375.848 168.695 374.794 168.501 373.806 168.112C372.883 167.746 372.043 167.199 371.335 166.504C370.627 165.809 370.066 164.979 369.684 164.065C368.909 162.103 368.909 159.919 369.684 157.957C370.066 157.052 370.623 156.23 371.321 155.539C372.033 154.844 372.873 154.294 373.795 153.919C375.805 153.152 378.027 153.152 380.037 153.92C380.953 154.289 381.786 154.838 382.485 155.536L382.486 155.536C383.182 156.229 383.736 157.051 384.114 157.957C384.902 159.917 384.902 162.105 384.114 164.064C383.738 164.974 383.185 165.801 382.486 166.495L382.484 166.497C381.787 167.198 380.954 167.748 380.036 168.112C379.045 168.503 377.988 168.696 376.923 168.683ZM375.039 149.725L373.891 150.701H375.398H376.838H377.023L377.171 150.59L381.359 147.443L382.686 146.446H381.026H379.098H378.895L378.739 146.578L375.039 149.725Z" fill="white" stroke="white" stroke-width="1.10796"/>
<path d="M390.388 170.356V170.91H390.942H392.327H392.881V170.356V155.737L404.633 170.698L404.8 170.91H405.069H406.177H406.731V170.356V151.676V151.122H406.177H404.814H404.26V151.676V166.394L392.487 151.334L392.32 151.122H392.05H390.942H390.388V151.676V170.356Z" fill="white" stroke="white" stroke-width="1.10796"/>
<path d="M423.384 170.356V170.91H423.938H425.289H425.843V170.356V164.112L426.01 163.841H426.013L426.011 163.838L433.296 151.965L433.813 151.122H432.823H431.405H431.095L430.933 151.386L424.652 161.623L418.371 151.386L418.209 151.122H417.899H416.403H415.413L415.931 151.966L423.384 164.095V170.356Z" fill="white" stroke="white" stroke-width="1.10796"/>
<path d="M442.518 170.356V170.91H443.072H444.346H444.9V170.356V156.495L451.689 168.164L451.85 168.439H452.168H452.833H453.153L453.313 168.162L460.101 156.431V170.356V170.91H460.655H461.996H462.55V170.356V151.676V151.122H461.996H460.888H460.568L460.408 151.398L452.544 165.002L444.659 151.398L444.499 151.122H444.18H443.072H442.518V151.676V170.356Z" fill="white" stroke="white" stroke-width="1.10796"/>
<path d="M464.606 170.124L464.244 170.91H465.109H466.528H466.884L467.032 170.585L469.267 165.658H479.445L481.69 170.585L481.838 170.91H482.194H483.657H484.521L484.16 170.124L475.573 151.444L475.425 151.122H475.07H473.707H473.352L473.204 151.444L464.606 170.124ZM478.436 163.442H470.273L474.346 154.464L478.436 163.442Z" fill="white" stroke="white" stroke-width="1.10796"/>
<path d="M486.138 170.356V170.91H486.692H488.099H488.653V170.356V155.737L500.405 170.698L500.572 170.91H500.841H501.949H502.503V170.356V151.676V151.122H501.949H500.586H500.032V151.676V166.308L488.235 151.333L488.069 151.122H487.8H486.692H486.138V151.676V170.356Z" fill="white" stroke="white" stroke-width="1.10796"/>
<path d="M511.09 170.356V170.91H511.644H513.006H513.56V170.356V153.459H519.732H520.286V152.905V151.676V151.122H519.732H504.918H504.364V151.676V152.905V153.459H504.918H511.09V170.356Z" fill="white" stroke="white" stroke-width="1.10796"/>
<path d="M524.651 168.572V162.013H534.058H534.612V161.459V160.262V159.708H534.058H524.651V153.459H535.232H535.786V152.905V151.676V151.122H535.232H522.734H522.18V151.676V170.356V170.91H522.734H535.631H536.185V170.356V169.126V168.572H535.631H524.651Z" fill="white" stroke="white" stroke-width="1.10796"/>
<path d="M538.855 170.356V170.91H539.409H540.849H541.403V170.356V155.746L553.099 170.697L553.266 170.91H553.536H554.644H555.198V170.356V151.676V151.122H554.644H553.281H552.727V151.676V166.394L540.953 151.334L540.787 151.122H540.517H539.409H538.855V151.676V170.356Z" fill="white" stroke="white" stroke-width="1.10796"/>
<path d="M559.851 170.356V170.91H560.405H561.768H562.322V170.356V151.676V151.122H561.768H560.405H559.851V151.676V170.356Z" fill="white" stroke="white" stroke-width="1.10796"/>
<path d="M566.986 170.356V170.91H567.54H568.881H569.435V170.356V156.479L576.224 168.163L576.384 168.439H576.703H577.368H577.687L577.847 168.163L584.636 156.447V170.356V170.91H585.19H586.52H587.074V170.356V151.676V151.122H586.52H585.412H585.093L584.933 151.397L577.02 165.015L569.127 151.398L568.967 151.122H568.648H567.54H566.986V151.676V170.356Z" fill="white" stroke="white" stroke-width="1.10796"/>
<path d="M591.76 170.356V170.91H592.314H593.677H594.231V170.356V151.676V151.122H593.677H592.314H591.76V151.676V170.356Z" fill="white" stroke="white" stroke-width="1.10796"/>
<path d="M601.366 168.572V162.013H610.773H611.327V161.459V160.262V159.708H610.773H601.366V153.459H612.003H612.557V152.905V151.676V151.122H612.003H599.449H598.895V151.676V170.356V170.91H599.449H612.346H612.9V170.356V169.126V168.572H612.346H601.366Z" fill="white" stroke="white" stroke-width="1.10796"/>
<path d="M615.57 170.356V170.91H616.124H617.542H618.096V170.356V155.831L629.726 170.697L629.892 170.91H630.162H631.27H631.824V170.356V151.676V151.122H631.27H629.918H629.364V151.676V166.295L617.669 151.334L617.502 151.122H617.232H616.124H615.57V151.676V170.356Z" fill="white" stroke="white" stroke-width="1.10796"/>
<path d="M640.533 170.356V170.91H641.087H642.449H643.003V170.356V153.459H649.175H649.729V152.905V151.676V151.122H649.175H634.361H633.807V151.676V152.905V153.459H634.361H640.533V170.356Z" fill="white" stroke="white" stroke-width="1.10796"/>
<path d="M655.11 170.306L655.114 170.308C656.407 170.806 657.782 171.055 659.167 171.043C660.569 171.063 661.961 170.813 663.268 170.307L663.272 170.306C664.492 169.825 665.604 169.107 666.545 168.194L666.548 168.192C667.472 167.284 668.206 166.202 668.709 165.009L668.709 165.009L668.712 165.001C669.741 162.444 669.741 159.588 668.712 157.031L668.712 157.031L668.71 157.024C668.207 155.82 667.466 154.731 666.53 153.822C665.595 152.913 664.485 152.203 663.267 151.735L663.267 151.734C660.643 150.729 657.739 150.729 655.115 151.734L655.115 151.734L655.112 151.735C653.892 152.21 652.78 152.926 651.844 153.841C650.907 154.755 650.164 155.849 649.661 157.058L649.661 157.058L649.657 157.066C648.645 159.606 648.645 162.437 649.657 164.977L649.657 164.977L649.662 164.987C650.17 166.192 650.914 167.282 651.85 168.196C652.785 169.109 653.893 169.827 655.11 170.306ZM659.176 168.683L659.168 168.683L659.16 168.683C658.081 168.699 657.009 168.506 656.004 168.112C655.083 167.745 654.246 167.195 653.543 166.495L653.543 166.495L653.538 166.491C652.832 165.804 652.275 164.978 651.904 164.065C651.116 162.105 651.116 159.916 651.904 157.956C652.278 157.048 652.835 156.226 653.539 155.541L653.539 155.541L653.541 155.538C654.247 154.842 655.084 154.292 656.003 153.92C658.014 153.152 660.238 153.152 662.249 153.921C663.172 154.282 664.012 154.825 664.72 155.519C665.428 156.212 665.988 157.041 666.367 157.956C667.155 159.916 667.155 162.105 666.367 164.065C665.994 164.975 665.445 165.801 664.749 166.496L664.748 166.497C664.048 167.199 663.211 167.749 662.289 168.112C661.298 168.503 660.241 168.696 659.176 168.683Z" fill="white" stroke="white" stroke-width="1.10796"/>
<path d="M679.921 170.356V170.91H680.475H681.804H682.358V170.356V151.676V151.122H681.804H680.475H679.921V151.676V170.356Z" fill="white" stroke="white" stroke-width="1.10796"/>
<path d="M687.056 170.356V170.91H687.61H689.017H689.571V170.356V155.752L701.312 170.698L701.478 170.91H701.747H702.855H703.409V170.356V151.676V151.122H702.855H701.393H700.839V151.676V166.281L689.154 151.334L688.988 151.122H688.718H687.61H687.056V151.676V170.356Z" fill="white" stroke="white" stroke-width="1.10796"/>
<path d="M712.018 170.356V170.91H712.572H713.935H714.489V170.356V153.459H720.66H721.214V152.905V151.676V151.122H720.66H705.836H705.282V151.676V152.905V153.459H705.836H712.018V170.356Z" fill="white" stroke="white" stroke-width="1.10796"/>
<path d="M725.569 168.572V162.013H734.986H735.54V161.459V160.262V159.708H734.986H725.569V153.459H736.15H736.704V152.905V151.676V151.122H736.15H723.652H723.098V151.676V170.356V170.91H723.652H736.548H737.102V170.356V169.126V168.572H736.548H725.569Z" fill="white" stroke="white" stroke-width="1.10796"/>
<path d="M752.26 170.382C753.362 170.02 754.376 169.436 755.243 168.669L755.65 168.714V168.289L755.82 168.128L755.65 167.896V161.093V160.539H755.096H753.788H753.234V161.093V167.216C752.684 167.623 752.073 167.945 751.424 168.171L751.421 168.172C750.476 168.506 749.481 168.678 748.479 168.683L748.478 168.683C747.411 168.69 746.353 168.496 745.358 168.111C744.422 167.746 743.57 167.196 742.853 166.492L742.851 166.49C742.142 165.803 741.582 164.977 741.205 164.064C740.418 162.108 740.418 159.923 741.205 157.967C741.582 157.054 742.142 156.229 742.851 155.541L742.851 155.541C743.572 154.84 744.424 154.289 745.359 153.92C746.354 153.536 747.411 153.342 748.478 153.349L748.478 153.349L748.488 153.349C749.497 153.336 750.501 153.498 751.456 153.827C752.39 154.16 753.239 154.698 753.939 155.401L754.343 155.808L754.735 155.39L755.588 154.481L755.948 154.098L755.584 153.718C754.697 152.796 753.608 152.092 752.403 151.664C751.136 151.202 749.796 150.973 748.448 150.989C747.042 150.971 745.646 151.225 744.336 151.736L744.335 151.736C743.114 152.214 741.998 152.927 741.052 153.835C740.109 154.735 739.364 155.821 738.862 157.025L738.862 157.025L738.859 157.034C737.847 159.592 737.847 162.439 738.859 164.998L738.859 164.998L738.862 165.007C739.362 166.207 740.103 167.293 741.039 168.195C741.984 169.108 743.1 169.825 744.323 170.306L744.323 170.306L744.329 170.308C745.638 170.807 747.029 171.056 748.43 171.043C749.734 171.036 751.029 170.813 752.26 170.382Z" fill="white" stroke="white" stroke-width="1.10796"/>
<path d="M759.782 170.356V170.9L760.327 170.91L761.634 170.932L762.198 170.941V170.378V165.039L762.253 165.097V164.827H766.977C767.524 164.841 768.069 164.811 768.609 164.738L772.86 170.678L773.026 170.91H773.311H774.873H775.952L775.323 170.033L771.06 164.09C771.118 164.067 771.176 164.043 771.233 164.019L771.233 164.019L771.242 164.015C772.402 163.501 773.387 162.659 774.075 161.593L774.075 161.593L774.081 161.584C774.75 160.499 775.094 159.245 775.072 157.971C775.106 156.67 774.762 155.388 774.082 154.278L774.077 154.269L774.071 154.26C773.376 153.216 772.389 152.398 771.233 151.908L771.233 151.908L771.228 151.906C769.881 151.351 768.433 151.084 766.977 151.122H762.253V150.81L761.972 151.122H760.336H759.782V151.676V164.788L759.746 164.827H759.782V170.356ZM767.04 162.511H762.253V153.482H767.04H767.06L767.08 153.48C768.568 153.371 770.047 153.792 771.254 154.668C771.683 155.101 772.024 155.613 772.259 156.176C772.498 156.751 772.622 157.368 772.622 157.991C772.622 158.614 772.498 159.231 772.259 159.806C772.024 160.369 771.683 160.881 771.253 161.314C770.048 162.195 768.569 162.619 767.079 162.513L767.059 162.511H767.04Z" fill="white" stroke="white" stroke-width="1.10796"/>
<path d="M776.486 170.124L776.124 170.91H776.989H778.452H778.809L778.956 170.585L781.191 165.658H791.325L793.57 170.585L793.717 170.91H794.074H795.536H796.401L796.04 170.124L787.453 151.444L787.305 151.122H786.95H785.587H785.232L785.084 151.444L776.486 170.124ZM790.315 163.442H782.197L786.248 154.513L790.315 163.442Z" fill="white" stroke="white" stroke-width="1.10796"/>
<path d="M798.018 170.356V170.91H798.572H810.682H811.236V170.356V169.126V168.572H810.682H800.478V151.676V151.122H799.924H798.572H798.018V151.676V170.356Z" fill="white" stroke="white" stroke-width="1.10796"/>
</svg>
