<svg width="890" height="164" viewBox="0 0 890 164" fill="none" xmlns="http://www.w3.org/2000/svg">
<path d="M313.06 84.4398H297.06V42.1798L294.38 41.5298C288.51 53.0398 282.03 64.2798 277 76.1298C273.86 83.5198 269.23 86.3198 262.07 84.6098C258.75 83.8198 254.72 81.6098 253.07 78.8498C247.68 69.5798 243.33 59.7198 238.36 50.1998C236.761 47.136 234.165 44.7091 231 43.3198V84.3198H215V27.3198C224.37 27.3198 233.69 26.6998 242.84 27.7098C245.45 27.9898 248.18 32.7098 249.74 35.8998C254.36 45.1198 258.36 54.6798 263.36 66.0198C269.53 53.8898 274.98 44.0798 279.53 33.8698C281.91 28.5198 284.98 26.6598 290.71 27.0598C297.86 27.5598 305.07 27.1798 313.08 27.1798L313.06 84.4398Z" fill="white"/>
<path d="M799.8 27.1898C820.4 27.1898 840.37 26.6898 860.28 27.6098C864.34 27.7998 871.05 32.9898 871.47 36.4698C872.47 44.8398 875.59 54.5698 868.03 60.5698C869.95 68.5698 871.69 75.7698 873.68 84.0698H855.06C854.97 83.9798 854.25 83.5598 854.2 83.0698C852.98 69.8098 852.99 69.8098 839.67 69.8098H818.49C818.05 74.9098 817.66 79.3698 817.24 84.2798H799.8V27.1898ZM818.26 55.0398C829.35 55.0398 839.64 55.3398 849.88 54.7698C851.88 54.6598 855.51 50.6498 855.15 49.3398C854.36 46.4398 851.61 42.1698 849.36 41.9998C839.18 41.2198 828.91 41.6598 818.23 41.6598L818.26 55.0398Z" fill="white"/>
<path d="M621.91 49.2798V60.2798H577.69V69.9498H623.43V84.7598H561.21V27.6898H623.43V39.5498H578.07C577.67 42.9198 577.35 45.5498 576.9 49.2798H621.91Z" fill="white"/>
<path d="M402.89 84.5298C393.23 84.3498 384.12 87.9898 378.75 77.4698C377.94 75.8798 373.81 75.4698 371.2 75.3798C360.9 75.1498 350.59 75.2898 339.54 75.2898C337.54 89.8998 326.27 83.5198 316.35 85.1098C319.71 78.1098 322.44 72.1098 325.35 66.3098C328.9 59.1798 332.6 52.1198 336.19 45.0098C345.51 26.4398 345.52 26.2098 366.22 27.4398C369.51 27.6298 374.02 30.1398 375.57 32.9098C384.82 49.4398 393.36 66.3198 402.89 84.5298ZM372.42 62.0198L359.22 37.5798C354.55 47.0598 351.09 54.0598 347.16 62.0198H372.42Z" fill="white"/>
<path d="M692.25 68.3398V27.8098H709.87V84.7198C700.64 84.7198 691.35 85.0798 682.14 84.4698C679.7 84.3098 676.88 81.5398 675.24 79.2498C668.09 69.2498 661.39 58.9998 654.35 48.9598C652.46 46.2798 649.91 44.0498 646.54 40.3898V84.1098H628.91V27.2298C638.13 27.2298 647.17 26.7998 656.11 27.4998C658.77 27.6998 661.79 30.6198 663.59 33.0598C672.44 45.0598 680.93 57.3298 689.59 69.4998L692.25 68.3398Z" fill="white"/>
<path d="M754.9 84.7798C746.47 84.7798 738.04 84.7798 729.61 84.7798C722.87 84.7798 717.43 81.7298 716.88 75.2798C715.895 63.7371 715.815 52.135 716.64 40.5798C717.3 31.4798 722.77 26.6498 732.88 27.0198C747.88 27.5698 762.88 27.1398 777.88 27.1698C787.4 27.1698 794.88 34.1098 795.2 43.4998C795.47 52.1798 795.44 60.8798 795.2 69.5698C794.97 79.1898 789.2 84.5698 779.27 84.7298C771.14 84.8598 763.02 84.7798 754.9 84.7798ZM755.72 41.6298C731.95 41.6298 731.81 41.8898 732.94 62.7498C733.21 67.8598 735.02 70.1098 740.17 70.0198C747.96 69.8798 755.76 70.0198 763.56 70.0198C776.56 70.0198 776.56 70.0198 776.64 57.5498C776.7 41.6498 776.7 41.6498 760.4 41.6398L755.72 41.6298Z" fill="white"/>
<path d="M421.28 84.2898H404.91V27.2098C413.44 27.2098 422.14 26.5698 430.66 27.5398C433.9 27.8998 437.31 31.5398 439.66 34.4298C448.2 45.2498 456.31 56.4298 464.66 67.4298C465.14 68.0698 466.14 68.3198 468.04 69.4298V27.7498H484.31V84.7498C475.06 84.7498 465.5 85.1298 456.01 84.4798C453.68 84.3198 451.16 81.1198 449.47 78.7898C440.7 66.6798 432.18 54.3998 421.34 42.7898L421.28 84.2898Z" fill="white"/>
<path d="M532.22 84.7598C527.06 84.7598 523.64 84.7598 520.22 84.7598C518.38 84.7598 516.54 84.5598 513.62 84.3898V42.0298H487.84V27.6198H557.63V41.2698H532.22V84.7598Z" fill="white"/>
<path d="M62.0574 72.9651C63.5874 58.5651 74.5874 45.5851 88.2174 42.5251C101.847 39.4651 113.617 45.8251 116.287 61.0651C118.787 75.3651 111.647 91.4651 99.5674 99.0651C95.2039 101.944 90.0632 103.417 84.8374 103.285C75.2374 102.915 68.5274 98.1251 64.5174 89.5051C62.2365 84.31 61.3872 78.5992 62.0574 72.9651Z" fill="white"/>
<path d="M109.687 135.025C105.24 134.536 101.164 132.313 98.3451 128.839C95.5258 125.364 94.19 120.918 94.6274 116.465C94.9045 113.215 96.3709 110.181 98.7456 107.945C101.12 105.709 104.236 104.427 107.497 104.345C117.067 103.845 125.667 112.345 125.167 121.845C125.123 123.764 124.674 125.653 123.849 127.386C123.024 129.12 121.842 130.659 120.38 131.904C118.919 133.148 117.21 134.07 115.368 134.608C113.525 135.145 111.589 135.288 109.687 135.025Z" fill="white"/>
<path d="M124.657 149.365C122.628 149.146 120.768 148.134 119.481 146.549C118.194 144.965 117.586 142.936 117.787 140.905C117.915 139.423 118.584 138.04 119.667 137.019C120.749 135.999 122.17 135.414 123.657 135.375C124.718 135.348 125.773 135.536 126.76 135.927C127.746 136.319 128.643 136.906 129.396 137.654C130.149 138.401 130.743 139.294 131.142 140.277C131.541 141.26 131.737 142.314 131.717 143.375C131.695 144.249 131.488 145.108 131.11 145.896C130.733 146.684 130.193 147.384 129.527 147.949C128.861 148.515 128.082 148.933 127.243 149.177C126.404 149.421 125.523 149.485 124.657 149.365Z" fill="white"/>
<path d="M133.147 159.965C132.043 159.844 131.032 159.292 130.333 158.428C129.634 157.565 129.305 156.46 129.417 155.355C129.486 154.55 129.85 153.798 130.438 153.245C131.027 152.691 131.799 152.374 132.607 152.355C133.183 152.34 133.756 152.442 134.292 152.654C134.827 152.867 135.314 153.185 135.723 153.59C136.133 153.996 136.456 154.48 136.673 155.014C136.89 155.547 136.997 156.119 136.987 156.695C136.976 157.171 136.865 157.64 136.66 158.069C136.455 158.499 136.162 158.881 135.8 159.19C135.437 159.499 135.013 159.727 134.556 159.861C134.099 159.995 133.619 160.03 133.147 159.965Z" fill="white"/>
<path d="M149.707 55.1951C148.817 63.2751 143.857 68.9451 137.277 69.8551C128.527 71.0651 121.917 64.1251 123.587 55.4651C124.877 48.7651 132.107 42.4651 138.877 42.1851C145.317 41.8951 149.687 46.3251 149.777 53.2451C149.797 54.0651 149.717 54.8851 149.707 55.1951Z" fill="white"/>
<path d="M171.007 49.9651C170.477 54.7951 167.507 58.1851 163.567 58.7351C162.407 58.9502 161.211 58.8722 160.088 58.5081C158.966 58.1441 157.952 57.5055 157.138 56.6504C156.325 55.7952 155.738 54.7505 155.43 53.6111C155.123 52.4716 155.105 51.2734 155.377 50.1251C156.157 46.1251 160.477 42.3551 164.527 42.1251C168.377 41.9551 170.997 44.6051 171.057 48.7451C171.007 49.2351 171.007 49.7251 171.007 49.9651Z" fill="white"/>
<path d="M186.137 46.5751C185.867 48.9851 184.387 50.6851 182.417 50.9551C181.837 51.0647 181.239 51.0273 180.676 50.8464C180.114 50.6655 179.606 50.3468 179.199 49.9194C178.791 49.492 178.497 48.9694 178.343 48.3993C178.189 47.8292 178.18 47.2296 178.317 46.6551C178.584 45.6023 179.166 44.6557 179.984 43.9412C180.802 43.2267 181.818 42.7781 182.897 42.6551C183.338 42.6247 183.779 42.6899 184.192 42.8462C184.605 43.0025 184.979 43.2462 185.288 43.5606C185.598 43.8751 185.836 44.2527 185.986 44.6678C186.136 45.0828 186.194 45.5254 186.157 45.9651C186.157 46.2351 186.137 46.4851 186.137 46.5751Z" fill="white"/>
<path d="M59.0074 118.855C57.4474 114.575 56.7374 111.025 59.5274 108.045C62.3174 105.065 65.9874 105.045 69.5974 106.195C77.3674 108.655 82.5974 113.745 84.3074 121.815C85.7074 128.525 80.9574 133.035 74.2274 131.445C66.7974 129.695 61.9074 124.765 59.0074 118.855Z" fill="white"/>
<path d="M57.0074 139.335C56.1374 136.965 55.7474 134.995 57.2974 133.335C58.8474 131.675 60.8774 131.685 62.8774 132.335C67.1974 133.705 70.1074 136.525 71.0374 141.005C71.8174 144.725 69.1874 147.235 65.4474 146.345C63.601 145.893 61.8816 145.027 60.4194 143.813C58.9571 142.598 57.7903 141.067 57.0074 139.335Z" fill="white"/>
<path d="M55.3774 153.355C54.8874 152.025 54.6674 150.915 55.5374 149.985C55.9419 149.587 56.4566 149.32 57.0147 149.219C57.5728 149.117 58.1486 149.185 58.6674 149.415C59.8122 149.709 60.8502 150.322 61.6609 151.182C62.4716 152.042 63.0217 153.115 63.2474 154.275C63.3833 154.706 63.3957 155.167 63.2832 155.605C63.1708 156.043 62.9379 156.44 62.6111 156.752C62.2842 157.065 61.8764 157.279 61.4339 157.372C60.9914 157.464 60.5319 157.431 60.1074 157.275C59.0728 157.024 58.109 156.541 57.2894 155.862C56.4698 155.182 55.8158 154.325 55.3774 153.355Z" fill="white"/>
<path d="M57.4474 87.1151C56.8474 90.8851 56.4474 94.7051 55.5874 98.4251C55.0874 100.595 53.8674 102.715 51.3074 102.985C48.7474 103.255 47.3574 101.445 46.2574 99.5551C44.0239 95.7939 42.603 91.6066 42.0863 87.2628C41.5696 82.9191 41.9685 78.5153 43.2574 74.3351C43.3892 73.912 43.5634 73.5032 43.7774 73.1151C45.7774 69.1151 49.3974 68.5251 51.9074 72.1851C53.5953 74.9015 54.939 77.8172 55.9074 80.8651C56.4527 82.8621 56.8208 84.9034 57.0074 86.9651L57.4474 87.1151Z" fill="white"/>
<path d="M38.5574 93.9651C38.4174 96.1151 38.3774 98.2851 38.1074 100.415C38.101 101.052 37.8864 101.67 37.4964 102.173C37.1065 102.677 36.5625 103.039 35.9474 103.205C34.5774 103.475 33.6374 102.545 32.9474 101.545C31.4993 99.5495 30.4843 97.2731 29.9677 94.8622C29.4511 92.4512 29.4441 89.9589 29.9474 87.5451C29.9998 87.3012 30.0769 87.0634 30.1774 86.8351C31.0074 84.4851 33.0074 83.9651 34.6474 85.8951C35.743 87.3301 36.6566 88.8954 37.3674 90.5551C37.7798 91.6621 38.0943 92.8031 38.3074 93.9651H38.5574Z" fill="white"/>
<path d="M27.0774 99.9051C27.2274 101.025 27.4274 102.135 27.4974 103.255C27.5613 103.581 27.5155 103.918 27.3671 104.215C27.2188 104.512 26.9762 104.751 26.6774 104.895C26.3768 104.98 26.0577 104.974 25.7605 104.878C25.4633 104.782 25.2012 104.6 25.0074 104.355C24.0561 103.487 23.2976 102.428 22.7809 101.248C22.2641 100.068 22.0006 98.7932 22.0074 97.5051C21.9975 97.3753 21.9975 97.2449 22.0074 97.1151C22.2374 95.8151 23.2074 95.3451 24.2274 96.1751C24.932 96.7954 25.5568 97.5008 26.0874 98.2751C26.4246 98.8113 26.7125 99.3769 26.9474 99.9651L27.0774 99.9051Z" fill="white"/>
<path d="M106.457 38.3051C104.657 36.9251 102.837 34.9351 103.157 31.8551C103.317 30.4972 103.871 29.2158 104.751 28.1691C105.63 27.1223 106.797 26.3562 108.107 25.9651C111.637 24.6149 115.436 24.1194 119.194 24.5192C122.951 24.9189 126.561 26.2026 129.727 28.2651C133.147 30.3751 133.367 32.8851 130.937 35.6551C125.707 41.5651 113.457 43.1051 106.457 38.3051Z" fill="white"/>
<path d="M121.677 22.0951C121.045 21.6979 120.531 21.1368 120.191 20.4713C119.851 19.8058 119.698 19.0607 119.747 18.3151C119.833 17.5134 120.154 16.755 120.67 16.1357C121.186 15.5163 121.874 15.0638 122.647 14.8351C124.713 14.0451 126.936 13.7556 129.135 13.9903C131.333 14.2249 133.445 14.9771 135.297 16.1851C137.297 17.4151 137.427 18.8951 136.007 20.5051C132.947 23.9651 125.777 24.9051 121.677 22.0951Z" fill="white"/>
<path d="M133.857 11.2951C133.532 11.0961 133.267 10.8122 133.091 10.4739C132.915 10.1357 132.834 9.7558 132.857 9.37513C132.902 8.96955 133.065 8.58611 133.326 8.27297C133.588 7.95984 133.936 7.73097 134.327 7.61513C135.375 7.21465 136.503 7.06749 137.619 7.18566C138.735 7.30384 139.807 7.68399 140.747 8.29513C140.96 8.37326 141.149 8.50656 141.293 8.68137C141.438 8.85618 141.533 9.06624 141.57 9.29004C141.606 9.51384 141.583 9.74336 141.502 9.9551C141.42 10.1668 141.284 10.3532 141.107 10.4951C140.144 11.3874 138.92 11.9467 137.614 12.0908C136.309 12.2348 134.992 11.9559 133.857 11.2951Z" fill="white"/>
<path d="M92.7974 22.7251C93.3437 22.8906 93.8811 23.0841 94.4074 23.3051C96.8874 24.4451 97.4074 26.0851 96.1874 28.5051C96.0885 28.7369 95.9608 28.9553 95.8074 29.1551C89.7474 36.2751 82.2874 40.6051 72.6974 40.5551C71.6259 40.5032 70.5741 40.2487 69.5974 39.8051C69.0249 39.6179 68.4982 39.3126 68.0513 38.9088C67.6044 38.5051 67.2472 38.0119 67.0031 37.4614C66.7589 36.9108 66.6331 36.3151 66.6339 35.7128C66.6346 35.1105 66.7619 34.5151 67.0074 33.9651C67.5403 32.5537 68.3228 31.2496 69.3174 30.1151C74.0774 24.6851 85.4074 21.1051 92.7974 22.7251Z" fill="white"/>
<path d="M83.2374 11.4351C83.3974 11.4951 83.7474 11.5951 84.0774 11.7451C84.3534 11.8162 84.6075 11.9548 84.8167 12.1484C85.0259 12.342 85.1837 12.5846 85.2759 12.8543C85.3682 13.124 85.3919 13.4124 85.345 13.6936C85.2981 13.9748 85.1821 14.2399 85.0074 14.4651C84.9565 14.587 84.8892 14.7014 84.8074 14.8051C81.6374 18.5251 77.7374 20.8051 72.7174 20.8051C72.1575 20.779 71.6078 20.6466 71.0974 20.4151C70.7951 20.3202 70.5163 20.1622 70.2796 19.9516C70.0428 19.741 69.8535 19.4825 69.724 19.1933C69.5945 18.9041 69.5279 18.5907 69.5284 18.2738C69.529 17.957 69.5968 17.6438 69.7274 17.3551C70.0043 16.6197 70.4145 15.9417 70.9374 15.3551C73.4474 12.4651 79.3674 10.5951 83.2374 11.4351Z" fill="white"/>
<path d="M79.7174 5.06512C79.854 5.10165 79.9877 5.14845 80.1174 5.20512C80.2464 5.23816 80.3651 5.30287 80.4627 5.39341C80.5604 5.48394 80.6339 5.59742 80.6766 5.72355C80.7193 5.84969 80.7299 5.98449 80.7073 6.11573C80.6847 6.24697 80.6298 6.3705 80.5474 6.47512C80.5256 6.53269 80.4953 6.58663 80.4574 6.63512C79.7892 7.50106 78.9318 8.20268 77.9508 8.68626C76.9698 9.16984 75.8911 9.42258 74.7974 9.42512C74.5247 9.41801 74.2562 9.35683 74.0074 9.24512C73.8661 9.19914 73.736 9.12398 73.6256 9.02449C73.5153 8.925 73.427 8.80342 73.3667 8.66764C73.3063 8.53186 73.2752 8.3849 73.2753 8.23631C73.2754 8.08772 73.3068 7.94081 73.3674 7.80512C73.5211 7.45511 73.7381 7.13645 74.0074 6.86512C74.7668 6.16151 75.6728 5.63512 76.6602 5.32386C77.6476 5.01261 78.6917 4.92424 79.7174 5.06512Z" fill="white"/>
<path d="M251.868 136.26C250.481 136.26 249.19 136.035 247.994 135.584C246.815 135.116 245.784 134.466 244.9 133.634C244.033 132.785 243.357 131.788 242.872 130.644C242.387 129.5 242.144 128.252 242.144 126.9C242.144 125.548 242.387 124.3 242.872 123.156C243.357 122.012 244.042 121.024 244.926 120.192C245.81 119.343 246.841 118.693 248.02 118.242C249.199 117.774 250.49 117.54 251.894 117.54C253.385 117.54 254.745 117.8 255.976 118.32C257.207 118.823 258.247 119.577 259.096 120.582L256.912 122.636C256.253 121.925 255.517 121.397 254.702 121.05C253.887 120.686 253.003 120.504 252.05 120.504C251.097 120.504 250.221 120.66 249.424 120.972C248.644 121.284 247.959 121.726 247.37 122.298C246.798 122.87 246.347 123.546 246.018 124.326C245.706 125.106 245.55 125.964 245.55 126.9C245.55 127.836 245.706 128.694 246.018 129.474C246.347 130.254 246.798 130.93 247.37 131.502C247.959 132.074 248.644 132.516 249.424 132.828C250.221 133.14 251.097 133.296 252.05 133.296C253.003 133.296 253.887 133.123 254.702 132.776C255.517 132.412 256.253 131.866 256.912 131.138L259.096 133.218C258.247 134.206 257.207 134.96 255.976 135.48C254.745 136 253.376 136.26 251.868 136.26Z" fill="white"/>
<path d="M270.482 136.26C269.06 136.26 267.752 136.026 266.556 135.558C265.36 135.09 264.32 134.44 263.436 133.608C262.552 132.759 261.867 131.771 261.382 130.644C260.896 129.5 260.654 128.252 260.654 126.9C260.654 125.548 260.896 124.309 261.382 123.182C261.867 122.038 262.552 121.05 263.436 120.218C264.32 119.369 265.36 118.71 266.556 118.242C267.752 117.774 269.052 117.54 270.456 117.54C271.877 117.54 273.177 117.774 274.356 118.242C275.552 118.71 276.592 119.369 277.476 120.218C278.36 121.05 279.044 122.038 279.53 123.182C280.015 124.309 280.258 125.548 280.258 126.9C280.258 128.252 280.015 129.5 279.53 130.644C279.044 131.788 278.36 132.776 277.476 133.608C276.592 134.44 275.552 135.09 274.356 135.558C273.177 136.026 271.886 136.26 270.482 136.26ZM270.456 133.296C271.374 133.296 272.224 133.14 273.004 132.828C273.784 132.516 274.46 132.074 275.032 131.502C275.604 130.913 276.046 130.237 276.358 129.474C276.687 128.694 276.852 127.836 276.852 126.9C276.852 125.964 276.687 125.115 276.358 124.352C276.046 123.572 275.604 122.896 275.032 122.324C274.46 121.735 273.784 121.284 273.004 120.972C272.224 120.66 271.374 120.504 270.456 120.504C269.537 120.504 268.688 120.66 267.908 120.972C267.145 121.284 266.469 121.735 265.88 122.324C265.308 122.896 264.857 123.572 264.528 124.352C264.216 125.115 264.06 125.964 264.06 126.9C264.06 127.819 264.216 128.668 264.528 129.448C264.857 130.228 265.308 130.913 265.88 131.502C266.452 132.074 267.128 132.516 267.908 132.828C268.688 133.14 269.537 133.296 270.456 133.296Z" fill="white"/>
<path d="M283.84 136V117.8H286.622L298.036 131.814H296.658V117.8H300.012V136H297.23L285.816 121.986H287.194V136H283.84Z" fill="white"/>
<path d="M310.531 136.26C309.11 136.26 307.749 136.061 306.449 135.662C305.149 135.246 304.118 134.717 303.355 134.076L304.525 131.45C305.253 132.022 306.155 132.499 307.229 132.88C308.304 133.261 309.405 133.452 310.531 133.452C311.485 133.452 312.256 133.348 312.845 133.14C313.435 132.932 313.868 132.655 314.145 132.308C314.423 131.944 314.561 131.537 314.561 131.086C314.561 130.531 314.362 130.089 313.963 129.76C313.565 129.413 313.045 129.145 312.403 128.954C311.779 128.746 311.077 128.555 310.297 128.382C309.535 128.209 308.763 128.009 307.983 127.784C307.221 127.541 306.519 127.238 305.877 126.874C305.253 126.493 304.742 125.99 304.343 125.366C303.945 124.742 303.745 123.945 303.745 122.974C303.745 121.986 304.005 121.085 304.525 120.27C305.063 119.438 305.869 118.779 306.943 118.294C308.035 117.791 309.413 117.54 311.077 117.54C312.169 117.54 313.253 117.679 314.327 117.956C315.402 118.233 316.338 118.632 317.135 119.152L316.069 121.778C315.255 121.293 314.414 120.937 313.547 120.712C312.681 120.469 311.849 120.348 311.051 120.348C310.115 120.348 309.353 120.461 308.763 120.686C308.191 120.911 307.767 121.206 307.489 121.57C307.229 121.934 307.099 122.35 307.099 122.818C307.099 123.373 307.29 123.823 307.671 124.17C308.07 124.499 308.581 124.759 309.205 124.95C309.847 125.141 310.557 125.331 311.337 125.522C312.117 125.695 312.889 125.895 313.651 126.12C314.431 126.345 315.133 126.64 315.757 127.004C316.399 127.368 316.91 127.862 317.291 128.486C317.69 129.11 317.889 129.899 317.889 130.852C317.889 131.823 317.621 132.724 317.083 133.556C316.563 134.371 315.757 135.029 314.665 135.532C313.573 136.017 312.195 136.26 310.531 136.26Z" fill="white"/>
<path d="M324.679 136V120.66H318.647V117.8H334.091V120.66H328.059V136H324.679Z" fill="white"/>
<path d="M336.628 136V117.8H344.116C345.728 117.8 347.106 118.06 348.25 118.58C349.411 119.1 350.304 119.845 350.928 120.816C351.552 121.787 351.864 122.939 351.864 124.274C351.864 125.609 351.552 126.761 350.928 127.732C350.304 128.685 349.411 129.422 348.25 129.942C347.106 130.445 345.728 130.696 344.116 130.696H338.5L340.008 129.162V136H336.628ZM348.536 136L343.934 129.396H347.548L352.176 136H348.536ZM340.008 129.526L338.5 127.914H343.96C345.45 127.914 346.568 127.593 347.314 126.952C348.076 126.311 348.458 125.418 348.458 124.274C348.458 123.113 348.076 122.22 347.314 121.596C346.568 120.972 345.45 120.66 343.96 120.66H338.5L340.008 118.996V129.526Z" fill="white"/>
<path d="M363.471 136.26C360.975 136.26 359.016 135.558 357.595 134.154C356.191 132.75 355.489 130.722 355.489 128.07V117.8H358.869V127.94C358.869 129.812 359.268 131.173 360.065 132.022C360.88 132.871 362.024 133.296 363.497 133.296C364.97 133.296 366.106 132.871 366.903 132.022C367.7 131.173 368.099 129.812 368.099 127.94V117.8H371.427V128.07C371.427 130.722 370.716 132.75 369.295 134.154C367.891 135.558 365.95 136.26 363.471 136.26Z" fill="white"/>
<path d="M384.585 136.26C383.198 136.26 381.907 136.035 380.711 135.584C379.532 135.116 378.501 134.466 377.617 133.634C376.75 132.785 376.074 131.788 375.589 130.644C375.103 129.5 374.861 128.252 374.861 126.9C374.861 125.548 375.103 124.3 375.589 123.156C376.074 122.012 376.759 121.024 377.643 120.192C378.527 119.343 379.558 118.693 380.737 118.242C381.915 117.774 383.207 117.54 384.611 117.54C386.101 117.54 387.462 117.8 388.693 118.32C389.923 118.823 390.963 119.577 391.813 120.582L389.629 122.636C388.97 121.925 388.233 121.397 387.419 121.05C386.604 120.686 385.72 120.504 384.767 120.504C383.813 120.504 382.938 120.66 382.141 120.972C381.361 121.284 380.676 121.726 380.087 122.298C379.515 122.87 379.064 123.546 378.735 124.326C378.423 125.106 378.267 125.964 378.267 126.9C378.267 127.836 378.423 128.694 378.735 129.474C379.064 130.254 379.515 130.93 380.087 131.502C380.676 132.074 381.361 132.516 382.141 132.828C382.938 133.14 383.813 133.296 384.767 133.296C385.72 133.296 386.604 133.123 387.419 132.776C388.233 132.412 388.97 131.866 389.629 131.138L391.813 133.218C390.963 134.206 389.923 134.96 388.693 135.48C387.462 136 386.093 136.26 384.585 136.26Z" fill="white"/>
<path d="M403.095 136.26C401.708 136.26 400.417 136.035 399.221 135.584C398.042 135.116 397.011 134.466 396.127 133.634C395.26 132.785 394.584 131.788 394.099 130.644C393.613 129.5 393.371 128.252 393.371 126.9C393.371 125.548 393.613 124.3 394.099 123.156C394.584 122.012 395.269 121.024 396.153 120.192C397.037 119.343 398.068 118.693 399.247 118.242C400.425 117.774 401.717 117.54 403.121 117.54C404.611 117.54 405.972 117.8 407.203 118.32C408.433 118.823 409.473 119.577 410.323 120.582L408.139 122.636C407.48 121.925 406.743 121.397 405.929 121.05C405.114 120.686 404.23 120.504 403.277 120.504C402.323 120.504 401.448 120.66 400.651 120.972C399.871 121.284 399.186 121.726 398.597 122.298C398.025 122.87 397.574 123.546 397.245 124.326C396.933 125.106 396.777 125.964 396.777 126.9C396.777 127.836 396.933 128.694 397.245 129.474C397.574 130.254 398.025 130.93 398.597 131.502C399.186 132.074 399.871 132.516 400.651 132.828C401.448 133.14 402.323 133.296 403.277 133.296C404.23 133.296 405.114 133.123 405.929 132.776C406.743 132.412 407.48 131.866 408.139 131.138L410.323 133.218C409.473 134.206 408.433 134.96 407.203 135.48C405.972 136 404.603 136.26 403.095 136.26Z" fill="white"/>
<path d="M413.561 136V117.8H416.941V136H413.561Z" fill="white"/>
<path d="M430.392 136.26C428.971 136.26 427.662 136.026 426.466 135.558C425.27 135.09 424.23 134.44 423.346 133.608C422.462 132.759 421.777 131.771 421.292 130.644C420.807 129.5 420.564 128.252 420.564 126.9C420.564 125.548 420.807 124.309 421.292 123.182C421.777 122.038 422.462 121.05 423.346 120.218C424.23 119.369 425.27 118.71 426.466 118.242C427.662 117.774 428.962 117.54 430.366 117.54C431.787 117.54 433.087 117.774 434.266 118.242C435.462 118.71 436.502 119.369 437.386 120.218C438.27 121.05 438.955 122.038 439.44 123.182C439.925 124.309 440.168 125.548 440.168 126.9C440.168 128.252 439.925 129.5 439.44 130.644C438.955 131.788 438.27 132.776 437.386 133.608C436.502 134.44 435.462 135.09 434.266 135.558C433.087 136.026 431.796 136.26 430.392 136.26ZM430.366 133.296C431.285 133.296 432.134 133.14 432.914 132.828C433.694 132.516 434.37 132.074 434.942 131.502C435.514 130.913 435.956 130.237 436.268 129.474C436.597 128.694 436.762 127.836 436.762 126.9C436.762 125.964 436.597 125.115 436.268 124.352C435.956 123.572 435.514 122.896 434.942 122.324C434.37 121.735 433.694 121.284 432.914 120.972C432.134 120.66 431.285 120.504 430.366 120.504C429.447 120.504 428.598 120.66 427.818 120.972C427.055 121.284 426.379 121.735 425.79 122.324C425.218 122.896 424.767 123.572 424.438 124.352C424.126 125.115 423.97 125.964 423.97 126.9C423.97 127.819 424.126 128.668 424.438 129.448C424.767 130.228 425.218 130.913 425.79 131.502C426.362 132.074 427.038 132.516 427.818 132.828C428.598 133.14 429.447 133.296 430.366 133.296ZM428.182 116.318L431.692 112.756H435.514L430.99 116.318H428.182Z" fill="white"/>
<path d="M443.751 136V117.8H446.533L457.947 131.814H456.569V117.8H459.923V136H457.141L445.727 121.986H447.105V136H443.751Z" fill="white"/>
<path d="M476.457 136V128.798L477.211 130.878L469.307 117.8H472.921L479.265 128.33H477.237L483.633 117.8H486.961L479.057 130.878L479.837 128.798V136H476.457Z" fill="white"/>
<path d="M496.36 136V117.8H499.142L507.098 131.086H505.642L513.468 117.8H516.25L516.276 136H513.078L513.052 122.818H513.728L507.072 133.92H505.564L498.804 122.818H499.584V136H496.36Z" fill="white"/>
<path d="M518.618 136L526.808 117.8H530.136L538.352 136H534.816L527.77 119.594H529.122L522.102 136H518.618ZM522.388 131.788L523.298 129.136H533.126L534.036 131.788H522.388Z" fill="white"/>
<path d="M540.667 136V117.8H543.449L554.863 131.814H553.485V117.8H556.839V136H554.057L542.643 121.986H544.021V136H540.667Z" fill="white"/>
<path d="M565.407 136V120.66H559.375V117.8H574.819V120.66H568.787V136H565.407Z" fill="white"/>
<path d="M580.476 125.366H589.524V128.148H580.476V125.366ZM580.736 133.166H591.006V136H577.356V117.8H590.642V120.634H580.736V133.166Z" fill="white"/>
<path d="M594.774 136V117.8H597.556L608.97 131.814H607.592V117.8H610.946V136H608.164L596.75 121.986H598.128V136H594.774Z" fill="white"/>
<path d="M615.823 136V117.8H619.203V136H615.823Z" fill="white"/>
<path d="M624.126 136V117.8H626.908L634.864 131.086H633.408L641.234 117.8H644.016L644.042 136H640.844L640.818 122.818H641.494L634.838 133.92H633.33L626.57 122.818H627.35V136H624.126Z" fill="white"/>
<path d="M648.958 136V117.8H652.338V136H648.958Z" fill="white"/>
<path d="M660.38 125.366H669.428V128.148H660.38V125.366ZM660.64 133.166H670.91V136H657.26V117.8H670.546V120.634H660.64V133.166Z" fill="white"/>
<path d="M674.678 136V117.8H677.46L688.874 131.814H687.496V117.8H690.85V136H688.068L676.654 121.986H678.032V136H674.678Z" fill="white"/>
<path d="M699.419 136V120.66H693.387V117.8H708.831V120.66H702.799V136H699.419Z" fill="white"/>
<path d="M719.642 136.26C718.221 136.26 716.912 136.026 715.716 135.558C714.52 135.09 713.48 134.44 712.596 133.608C711.712 132.759 711.027 131.771 710.542 130.644C710.057 129.5 709.814 128.252 709.814 126.9C709.814 125.548 710.057 124.309 710.542 123.182C711.027 122.038 711.712 121.05 712.596 120.218C713.48 119.369 714.52 118.71 715.716 118.242C716.912 117.774 718.212 117.54 719.616 117.54C721.037 117.54 722.337 117.774 723.516 118.242C724.712 118.71 725.752 119.369 726.636 120.218C727.52 121.05 728.205 122.038 728.69 123.182C729.175 124.309 729.418 125.548 729.418 126.9C729.418 128.252 729.175 129.5 728.69 130.644C728.205 131.788 727.52 132.776 726.636 133.608C725.752 134.44 724.712 135.09 723.516 135.558C722.337 136.026 721.046 136.26 719.642 136.26ZM719.616 133.296C720.535 133.296 721.384 133.14 722.164 132.828C722.944 132.516 723.62 132.074 724.192 131.502C724.764 130.913 725.206 130.237 725.518 129.474C725.847 128.694 726.012 127.836 726.012 126.9C726.012 125.964 725.847 125.115 725.518 124.352C725.206 123.572 724.764 122.896 724.192 122.324C723.62 121.735 722.944 121.284 722.164 120.972C721.384 120.66 720.535 120.504 719.616 120.504C718.697 120.504 717.848 120.66 717.068 120.972C716.305 121.284 715.629 121.735 715.04 122.324C714.468 122.896 714.017 123.572 713.688 124.352C713.376 125.115 713.22 125.964 713.22 126.9C713.22 127.819 713.376 128.668 713.688 129.448C714.017 130.228 714.468 130.913 715.04 131.502C715.612 132.074 716.288 132.516 717.068 132.828C717.848 133.14 718.697 133.296 719.616 133.296Z" fill="white"/>
<path d="M740.186 136V117.8H743.566V136H740.186Z" fill="white"/>
<path d="M748.489 136V117.8H751.271L762.685 131.814H761.307V117.8H764.661V136H761.879L750.465 121.986H751.843V136H748.489Z" fill="white"/>
<path d="M773.23 136V120.66H767.198V117.8H782.642V120.66H776.61V136H773.23Z" fill="white"/>
<path d="M788.298 125.366H797.346V128.148H788.298V125.366ZM788.558 133.166H798.828V136H785.178V117.8H798.464V120.634H788.558V133.166Z" fill="white"/>
<path d="M811.098 136.26C809.677 136.26 808.368 136.035 807.172 135.584C805.994 135.116 804.962 134.466 804.078 133.634C803.194 132.785 802.51 131.788 802.024 130.644C801.539 129.5 801.296 128.252 801.296 126.9C801.296 125.548 801.539 124.3 802.024 123.156C802.51 122.012 803.194 121.024 804.078 120.192C804.98 119.343 806.028 118.693 807.224 118.242C808.42 117.774 809.729 117.54 811.15 117.54C812.693 117.54 814.08 117.791 815.31 118.294C816.558 118.797 817.607 119.533 818.456 120.504L816.324 122.584C815.614 121.873 814.842 121.353 814.01 121.024C813.196 120.677 812.294 120.504 811.306 120.504C810.353 120.504 809.469 120.66 808.654 120.972C807.84 121.284 807.138 121.726 806.548 122.298C805.959 122.87 805.5 123.546 805.17 124.326C804.858 125.106 804.702 125.964 804.702 126.9C804.702 127.819 804.858 128.668 805.17 129.448C805.5 130.228 805.959 130.913 806.548 131.502C807.138 132.074 807.831 132.516 808.628 132.828C809.426 133.14 810.31 133.296 811.28 133.296C812.182 133.296 813.048 133.157 813.88 132.88C814.73 132.585 815.536 132.1 816.298 131.424L818.222 133.946C817.269 134.709 816.16 135.289 814.894 135.688C813.646 136.069 812.381 136.26 811.098 136.26ZM815.024 133.504V126.692H818.222V133.946L815.024 133.504Z" fill="white"/>
<path d="M822.68 136V117.8H830.168C831.78 117.8 833.158 118.06 834.302 118.58C835.464 119.1 836.356 119.845 836.98 120.816C837.604 121.787 837.916 122.939 837.916 124.274C837.916 125.609 837.604 126.761 836.98 127.732C836.356 128.685 835.464 129.422 834.302 129.942C833.158 130.445 831.78 130.696 830.168 130.696H824.552L826.06 129.162V136H822.68ZM834.588 136L829.986 129.396H833.6L838.228 136H834.588ZM826.06 129.526L824.552 127.914H830.012C831.503 127.914 832.621 127.593 833.366 126.952C834.129 126.311 834.51 125.418 834.51 124.274C834.51 123.113 834.129 122.22 833.366 121.596C832.621 120.972 831.503 120.66 830.012 120.66H824.552L826.06 118.996V129.526Z" fill="white"/>
<path d="M839.124 136L847.314 117.8H850.642L858.858 136H855.322L848.276 119.594H849.628L842.608 136H839.124ZM842.894 131.788L843.804 129.136H853.632L854.542 131.788H842.894Z" fill="white"/>
<path d="M861.172 136V117.8H864.552V133.14H874.068V136H861.172Z" fill="white"/>
</svg>
