<svg xmlns="http://www.w3.org/2000/svg" viewBox="0 0 63.92 48.56"><defs><style>.cls-1{fill:#e20719;}</style></defs><g id="Capa_2" data-name="Capa 2"><g id="Layer_1" data-name="Layer 1"><path class="cls-1" d="M60.22,4.32H52.5V2.77a2.77,2.77,0,0,0-5.54,0V4.32H34.58V2.77a2.77,2.77,0,0,0-5.54,0V4.32H17V2.77a2.77,2.77,0,1,0-5.53,0V4.32H3.7A3.7,3.7,0,0,0,0,8V44.86a3.7,3.7,0,0,0,3.7,3.7H60.22a3.7,3.7,0,0,0,3.7-3.7V8A3.7,3.7,0,0,0,60.22,4.32Zm.84,40.54a.85.85,0,0,1-.84.84H3.7a.85.85,0,0,1-.84-.84V8a.85.85,0,0,1,.84-.84h7.75a2.76,2.76,0,0,0,5.49,0H29.07a2.75,2.75,0,0,0,5.48,0H47a2.75,2.75,0,0,0,5.48,0h7.75a.85.85,0,0,1,.84.84Z"/><rect class="cls-1" x="8.52" y="13.77" width="11.34" height="11.34" rx="1.78"/><rect class="cls-1" x="26.14" y="13.77" width="11.34" height="11.34" rx="1.78"/><rect class="cls-1" x="44.06" y="13.77" width="11.34" height="11.34" rx="1.78"/><rect class="cls-1" x="8.52" y="30.63" width="11.34" height="11.34" rx="1.78"/><rect class="cls-1" x="26.14" y="30.63" width="11.34" height="11.34" rx="1.78"/><rect class="cls-1" x="44.06" y="30.63" width="11.34" height="11.34" rx="1.78"/></g></g></svg>