<svg xmlns="http://www.w3.org/2000/svg" viewBox="0 0 28.14 28.16"><defs><style>.cls-1{fill:#25704F;}</style></defs><g id="Capa_2" data-name="Capa 2"><g id="Layer_1" data-name="Layer 1"><path class="cls-1" d="M28.14,7v4.72H24.07c-.29,1.41.41,1.32,1,2.1a2.52,2.52,0,0,1-.59,3.67l1.76,2.48h1.87v4.94H18.25V19.92h1.86l1.76-2.48a2.27,2.27,0,0,1-1.1-2.14h1.47c.17.06.21.42.39.6.72.73,1.74-.24,1.21-1.09-.14-.22-.59-.39-.82-.62a3.64,3.64,0,0,1-.71-2.53H15.94v.77h-3.3V23.21h1.65v4.95H6.05V23.21H7.69V12.44H4.4v-.77H0V7.06L8.07.13a18.21,18.21,0,0,1,4.11,0ZM11,1.67H9.34V6.73H11Zm1.65.44V6.73H23.19Zm-4.95.66-4.61,4H7.69ZM4.4,8.38H1.65V10H4.4Zm9.89,0H6.05v2.41h8.24Zm12.2,0H15.94V10H26.49ZM11,12.44H9.34V23.21H11Zm13.3,7.48c-.17-.22-1-1.48-1.15-1.43l-1.05,1.43Zm2.2,1.65h-6.6v1.64h6.6ZM12.64,24.86H7.69v1.65h5Z"/></g></g></svg>