<svg xmlns="http://www.w3.org/2000/svg" viewBox="0 0 27.67 27.64"><defs><style>.cls-1{fill:#25704F;}</style></defs><g id="Capa_2" data-name="Capa 2"><g id="Layer_1" data-name="Layer 1"><path class="cls-1" d="M24.85,0a3.41,3.41,0,0,1,2.81,2.81c0,.28,0,.59,0,.86a3.85,3.85,0,0,1-1,2l-6.24,6.24c.77.89,1.95,1.63,2.36,2.77A3.21,3.21,0,0,1,22.09,18l-9.67,9.67-.13,0L5,20.34c-.12-.11.08-.75.05-.78-.22,0-.59.17-.78.06a12.74,12.74,0,0,1-1.15-1.18l.31-.93c-.19.06-.76.42-.91.35L0,15.27,9.69,5.56A3.26,3.26,0,0,1,14,5.4c.28.23,1.76,1.86,1.89,1.84L22.36.73A3.67,3.67,0,0,1,24,0Zm-.66,1.64a1.85,1.85,0,0,0-.91.44L17,8.4l2.3,2.3,6.29-6.3A1.62,1.62,0,0,0,24.19,1.64ZM11.6,6.33a2,2,0,0,0-.66.32,5.61,5.61,0,0,0-.6.59s0,.07,0,.11l10.08,10a1.8,1.8,0,0,0,.65-2.49L12.83,6.59A1.72,1.72,0,0,0,11.6,6.33ZM6.91,17.61l-.19,2.11,5.63,5.62,6.82-6.79L17,16.37,13.36,20l-1.15-1.15,3.67-3.68-1.11-1.1-4.86,4.8L8.77,17.78l4.78-4.85-1.1-1.15L8.77,15.45,7.62,14.3l3.67-3.68L9.15,8.49,2.32,15.27l.62.65,3.49-1.6-1.3,3.56Z"/><path class="cls-1" d="M24.18,2.44A.82.82,0,1,1,24.54,4C23.56,4.18,23.26,2.65,24.18,2.44Z"/></g></g></svg>