<svg xmlns="http://www.w3.org/2000/svg" viewBox="0 0 43.9 57.79"><defs><style>.cls-1{fill:#e20719;}</style></defs><g id="Capa_2" data-name="Capa 2"><g id="Layer_1" data-name="Layer 1"><path class="cls-1" d="M40.55,0H7.25A3.35,3.35,0,0,0,3.91,3.35v7H2.05a2.05,2.05,0,0,0-2,2.05v.9a2.05,2.05,0,0,0,2.05,2.06H3.91V26.53H2.05a2.05,2.05,0,0,0-2,2v.9a2.05,2.05,0,0,0,2.05,2.05H3.91V42.45H2.05a2.05,2.05,0,0,0-2,2.06v.9a2.05,2.05,0,0,0,2.05,2.05H3.91v7a3.35,3.35,0,0,0,3.34,3.35h33.3a3.35,3.35,0,0,0,3.35-3.35V3.35A3.35,3.35,0,0,0,40.55,0Zm.76,54.44a.76.76,0,0,1-.76.76H7.25a.76.76,0,0,1-.76-.76v-7H7.81v-5H6.49V31.53H7.81v-5H6.49V15.34H7.78a0,0,0,0,0,0,0v-5a0,0,0,0,0,0,0H6.49v-7a.76.76,0,0,1,.76-.76h33.3a.76.76,0,0,1,.76.76Z"/><path class="cls-1" d="M35.47,10.78H13.26a2.06,2.06,0,0,0,0,4.11H35.47a2.06,2.06,0,0,0,0-4.11Z"/><path class="cls-1" d="M35.47,18.81H13.26a2.06,2.06,0,0,0,0,4.11H35.47a2.06,2.06,0,0,0,0-4.11Z"/><path class="cls-1" d="M35.47,26.84h-9a2.05,2.05,0,0,0-2.06,2.05h0A2.06,2.06,0,0,0,26.42,31h9a2.05,2.05,0,0,0,2.05-2.06h0A2.05,2.05,0,0,0,35.47,26.84Z"/></g></g></svg>