<svg xmlns="http://www.w3.org/2000/svg" viewBox="0 0 53.68 57.79"><defs><style>.cls-1{fill:#e20719;}</style></defs><g id="Capa_2" data-name="Capa 2"><g id="Layer_1" data-name="Layer 1"><path class="cls-1" d="M47.47,45.39h2.08a2,2,0,0,1,2,2q0,4.13,0,8.25a2,2,0,0,1-2.13,2.08c-3.58,0-7.17,0-10.76,0-11.41,0-22.82,0-34.23,0a2.29,2.29,0,0,1-2.41-2.43c.09-2.58,0-5.16,0-7.74a2,2,0,0,1,2.24-2.23H6.21V33a20.62,20.62,0,0,1,40.88-3.9,22.37,22.37,0,0,1,.36,3.83c0,3.89,0,7.78,0,11.67Zm-4.12,0V44.6c0-3.74,0-7.47,0-11.21A22.3,22.3,0,0,0,43,29.56a16.49,16.49,0,0,0-32.61,3.63c0,3.85,0,7.69,0,11.54,0,.2,0,.41,0,.64Zm4.09,4.19H6.26v4H47.44Z"/><path class="cls-1" d="M28.9,5.19c0,1,0,2.06,0,3.09a2.06,2.06,0,0,1-4.12,0q0-3.09,0-6.18a2.06,2.06,0,1,1,4.12,0C28.91,3.13,28.9,4.16,28.9,5.19Z"/><path class="cls-1" d="M14.37,12.53a7.08,7.08,0,0,1-1.4-.8c-1.38-1.32-2.72-2.68-4.06-4a2.07,2.07,0,1,1,2.92-2.93q2.07,2,4.1,4.1a2,2,0,0,1,.42,2.31A2.45,2.45,0,0,1,14.37,12.53Z"/><path class="cls-1" d="M43.32,4a2.34,2.34,0,0,1,1.9,1.33A1.86,1.86,0,0,1,45,7.48c-1.44,1.5-2.91,3-4.42,4.42A2.06,2.06,0,0,1,37.66,9Q39.78,6.77,42,4.65A5.33,5.33,0,0,1,43.32,4Z"/><path class="cls-1" d="M47.63,20.63a2.13,2.13,0,0,1-2.16-1.49,2,2,0,0,1,.93-2.34c1.46-.78,2.93-1.52,4.43-2.21a2,2,0,0,1,2.59.93,2,2,0,0,1-.65,2.67c-1.53.85-3.13,1.59-4.71,2.36A1.23,1.23,0,0,1,47.63,20.63Z"/><path class="cls-1" d="M6.17,20.7a9.81,9.81,0,0,1-1.08-.37c-1.27-.62-2.53-1.26-3.79-1.9a2.08,2.08,0,1,1,1.84-3.72q2,1,4,2a2.06,2.06,0,0,1,1.07,2.34A2.22,2.22,0,0,1,6.17,20.7Z"/><path class="cls-1" d="M28.9,33c0,1.36,0,2.67,0,4a2.07,2.07,0,1,1-4.12,0V33h-4a2.07,2.07,0,1,1,0-4.13h3.8a.74.74,0,0,0,.18-.07V24.91a2.07,2.07,0,1,1,4.12,0c0,1.26,0,2.53,0,3.8a1,1,0,0,0,.07.17h3.88a2.07,2.07,0,1,1,0,4.13Z"/></g></g></svg>