<svg xmlns="http://www.w3.org/2000/svg" viewBox="0 0 43.47 43.61"><defs><style>.cls-1{fill:#fff;}</style></defs><g id="Capa_2" data-name="Capa 2"><g id="Layer_1" data-name="Layer 1"><path class="cls-1" d="M0,43.61,1.32,38.7a12.15,12.15,0,0,1,.41-1.46,10.81,10.81,0,0,0-.22-8.47C-3.29,16.32,5.11,2.33,18.33.27a21.62,21.62,0,0,1,7.06,42.66A22.13,22.13,0,0,1,12.22,41a2.61,2.61,0,0,0-1.63-.15C7.13,41.74,3.7,42.65,0,43.61Zm5.23-5.16c2-.54,3.81-1,5.55-1.48a2.7,2.7,0,0,1,2.26.3,17.11,17.11,0,0,0,11.79,2A18,18,0,0,0,39,16.3,18,18,0,1,0,6.5,31.07a2.53,2.53,0,0,1,.21,1.7C6.31,34.59,5.78,36.39,5.23,38.45Z"/><path class="cls-1" d="M26.72,32a14.81,14.81,0,0,1-6.14-2.31,22.87,22.87,0,0,1-9.2-10.21,6.12,6.12,0,0,1,1.3-7.14,2.34,2.34,0,0,1,3.93.76,23.79,23.79,0,0,0,1.15,2.7,2.17,2.17,0,0,1-.32,2.75c-1.25,1.56-1.21,1.6-.09,3.2a14.55,14.55,0,0,0,6.39,5.11,1.11,1.11,0,0,0,1.52-.37c.39-.53.86-1,1.23-1.53a1.18,1.18,0,0,1,1.75-.46c1.22.64,2.48,1.22,3.74,1.79a1.19,1.19,0,0,1,.76,1.28C32.67,30.15,30.55,32,26.72,32Z"/></g></g></svg>