<svg width="164" height="164" viewBox="0 0 164 164" fill="none" xmlns="http://www.w3.org/2000/svg">
<rect width="164" height="164" fill="#E20719"/>
<path d="M151.971 122.074H129.133V62.418L125.308 61.5004C116.929 77.7485 107.679 93.6155 100.499 110.344C96.0171 120.776 89.4082 124.728 79.188 122.314C74.449 121.199 68.6966 118.079 66.3414 114.183C58.6476 101.097 52.4384 87.1783 45.3442 73.7394C43.0615 69.4143 39.3556 65.9884 34.8385 64.0272V121.905H12V41.4408C25.3748 41.4408 38.6782 40.5656 51.739 41.9914C55.4645 42.3866 59.3613 49.0496 61.5881 53.5528C68.1827 66.5682 73.8923 80.0636 81.0294 96.0717C89.8365 78.9484 97.6158 65.1001 104.111 50.6871C107.508 43.1348 111.89 40.5091 120.069 41.0738C130.275 41.7796 140.566 41.2432 152 41.2432L151.971 122.074Z" fill="white"/>
</svg>
